<svg xmlns="http://www.w3.org/2000/svg" viewBox="0 0 321 113" fill="none"><path fill="currentColor" d="M64.95 6.15c.15-1.35 1.35-2.4 2.7-2.4h20.7c1.35 0 2.25 1.05 2.1 2.4L76.05 108.6c-.3 1.35-1.65 2.4-3 2.4h-18.3c-1.35 0-2.4-1.05-2.1-2.4l.3-6.15c-5.55 6.45-13.35 10.35-23.4 10.35-18.9 0-28.8-13.2-28.8-32.1 0-23.55 16.05-45 39.9-45 9.45 0 15.9 3.45 19.65 9l4.65-38.55ZM25.5 76.65c0 8.1 4.95 13.35 12.75 13.35 9.15 0 16.35-6.3 17.55-15.9 1.35-9.45-3.9-15.6-12.75-15.6-10.8 0-17.55 8.85-17.55 18.15ZM88.55 111c-1.35 0-2.55-1.05-2.25-2.4l9.6-68.7c.3-1.35 1.5-2.4 2.85-2.4h20.549c1.35 0 2.4 1.05 2.1 2.4l-9.6 68.7c-.3 1.35-1.35 2.4-2.7 2.4h-20.55ZM98.6 13.5C98.6 6 104.298 0 112.248 0c7.65 0 13.35 6 13.35 13.5 0 7.65-5.7 13.65-13.35 13.65-7.95 0-13.65-6-13.65-13.65Zm56.932 98.4c-12.15 0-24.3-5.55-21.6-23.85l4.35-31.2h-8.7c-1.35 0-2.25-1.05-2.1-2.4l1.95-14.55c.15-1.35 1.35-2.4 2.7-2.4h8.85l2.4-17.1c.15-1.35 1.5-2.4 2.85-2.4h20.55c1.35 0 2.25 1.05 2.1 2.4l-2.4 17.1h10.8c1.35 0 2.25 1.05 2.1 2.4l-2.25 14.7c-.15 1.35-1.35 2.25-2.7 2.25h-10.65l-4.05 28.5c-.45 3.6 1.95 5.7 5.25 5.7 1.35 0 2.85 0 4.5-.15 1.8-.15 2.85.75 2.7 2.4l-1.95 13.5c-.45 3.9-9 5.1-14.7 5.1Zm56.397 0c-12.15 0-24.3-5.55-21.6-23.85l4.35-31.2h-8.7c-1.35 0-2.25-1.05-2.1-2.4l1.95-14.55c.15-1.35 1.35-2.4 2.7-2.4h8.85l2.4-17.1c.15-1.35 1.5-2.4 2.85-2.4h20.55c1.35 0 2.25 1.05 2.1 2.4l-2.4 17.1h10.8c1.35 0 2.25 1.05 2.1 2.4l-2.25 14.7c-.15 1.35-1.35 2.25-2.7 2.25h-10.65l-4.05 28.5c-.45 3.6 1.95 5.7 5.25 5.7 1.35 0 2.85 0 4.5-.15 1.8-.15 2.85.75 2.7 2.4l-1.95 13.5c-.45 3.9-9 5.1-14.7 5.1Zm52.664.9c-18.9 0-28.8-13.2-28.8-32.1 0-23.55 16.05-45 39.9-45 10.05 0 16.5 3.75 20.25 10.05l1.35-5.85c.3-1.35 1.35-2.4 2.7-2.4h18.6c1.35 0 2.4 1.05 2.1 2.4l-9.6 68.7c-.3 1.35-1.65 2.4-3 2.4h-18.3c-1.35 0-2.4-1.05-2.1-2.4l.3-6.15c-5.55 6.45-13.35 10.35-23.4 10.35Zm-4.05-36.15c0 8.1 4.95 13.35 12.75 13.35 9.15 0 16.35-6.3 17.55-15.9 1.35-9.45-3.9-15.6-12.75-15.6-10.8 0-17.55 8.85-17.55 18.15Z"/></svg>