<svg width="1312" height="453" viewBox="0 0 1312 453" xmlns="http://www.w3.org/2000/svg">
  <path d="M1204.87 319.684L1204.87 319.685C1196.96 359.252 1168.34 387.251 1125.73 387.251C1103.21 387.251 1090.43 376.298 1090.43 359.251C1090.43 337.339 1109.3 322.117 1136.08 318.468L1206.69 308.725L1204.87 319.684Z" />
  <path d="M1312 453H122.963C161.921 453 195.4 435.344 210.616 412.818L203.921 448.128H294.014L370.713 4.36296H281.229L253.23 163.244C236.184 141.332 200.272 127.326 164.354 127.326C63.3094 127.325 4.50892e-05 210.114 0 308.726C0 393.339 53.5664 452.999 122.963 453H0V0.511396H1312V453ZM613.781 40.2799L565.086 318.468C548.647 409.777 599.173 452.999 678.914 452.999C701.44 452.999 718.487 449.952 733.095 445.695L746.486 368.994C733.095 373.251 719.702 375.69 697.784 375.69C663.089 375.69 647.259 359.86 653.347 323.34L674.048 205.849H807.362L787.274 318.468C770.835 409.777 821.362 452.999 901.103 452.999C923.622 452.999 940.67 449.952 955.277 445.695L968.668 368.994C955.277 373.251 941.885 375.69 919.974 375.69C885.278 375.69 869.448 359.86 875.535 323.34L896.23 205.849L896.233 205.85H997.284L1010.68 132.197H909.625L925.456 40.2799H835.972L820.147 132.197H687.441L703.266 40.2799H613.781ZM1171.39 127.325C1101.38 127.325 1031.38 171.155 1022.86 239.944H1108.69C1114.17 211.33 1137.3 194.897 1170.17 194.897C1200.6 194.897 1218.26 209.505 1218.26 226.551C1218.26 242.376 1207.91 252.118 1192.08 253.943L1126.34 260.638C1059.38 267.334 1003.38 298.989 1003.38 363.514C1003.38 420.736 1048.43 452.999 1112.95 452.999C1154.95 452.999 1193.91 436.56 1206.69 413.425C1208.52 435.344 1232.87 452.39 1264.52 452.39C1279.74 452.39 1290.7 450.559 1299.22 448.127L1312 375.082C1309.57 375.69 1305.91 376.298 1301.05 376.298C1287.65 376.298 1284.61 365.339 1286.43 354.38L1302.26 264.288C1316.87 179.675 1262.7 127.325 1171.39 127.325ZM393.854 132.197L379.854 205.85H424.293L393.854 374.467H344.551L331.159 448.128H520.472L533.864 374.467H483.339L526.56 132.197H393.854ZM483.4 0.581709C458.448 -0.800238 437.1 18.3071 435.718 43.2594C434.336 68.2118 453.443 89.56 478.396 90.9421C503.348 92.324 524.696 73.2166 526.078 48.2643C527.46 23.312 508.353 1.96376 483.4 0.581709Z" />
  <path d="M172.875 203.419C210.617 203.419 236.792 230.202 236.792 272.207C236.792 322.117 206.968 376.907 152.787 376.907C116.268 376.907 90.7012 346.469 90.7012 305.078C90.7012 247.248 124.18 203.419 172.875 203.419Z" />
</svg>
