<svg xmlns="http://www.w3.org/2000/svg" viewBox="0 0 40 40" fill="none"><path fill="currentColor" d="M20 0c-5.433 0-6.112.025-8.245.12-2.13.1-3.58.435-4.855.93a9.793 9.793 0 0 0-3.543 2.307A9.758 9.758 0 0 0 1.05 6.9C.555 8.175.218 9.625.12 11.755.02 13.888 0 14.567 0 20s.025 6.112.12 8.245c.1 2.128.435 3.58.93 4.855a9.807 9.807 0 0 0 2.307 3.543A9.779 9.779 0 0 0 6.9 38.95c1.277.493 2.727.832 4.855.93 2.133.1 2.812.12 8.245.12s6.112-.025 8.245-.12c2.128-.1 3.58-.437 4.855-.93a9.83 9.83 0 0 0 3.543-2.307A9.765 9.765 0 0 0 38.95 33.1c.493-1.275.832-2.727.93-4.855.1-2.133.12-2.812.12-8.245s-.025-6.112-.12-8.245c-.1-2.128-.437-3.582-.93-4.855a9.816 9.816 0 0 0-2.307-3.543A9.744 9.744 0 0 0 33.1 1.05C31.825.555 30.373.218 28.245.12 26.112.02 25.433 0 20 0Zm0 3.6c5.338 0 5.975.027 8.083.118 1.95.092 3.009.415 3.712.692.937.362 1.6.795 2.303 1.493a6.178 6.178 0 0 1 1.494 2.302c.273.703.6 1.762.688 3.712.095 2.11.117 2.743.117 8.083s-.025 5.975-.124 8.083c-.101 1.95-.426 3.009-.701 3.712a6.35 6.35 0 0 1-1.499 2.303 6.24 6.24 0 0 1-2.3 1.494c-.7.273-1.775.6-3.725.688-2.123.095-2.748.117-8.098.117-5.352 0-5.977-.025-8.098-.124-1.952-.101-3.027-.426-3.727-.701a6.194 6.194 0 0 1-2.298-1.499 6.073 6.073 0 0 1-1.5-2.3c-.275-.7-.599-1.775-.7-3.725-.075-2.1-.102-2.748-.102-8.073 0-5.327.027-5.977.102-8.102.101-1.95.425-3.023.7-3.723.35-.95.798-1.6 1.5-2.302.698-.698 1.35-1.148 2.298-1.496.7-.277 1.752-.602 3.702-.702 2.125-.075 2.75-.1 8.098-.1L20 3.6Zm0 6.13a10.27 10.27 0 1 0 0 20.54 10.27 10.27 0 0 0 0-20.54Zm0 16.937A6.665 6.665 0 0 1 13.333 20 6.665 6.665 0 0 1 20 13.333 6.665 6.665 0 0 1 26.667 20 6.665 6.665 0 0 1 20 26.667ZM33.077 9.325a2.402 2.402 0 0 1-4.8 0 2.4 2.4 0 1 1 4.8 0Z"/></svg>