<svg xmlns="http://www.w3.org/2000/svg" viewBox="0 0 110 134" fill="none"><path fill="#000" d="M30 80h10v40H30V80Z"/><path fill="#fff" d="M40 70h10v50H40V70Z"/><path fill="#00E640" d="M50 70h10v50H50V70Z"/><path fill="#00C340" d="M60 70h10v50H60V70Z"/><path fill="#000" d="M0 70h40v10H0V70ZM0 49.999h10v20L0 70V50ZM9.99 39.999h10v10H10l-.01-10ZM19.99 30h10v9.999h-10v-10Z"/><path fill="#fff" d="M49.99 20h10V10h-10v10Z"/><path fill="#fff" d="M49.99 20h10V10h-10v10Z"/><path fill="#fff" d="M49.99 20h10V10h-10v10Z"/><path fill="#fff" d="M49.99 20h10V10h-10v10ZM39.99 30h10V20h-10v10Z"/><path fill="#fff" d="M39.99 30h10V20h-10v10Z"/><path fill="#fff" d="M39.99 30h10V20h-10v10Z"/><path fill="#fff" d="M39.99 30h10V20h-10v10ZM29.99 39.999h10v-10h-10v10Z"/><path fill="#fff" d="M29.99 39.999h10v-10h-10v10Z"/><path fill="#fff" d="M29.99 39.999h10v-10h-10v10Z"/><path fill="#fff" d="M29.99 39.999h10v-10h-10v10ZM19.99 49.999h10v-10h-10v10Z"/><path fill="#fff" d="M19.99 49.999h10v-10h-10v10Z"/><path fill="#fff" d="M19.99 49.999h10v-10h-10v10Z"/><path fill="#fff" d="M19.99 49.999h10v-10h-10v10Z"/><path fill="#000" d="M29.99 20h10v10h-10V20ZM39.99 10h10v10h-10V10ZM49.99 0h10v10h-10V0ZM59.99 10h10v10h-10V10Z"/><path fill="#00C340" d="M59.99 30h10V20h-10v10Z"/><path fill="#24F456" d="M59.99 30h-10V20h10v10ZM49.99 39.999h-10v-10h10v10Z"/><path fill="#00E640" d="M69.99 39.999h-20v-10h20v10ZM79.99 49.999H39.992l-.002-10h40v10Z"/><path fill="#00E640" d="M89.99 59.998H29.992l-.002-10h60v10ZM90 70H30l-.008-10.002H89.99L90 70Z"/><path fill="#24F456" d="M39.992 49.999H29.99v-10h10l.002 10ZM30 70H20V50h10v20Z"/><path fill="#fff" d="M20 70 10 70v-20L20 50v20Z"/><path fill="#000" d="M69.99 20h10v10h-10V20Z"/><path fill="#00C340" d="M69.99 39.999h10v-10h-10v10Z"/><path fill="#000" d="M79.99 30h10v9.999h-10v-10Z"/><path fill="#00C340" d="M79.99 49.999h10v-10h-10v10Z"/><path fill="#000" d="M89.99 39.999h10v10h-10v-10Z"/><path fill="#00C340" d="M90 70h10V50L89.99 50 90 70Z"/><path fill="#000" d="M30 120H80v10H30v-10ZM70 80h10L80 120H70V80ZM70 70h39.989v10H70V70Z"/><path fill="#000" d="m100 50 9.99-.001-.001 30H99.99L100 50Z"/></svg>