<svg width="42" height="35" viewBox="0 0 42 35" xmlns="http://www.w3.org/2000/svg">
  <path d="M24.7298 21.7195H33.0498L41.2098 0.43951H35.4498L24.7298 21.7195Z" />
  <path d="M9.68987 21.7195L17.8499 0.439453H12.0899L1.36987 21.7195H9.68987Z" />
  <path d="M18.1948 25.6718C18.1948 30.5807 14.2153 34.5602 9.3064 34.5602C4.39745 34.5602 0.417969 30.5807 0.417969 25.6718C0.417969 20.7628 4.39745 16.7834 9.3064 16.7834C14.2153 16.7834 18.1948 20.7628 18.1948 25.6718Z" />
  <path d="M41.5818 25.6716C41.5818 30.5805 37.6023 34.56 32.6933 34.56C27.7844 34.56 23.8049 30.5805 23.8049 25.6716C23.8049 20.7626 27.7844 16.7831 32.6933 16.7831C37.6023 16.7831 41.5818 20.7626 41.5818 25.6716Z" />
</svg>
