<svg width="43" height="54" viewBox="0 0 43 54" fill="none" xmlns="http://www.w3.org/2000/svg">
<path d="M16.4231 2H4.88462C3.29231 2 2 3.29231 2 4.88462V49.1154C2 50.7077 3.29231 52 4.88462 52H37.5769C39.1692 52 40.4615 50.7077 40.4615 49.1154V26.0385M16.4231 2H17.3846C23.505 2 29.3747 4.43131 33.7025 8.75907C38.0302 13.0868 40.4615 18.9565 40.4615 25.0769V26.0385M16.4231 2C18.7182 2 20.9194 2.91174 22.5423 4.53465C24.1652 6.15756 25.0769 8.3587 25.0769 10.6538V14.5C25.0769 16.0923 26.3692 17.3846 27.9615 17.3846H31.8077C34.1028 17.3846 36.304 18.2964 37.9269 19.9193C39.5498 21.5422 40.4615 23.7433 40.4615 26.0385M13.5385 34.6923L19.3077 40.4615L28.9231 27" stroke="black" stroke-width="4" stroke-linecap="round" stroke-linejoin="round"/>
</svg>
