<svg xmlns="http://www.w3.org/2000/svg" width="70" height="59" fill="none">
<path stroke="#232323" fill="none" d="M17.707 32.036 35.206 1.727l17.499 30.309H17.707Z"/>

<rect width="69" height="31" x=".5" y="27.5" fill="#FEB9B8" stroke="#F38E8C" rx="2.5"/>

<path fill="#232323" d="M18.235 34.069a.48.48 0 0 1 .473-.417h3.622c.237 0 .394.182.368.417l-2.52 17.801a.559.559 0 0 1-.525.417H16.45c-.236 0-.42-.182-.367-.417l.052-1.068c-.971 1.12-2.336 1.798-4.095 1.798C8.733 52.6 7 50.306 7 47.022c0-4.092 2.809-7.819 6.983-7.819 1.653 0 2.782.6 3.438 1.564l.814-6.698Zm-6.904 12.25c0 1.407.867 2.32 2.232 2.32 1.6 0 2.86-1.095 3.07-2.764.237-1.642-.682-2.71-2.23-2.71-1.89 0-3.072 1.538-3.072 3.154Zm11.034 5.968c-.236 0-.446-.182-.393-.417l1.68-11.937a.529.529 0 0 1 .498-.417h3.596c.237 0 .42.182.368.417l-1.68 11.937c-.053.235-.236.417-.473.417h-3.596Zm1.759-16.941c0-1.303.997-2.346 2.389-2.346 1.338 0 2.336 1.043 2.336 2.346 0 1.329-.998 2.372-2.337 2.372-1.39 0-2.388-1.043-2.388-2.372Zm9.963 17.098c-2.126 0-4.252-.965-3.78-4.145l.762-5.42h-1.523c-.236 0-.394-.183-.367-.418l.34-2.528a.48.48 0 0 1 .473-.417h1.549l.42-2.971c.026-.235.263-.417.499-.417h3.596c.236 0 .394.182.368.417l-.42 2.971h1.89c.236 0 .393.182.367.417l-.394 2.554c-.026.235-.236.391-.472.391H35.53l-.709 4.952c-.078.626.342.99.92.99.235 0 .498 0 .787-.025.315-.026.498.13.472.417l-.341 2.345c-.079.678-1.575.887-2.573.887Zm9.87 0c-2.126 0-4.253-.965-3.78-4.145l.761-5.42h-1.522c-.237 0-.394-.183-.368-.418l.341-2.528a.48.48 0 0 1 .473-.417h1.549l.42-2.971c.026-.235.262-.417.498-.417h3.597c.236 0 .393.182.367.417l-.42 2.971h1.89c.236 0 .394.182.368.417l-.394 2.554c-.026.235-.236.391-.473.391h-1.863l-.709 4.952c-.079.626.341.99.919.99.236 0 .498 0 .787-.025.315-.026.499.13.473.417l-.342 2.345c-.078.678-1.575.887-2.572.887Zm9.216.156c-3.307 0-5.04-2.294-5.04-5.578 0-4.092 2.809-7.819 6.983-7.819 1.759 0 2.887.652 3.544 1.746l.236-1.016c.052-.235.236-.417.472-.417h3.255c.237 0 .42.182.368.417l-1.68 11.937a.559.559 0 0 1-.525.417h-3.203c-.236 0-.42-.182-.367-.417l.052-1.068c-.97 1.12-2.336 1.798-4.095 1.798Zm-.708-6.281c0 1.407.866 2.32 2.23 2.32 1.602 0 2.862-1.095 3.072-2.764.236-1.642-.682-2.71-2.231-2.71-1.89 0-3.071 1.538-3.071 3.154Z"/></svg>