<svg width="24" height="24" viewBox="0 0 24 24" xmlns="http://www.w3.org/2000/svg">
<path d="M10.375 4.21875C10.6752 3.97861 11.0871 3.93211 11.4336 4.09863C11.7799 4.26521 12 4.61571 12 5V19C12 19.3843 11.7799 19.7348 11.4336 19.9014C11.0871 20.0679 10.6752 20.0214 10.375 19.7813L5.64844 16H2C1.44772 16 1 15.5523 1 15V9C1 8.44772 1.44772 8 2 8H5.64844L10.375 4.21875ZM6.625 9.78125C6.44769 9.9231 6.22707 10 6 10H3V14H6C6.22707 14 6.44769 14.0769 6.625 14.2188L10 16.918V7.08106L6.625 9.78125ZM22.293 8.29297C22.6835 7.90245 23.3165 7.90245 23.707 8.29297C24.0976 8.68349 24.0976 9.31651 23.707 9.70703L21.4141 12L23.707 14.293C24.0976 14.6835 24.0976 15.3165 23.707 15.707C23.3165 16.0976 22.6835 16.0976 22.293 15.707L20 13.4141L17.707 15.707C17.3165 16.0976 16.6835 16.0976 16.293 15.707C15.9024 15.3165 15.9024 14.6835 16.293 14.293L18.5859 12L16.293 9.70703C15.9024 9.31651 15.9024 8.68349 16.293 8.29297C16.6835 7.90245 17.3165 7.90245 17.707 8.29297L20 10.5859L22.293 8.29297Z" />
</svg>
