<svg width="24" height="24" viewBox="0 0 24 24" xmlns="http://www.w3.org/2000/svg">
<path d="M10.375 4.21877C10.6752 3.97864 11.0871 3.93214 11.4336 4.09866C11.7799 4.26524 12 4.61573 12 5.00002V19C12 19.3843 11.7799 19.7348 11.4336 19.9014C11.0871 20.0679 10.6752 20.0214 10.375 19.7813L5.64844 16H2C1.44772 16 1 15.5523 1 15V9.00002C1 8.44774 1.44772 8.00002 2 8.00002H5.64844L10.375 4.21877ZM6.625 9.78127C6.44769 9.92312 6.22707 10 6 10H3V14H6C6.22707 14 6.44769 14.0769 6.625 14.2188L10 16.918V7.08108L6.625 9.78127Z" />
<path d="M20.998 12.0003C20.998 9.61397 20.0503 7.32478 18.3632 5.63706C17.9728 5.24647 17.9727 4.61346 18.3632 4.22299C18.7538 3.83256 19.3869 3.83242 19.7773 4.22299C21.8395 6.28579 22.998 9.08355 22.998 12.0003C22.9979 14.9169 21.8393 17.714 19.7773 19.7767C19.387 20.1672 18.7539 20.1678 18.3632 19.7777C17.9727 19.3872 17.9728 18.7532 18.3632 18.3626C20.0501 16.675 20.9979 14.3865 20.998 12.0003ZM16.0039 11.9955C16.0039 10.9349 15.5827 9.91742 14.833 9.16733C14.4426 8.77683 14.4426 8.14375 14.833 7.75327C15.2236 7.3628 15.8566 7.36268 16.247 7.75327C17.3718 8.87843 18.0039 10.4045 18.0039 11.9955C18.0038 13.5862 17.3717 15.1116 16.247 16.2367C15.8566 16.6272 15.2236 16.6279 14.833 16.2376C14.4424 15.8472 14.4425 15.2132 14.833 14.8226C15.5826 14.0726 16.0038 13.0558 16.0039 11.9955Z" />
</svg>
