<svg width="260" height="260" viewBox="0 0 260 260" xmlns="http://www.w3.org/2000/svg">
  <style>
    path { fill: #ffa4d2; }
    .b { fill: black; }

    @media (prefers-color-scheme: dark) {
      .a { fill: black; }
      .b { fill: #ffa4d2; }
    }
  </style>
  <path class="b" d="M129.981 259.962C201.767 259.962 259.962 201.767 259.962 129.981C259.962 58.1944 201.767 0 129.981 0C58.1944 0 0 58.1944 0 129.981C0 201.767 58.1944 259.962 129.981 259.962Z" />
  <path class="a" d="M225.8 145.367C223.81 145.367 223.358 143.739 223.629 142.111L225.981 128.729C228.15 116.16 220.103 108.383 206.54 108.383C196.141 108.383 185.742 114.894 184.476 125.112H197.226C198.04 120.862 201.475 118.421 206.358 118.421C210.88 118.421 213.502 120.591 213.502 123.123C213.502 125.473 211.965 126.921 209.614 127.192L199.848 128.186C189.901 129.181 181.583 133.883 181.583 143.468C181.583 151.968 188.274 156.761 197.859 156.761C204.098 156.761 209.885 154.319 211.784 150.882C212.055 154.138 215.672 156.67 220.374 156.67C222.635 156.67 224.263 156.398 225.528 156.037L227.427 145.186C227.066 145.277 226.523 145.367 225.8 145.367L225.8 145.367ZM211.513 136.957C210.337 142.835 206.087 146.994 199.757 146.994C196.411 146.994 194.512 145.367 194.512 142.835C194.512 139.58 197.316 137.319 201.294 136.777L211.783 135.329L211.512 136.957H211.513Z" />
  <path class="a" d="M180.677 120.048L182.667 109.107H167.656L170.007 95.4534H156.715L154.364 109.107H134.651L137.002 95.4534H123.709L116.476 136.777C114.034 150.34 121.54 156.761 133.385 156.761C136.731 156.761 139.263 156.308 141.433 155.676L143.422 144.282C141.433 144.915 139.443 145.277 136.188 145.277C131.034 145.277 128.682 142.925 129.587 137.501L132.662 120.048H152.465L149.481 136.777C147.039 150.34 154.544 156.761 166.39 156.761C169.735 156.761 172.267 156.308 174.437 155.676L176.426 144.282C174.437 144.915 172.448 145.277 169.193 145.277C164.039 145.277 161.687 142.925 162.592 137.501L165.666 120.048H180.677Z" />
  <path class="a" d="M110.753 109.107H91.0405L88.9611 120.048H95.5622L91.0405 145.095H83.7169L81.7277 156.037H109.849L111.838 145.095H104.333L110.753 109.107Z" />
  <path class="a" d="M103.971 102.989C107.683 102.989 110.692 99.9796 110.692 96.2673C110.692 92.5553 107.683 89.5459 103.971 89.5459C100.259 89.5459 97.2492 92.5553 97.2492 96.2673C97.2492 99.9796 100.259 102.989 103.971 102.989Z" />
  <path class="a" d="M74.3107 90.1177L70.1515 113.719C67.6192 110.464 62.2849 108.383 56.9495 108.383C41.9399 108.383 32.5356 120.681 32.5356 135.329C32.5356 147.898 40.4926 156.761 50.8012 156.761C56.5883 156.761 61.5615 154.138 63.8217 150.792L62.827 156.037H76.2097L87.6033 90.1177H74.3107ZM55.2312 145.458C49.8065 145.458 46.0087 140.936 46.0087 134.788C46.0087 126.197 50.9819 119.687 58.2152 119.687C63.8217 119.687 67.7098 123.665 67.7098 129.905C67.7098 137.319 63.2798 145.458 55.2314 145.458H55.2312Z" />
</svg>