<svg width="100" height="100" viewBox="0 0 100 100" xmlns="http://www.w3.org/2000/svg">
<path d="M69.6894 35.2613H64.1363C62.9783 30.4764 60.1959 26.2417 56.2638 23.2796C52.3317 20.3175 47.4936 18.8116 42.575 19.0189C37.6564 19.2261 32.9622 21.1337 29.2932 24.4162C25.6243 27.6986 23.208 32.1524 22.4567 37.0177C18.5077 38.6462 15.0819 41.3279 12.5529 44.7704C9.58817 48.7607 7.99131 53.6018 8.00004 58.5729C8.00724 64.753 10.4655 70.6778 14.8356 75.0477C19.2056 79.4176 25.1306 81.8756 31.3107 81.8826H69.6894C75.8717 81.8826 81.8009 79.4266 86.1725 75.055C90.5441 70.6834 93 64.7543 93 58.5719C93 52.3896 90.5441 46.4604 86.1725 42.0888C81.8009 37.7172 75.8717 35.2613 69.6894 35.2613ZM69.6894 76.5715H31.3107C27.026 76.573 22.8814 75.0456 19.6225 72.2639C16.3636 69.4822 14.2042 65.629 13.5328 61.3972C12.8615 57.1655 13.7222 52.8331 15.9601 49.1793C18.1981 45.5256 21.6664 42.7903 25.7411 41.4656C26.2425 41.3004 26.6833 40.9897 27.0073 40.573C27.3314 40.1563 27.524 39.6526 27.5607 39.126C27.843 35.1793 29.5824 31.4785 32.4409 28.7426C35.2994 26.0068 39.0729 24.4312 43.0282 24.3222C46.9835 24.2131 50.838 25.5783 53.843 28.1525C56.8479 30.7267 58.7886 34.326 59.2879 38.2512C59.3689 38.8932 59.6813 39.4837 60.1667 39.9117C60.652 40.3398 61.2769 40.5761 61.924 40.5762H69.6874C74.4607 40.5762 79.0385 42.4724 82.4137 45.8476C85.7889 49.2228 87.6851 53.8006 87.6851 58.5739C87.6851 63.3471 85.7889 67.9249 82.4137 71.3001C79.0385 74.6753 74.4607 76.5715 69.6874 76.5715H69.6894Z" fill="currentColor"/>
</svg>
