<svg width="100" height="100" viewBox="0 0 100 100" xmlns="http://www.w3.org/2000/svg">
<path d="M75.716 26.8074H72.304C71.4548 23.8168 69.7652 21.1326 67.4359 19.0736C65.1066 17.0146 62.2353 15.6672 59.163 15.1914C56.0908 14.7156 52.9465 15.1314 50.1035 16.3894C47.2604 17.6474 44.8381 19.6947 43.124 22.2884C40.956 20.4277 38.3353 19.1722 35.5267 18.6487C32.7181 18.1252 29.8211 18.3523 27.1283 19.307C24.4356 20.2617 22.0425 21.9102 20.1909 24.086C18.3393 26.2617 17.0948 28.8877 16.583 31.6984C13.7513 32.9508 11.2969 34.9229 9.46403 37.4184C7.2084 40.4539 5.99344 44.1367 6.00003 47.9184C6.00611 52.6191 7.87635 57.1255 11.2005 60.4491C14.5247 63.7727 19.0314 65.6421 23.732 65.6474H51.603C55.3397 65.6527 58.9815 64.4709 62.003 62.2724H75.716C80.3959 62.2373 84.8722 60.3536 88.169 57.0319C91.4658 53.7102 93.3159 49.2199 93.3159 44.5399C93.3159 39.8599 91.4658 35.3696 88.169 32.048C84.8722 28.7263 80.3959 26.8426 75.716 26.8074ZM23.732 60.1824C20.8114 60.1836 17.9863 59.1425 15.7649 57.2463C13.5435 55.3502 12.0717 52.7236 11.6144 49.839C11.157 46.9544 11.7441 44.0014 13.2699 41.5111C14.7958 39.0208 17.1603 37.1568 19.938 36.2544C20.4532 36.0854 20.9065 35.767 21.2402 35.3396C21.5739 34.9122 21.773 34.3952 21.812 33.8544C22.0031 31.1874 23.1787 28.6867 25.1105 26.838C27.0422 24.9893 29.5922 23.9246 32.265 23.8508C34.9378 23.777 37.5426 24.6994 39.5735 26.4387C41.6043 28.178 42.9161 30.61 43.254 33.2624C43.3373 33.9228 43.6586 34.5301 44.1577 34.9705C44.6568 35.4109 45.2994 35.6541 45.965 35.6544H51.603C53.2232 35.6398 54.8302 35.9463 56.3313 36.5562C57.8324 37.1661 59.1978 38.0673 60.3486 39.2078C61.4995 40.3483 62.413 41.7055 63.0364 43.201C63.6598 44.6965 63.9808 46.3007 63.9808 47.9209C63.9808 49.5412 63.6598 51.1454 63.0364 52.6409C62.413 54.1364 61.4995 55.4936 60.3486 56.6341C59.1978 57.7746 57.8324 58.6758 56.3313 59.2857C54.8302 59.8956 53.2232 60.2021 51.603 60.1874L23.732 60.1824ZM75.716 56.8064H66.94C68.504 54.112 69.3302 51.0529 69.3353 47.9374C69.3403 44.8219 68.5242 41.7601 66.969 39.0606C65.4138 36.361 63.1746 34.119 60.4769 32.5605C57.7793 31.0021 54.7185 30.1822 51.603 30.1834H48.191C47.8606 29.0267 47.4021 27.9105 46.824 26.8554C47.7816 24.707 49.4156 22.9307 51.4769 21.7976C53.5382 20.6645 55.9135 20.2367 58.2406 20.5796C60.5677 20.9225 62.7187 22.0171 64.3656 23.6966C66.0125 25.376 67.0648 27.5481 67.362 29.8814C67.4451 30.5421 67.7665 31.1496 68.2659 31.5901C68.7652 32.0305 69.4082 32.2735 70.074 32.2734H75.712C77.3322 32.2588 78.9392 32.5653 80.4403 33.1752C81.9414 33.7851 83.3068 34.6863 84.4576 35.8268C85.6085 36.9673 86.522 38.3245 87.1454 39.82C87.7688 41.3155 88.0898 42.9197 88.0898 44.5399C88.0898 46.1602 87.7688 47.7644 87.1454 49.2599C86.522 50.7554 85.6085 52.1126 84.4576 53.2531C83.3068 54.3936 81.9414 55.2948 80.4403 55.9047C78.9392 56.5146 77.3322 56.8211 75.712 56.8064H75.716ZM38.368 72.7464C38.375 73.1097 38.3094 73.4706 38.1752 73.8082C38.041 74.1459 37.8409 74.4533 37.5864 74.7127C37.332 74.972 37.0284 75.178 36.6935 75.3186C36.3585 75.4593 35.9988 75.5317 35.6355 75.5317C35.2722 75.5317 34.9126 75.4593 34.5776 75.3186C34.2426 75.178 33.939 74.972 33.6846 74.7127C33.4302 74.4533 33.23 74.1459 33.0958 73.8082C32.9616 73.4706 32.8961 73.1097 32.903 72.7464V72.6464C32.8961 72.2832 32.9616 71.9222 33.0958 71.5846C33.23 71.247 33.4302 70.9395 33.6846 70.6802C33.939 70.4209 34.2426 70.2149 34.5776 70.0742C34.9126 69.9336 35.2722 69.8612 35.6355 69.8612C35.9988 69.8612 36.3585 69.9336 36.6935 70.0742C37.0284 70.2149 37.332 70.4209 37.5864 70.6802C37.8409 70.9395 38.041 71.247 38.1752 71.5846C38.3094 71.9222 38.375 72.2832 38.368 72.6464V72.7464ZM49.728 72.7464C49.728 73.4713 49.4401 74.1664 48.9275 74.6789C48.415 75.1915 47.7199 75.4794 46.995 75.4794C46.2702 75.4794 45.575 75.1915 45.0625 74.6789C44.55 74.1664 44.262 73.4713 44.262 72.7464V72.6464C44.262 71.9216 44.55 71.2264 45.0625 70.7139C45.575 70.2014 46.2702 69.9134 46.995 69.9134C47.7199 69.9134 48.415 70.2014 48.9275 70.7139C49.4401 71.2264 49.728 71.9216 49.728 72.6464V72.7464ZM61.087 72.7464C61.087 73.4713 60.7991 74.1664 60.2865 74.6789C59.774 75.1915 59.0789 75.4794 58.354 75.4794C57.6292 75.4794 56.934 75.1915 56.4215 74.6789C55.909 74.1664 55.621 73.4713 55.621 72.7464V72.6464C55.621 71.9216 55.909 71.2264 56.4215 70.7139C56.934 70.2014 57.6292 69.9134 58.354 69.9134C59.0789 69.9134 59.774 70.2014 60.2865 70.7139C60.7991 71.2264 61.087 71.9216 61.087 72.6464V72.7464ZM72.446 72.6464V72.7464C72.446 73.4713 72.1581 74.1664 71.6456 74.6789C71.133 75.1915 70.4379 75.4794 69.713 75.4794C68.9882 75.4794 68.293 75.1915 67.7805 74.6789C67.268 74.1664 66.98 73.4713 66.98 72.7464V72.6464C66.98 71.9216 67.268 71.2264 67.7805 70.7139C68.293 70.2014 68.9882 69.9134 69.713 69.9134C70.4379 69.9134 71.133 70.2014 71.6456 70.7139C72.1581 71.2264 72.446 71.9216 72.446 72.6464ZM32.468 81.3604V81.4604C32.468 82.1853 32.1801 82.8804 31.6675 83.393C31.155 83.9055 30.4599 84.1934 29.735 84.1934C29.0102 84.1934 28.315 83.9055 27.8025 83.393C27.29 82.8804 27.002 82.1853 27.002 81.4604V81.3604C27.002 80.6356 27.29 79.9404 27.8025 79.4279C28.315 78.9154 29.0102 78.6274 29.735 78.6274C30.4599 78.6274 31.155 78.9154 31.6675 79.4279C32.1801 79.9404 32.468 80.6356 32.468 81.3604ZM43.827 81.3604V81.4604C43.827 82.1853 43.5391 82.8804 43.0266 83.393C42.514 83.9055 41.8189 84.1934 41.094 84.1934C40.3692 84.1934 39.674 83.9055 39.1615 83.393C38.649 82.8804 38.361 82.1853 38.361 81.4604V81.3604C38.361 80.6356 38.649 79.9404 39.1615 79.4279C39.674 78.9154 40.3692 78.6274 41.094 78.6274C41.8189 78.6274 42.514 78.9154 43.0266 79.4279C43.5391 79.9404 43.827 80.6356 43.827 81.3604ZM55.186 81.3604V81.4604C55.186 82.1853 54.8981 82.8804 54.3855 83.393C53.873 83.9055 53.1779 84.1934 52.453 84.1934C51.7282 84.1934 51.033 83.9055 50.5205 83.393C50.008 82.8804 49.72 82.1853 49.72 81.4604V81.3604C49.72 80.6356 50.008 79.9404 50.5205 79.4279C51.033 78.9154 51.7282 78.6274 52.453 78.6274C53.1779 78.6274 53.873 78.9154 54.3855 79.4279C54.8981 79.9404 55.186 80.6356 55.186 81.3604ZM66.545 81.3604V81.4604C66.545 82.1853 66.2571 82.8804 65.7445 83.393C65.232 83.9055 64.5369 84.1934 63.812 84.1934C63.0872 84.1934 62.392 83.9055 61.8795 83.393C61.367 82.8804 61.079 82.1853 61.079 81.4604V81.3604C61.079 80.6356 61.367 79.9404 61.8795 79.4279C62.392 78.9154 63.0872 78.6274 63.812 78.6274C64.5369 78.6274 65.232 78.9154 65.7445 79.4279C66.2571 79.9404 66.545 80.6356 66.545 81.3604Z" fill="currentColor"/>
</svg>
