<svg width="100" height="100" viewBox="0 0 100 100" xmlns="http://www.w3.org/2000/svg">
<path d="M67.651 21.4044H62.561C61.4203 16.8572 58.7451 12.8431 54.9874 10.04C51.2297 7.23687 46.6196 5.81658 41.9359 6.019C37.2522 6.22141 32.7819 8.03412 29.28 11.151C25.7781 14.2678 23.4592 18.4977 22.715 23.1264C18.9848 24.689 15.7495 27.2361 13.355 30.4954C10.5196 34.3115 8.9922 38.9412 9.00003 43.6954C9.00612 49.6078 11.3575 55.2764 15.5383 59.4571C19.719 63.6379 25.3876 65.9893 31.3 65.9954H67.651C70.6099 66.0439 73.5488 65.5031 76.2965 64.4043C79.0443 63.3056 81.5458 61.6709 83.6554 59.5957C85.765 57.5204 87.4405 55.046 88.5842 52.3166C89.7278 49.5873 90.3168 46.6576 90.3168 43.6984C90.3168 40.7391 89.7278 37.8095 88.5842 35.0801C87.4405 32.3508 85.765 29.8764 83.6554 27.8011C81.5458 25.7258 79.0443 24.0912 76.2965 22.9924C73.5488 21.8937 70.6099 21.3528 67.651 21.4014V21.4044ZM67.651 60.5324H31.297C27.2903 60.5332 23.4147 59.1044 20.3674 56.503C17.3201 53.9015 15.301 50.2981 14.6732 46.3409C14.0455 42.3836 14.8503 38.3322 16.943 34.9154C19.0356 31.4986 22.2787 28.9405 26.089 27.7014C26.6049 27.5319 27.0586 27.2127 27.3924 26.7844C27.7262 26.356 27.9248 25.838 27.963 25.2964C28.2251 21.6107 29.8482 18.1541 32.517 15.5985C35.1858 13.0429 38.7094 11.571 42.403 11.4689C46.0967 11.3668 49.6963 12.6418 52.5022 15.0459C55.3081 17.4501 57.1197 20.8118 57.585 24.4774C57.6681 25.138 57.9895 25.7456 58.4889 26.186C58.9882 26.6265 59.6312 26.8695 60.297 26.8694H67.651C72.0925 26.9036 76.3405 28.692 79.4691 31.8448C82.5977 34.9976 84.3533 39.2592 84.3533 43.7009C84.3533 48.1425 82.5977 52.4041 79.4691 55.5569C76.3405 58.7097 72.0925 60.4981 67.651 60.5324ZM38.602 80.0654C40.431 82.4494 43.494 86.4384 38.181 92.5164C37.9447 92.7866 37.6574 93.0076 37.3356 93.1667C37.0138 93.3259 36.6638 93.4201 36.3056 93.444C35.5822 93.4923 34.8692 93.2513 34.3235 92.7739C33.7778 92.2965 33.4442 91.6219 33.3959 90.8985C33.3476 90.175 33.5886 89.4621 34.066 88.9164C34.866 88.0004 35.796 86.7164 35.679 85.7934C35.3913 84.899 34.9091 84.0794 34.267 83.3934C32.477 81.0624 29.481 77.1594 33.914 71.0654C34.1232 70.7702 34.3889 70.5196 34.6956 70.3279C35.0024 70.1362 35.3442 70.0073 35.7011 69.9488C36.0581 69.8902 36.4231 69.903 36.7751 69.9866C37.127 70.0701 37.4589 70.2227 37.7514 70.4355C38.044 70.6483 38.2914 70.917 38.4793 71.2261C38.6671 71.5352 38.7918 71.8786 38.846 72.2362C38.9002 72.5939 38.8828 72.9587 38.7949 73.3096C38.7071 73.6605 38.5504 73.9905 38.334 74.2804C36.303 77.0714 36.929 77.8864 38.602 80.0654ZM51.702 80.0654C53.532 82.4494 56.594 86.4384 51.281 92.5164C50.8036 93.0621 50.129 93.3958 49.4056 93.444C48.6822 93.4923 47.9692 93.2513 47.4235 92.7739C46.8778 92.2965 46.5442 91.6219 46.4959 90.8985C46.4476 90.175 46.6886 89.4621 47.166 88.9164C47.966 88.0004 48.897 86.7164 48.78 85.7934C48.4922 84.8988 48.0097 84.0791 47.367 83.3934C45.577 81.0624 42.581 77.1594 47.014 71.0654C47.2232 70.7702 47.4889 70.5196 47.7956 70.3279C48.1024 70.1362 48.4442 70.0073 48.8011 69.9488C49.1581 69.8902 49.5231 69.903 49.8751 69.9866C50.2271 70.0701 50.5589 70.2227 50.8514 70.4355C51.144 70.6483 51.3914 70.917 51.5793 71.2261C51.7671 71.5352 51.8918 71.8786 51.946 72.2362C52.0002 72.5939 51.9828 72.9587 51.8949 73.3096C51.8071 73.6605 51.6504 73.9905 51.434 74.2804C49.398 77.0714 50.024 77.8864 51.697 80.0654H51.702ZM64.802 80.0654C66.632 82.4494 69.694 86.4384 64.382 92.5164C64.1457 92.7866 63.8584 93.0077 63.5365 93.1669C63.2147 93.3262 62.8647 93.4204 62.5065 93.4444C62.1482 93.4684 61.7888 93.4215 61.4486 93.3066C61.1085 93.1916 60.7943 93.0108 60.524 92.7744C60.2538 92.538 60.0327 92.2507 59.8735 91.9289C59.7143 91.6071 59.62 91.2571 59.596 90.8988C59.5721 90.5406 59.6189 90.1811 59.7339 89.841C59.8488 89.5008 60.0296 89.1866 60.266 88.9164C61.066 88.0004 61.997 86.7164 61.88 85.7934C61.5922 84.8988 61.1097 84.0791 60.467 83.3934C58.677 81.0624 55.681 77.1594 60.114 71.0654C60.3232 70.7702 60.5889 70.5196 60.8956 70.3279C61.2024 70.1362 61.5442 70.0073 61.9011 69.9488C62.2581 69.8902 62.6231 69.903 62.9751 69.9866C63.3271 70.0701 63.6589 70.2227 63.9515 70.4355C64.244 70.6483 64.4914 70.917 64.6793 71.2261C64.8671 71.5352 64.9918 71.8786 65.046 72.2362C65.1002 72.5939 65.0828 72.9587 64.9949 73.3096C64.9071 73.6605 64.7504 73.9905 64.534 74.2804C62.494 77.0714 63.12 77.8864 64.792 80.0654H64.802Z" fill="currentColor"/>
</svg>
