<svg width="100" height="100" viewBox="0 0 100 100" xmlns="http://www.w3.org/2000/svg">
<path d="M85.5835 59.1749C85.4137 59.4116 85.199 59.6126 84.9515 59.7663C84.704 59.9201 84.4286 60.0235 84.1411 60.0708C83.8536 60.118 83.5596 60.1082 83.2759 60.0418C82.9922 59.9754 82.7244 59.8537 82.4877 59.6838L71.398 51.7293H55.8591L66.8457 62.7146L80.3151 64.9321C80.6059 64.9757 80.8851 65.0766 81.1365 65.2291C81.3879 65.3815 81.6065 65.5823 81.7796 65.82C81.9527 66.0576 82.0768 66.3272 82.1447 66.6132C82.2127 66.8992 82.2231 67.1958 82.1754 67.4859C82.1277 67.7759 82.0228 68.0536 81.8668 68.3028C81.7108 68.5519 81.5068 68.7676 81.2667 68.9373C81.0266 69.107 80.7552 69.2272 80.4682 69.2911C80.1812 69.355 79.8844 69.3613 79.5949 69.3095L72.2278 68.0976L75.602 71.471C76.018 71.8869 76.2518 72.4509 76.2518 73.0391C76.2518 73.6273 76.018 74.1914 75.602 74.6073C75.186 75.0232 74.6218 75.2568 74.0334 75.2568C73.4451 75.2568 72.8809 75.0232 72.4649 74.6073L69.093 71.2315L70.3044 78.5967C70.3516 78.8842 70.3418 79.1781 70.2754 79.4618C70.209 79.7455 70.0873 80.0133 69.9174 80.2499C69.7475 80.4866 69.5326 80.6875 69.285 80.8411C69.0374 80.9948 68.7619 81.0981 68.4744 81.1453C68.3546 81.1647 68.2336 81.1745 68.1123 81.1746C67.5869 81.1737 67.0789 80.9864 66.6787 80.6462C66.2785 80.306 66.012 79.8349 65.9266 79.3166L63.7118 65.8509L52.7195 54.8673V70.402L60.6761 81.4887C61.0191 81.9666 61.1582 82.5611 61.0627 83.1415C60.9672 83.722 60.6451 84.2407 60.167 84.5836C59.689 84.9265 59.0943 85.0656 58.5137 84.9701C57.9332 84.8747 57.4143 84.5526 57.0713 84.0747L52.7187 78.0106V82.7817C52.7187 83.37 52.4849 83.9343 52.0688 84.3503C51.6526 84.7663 51.0883 85 50.4998 85C49.9113 85 49.3469 84.7663 48.9308 84.3503C48.5146 83.9343 48.2808 83.37 48.2808 82.7817V78.0106L43.9283 84.0747C43.5852 84.5526 43.0664 84.8747 42.4858 84.9701C41.9052 85.0656 41.3105 84.9265 40.8325 84.5836C40.3545 84.2407 40.0323 83.722 39.9368 83.1415C39.8413 82.5611 39.9804 81.9666 40.3234 81.4887L48.28 70.402V54.8673L37.2926 65.8509L35.0745 79.3166C34.9891 79.835 34.7225 80.3063 34.3221 80.6465C33.9217 80.9867 33.4136 81.1739 32.8881 81.1746C32.7668 81.1744 32.6457 81.1646 32.526 81.1453C32.2384 81.0981 31.963 80.9948 31.7154 80.8411C31.4678 80.6875 31.2529 80.4866 31.0829 80.2499C30.913 80.0133 30.7914 79.7455 30.725 79.4618C30.6586 79.1781 30.6487 78.8842 30.696 78.5967L31.9081 71.2315L28.5339 74.6048C28.1179 75.0207 27.5536 75.2544 26.9653 75.2544C26.3769 75.2544 25.8127 75.0207 25.3967 74.6048C24.9807 74.1889 24.747 73.6249 24.747 73.0367C24.747 72.4485 24.9807 71.8844 25.3967 71.4685L28.7734 68.0976L21.4062 69.3062C20.8376 69.3763 20.2639 69.2237 19.8052 68.8805C19.3466 68.5373 19.0385 68.03 18.9454 67.4648C18.8524 66.8997 18.9816 66.3204 19.306 65.8483C19.6305 65.3763 20.125 65.0479 20.6861 64.9321L34.1554 62.7178L45.1421 51.7285H29.6031L18.5118 59.6838C18.0338 60.0267 17.4391 60.1657 16.8585 60.0703C16.2779 59.9749 15.7591 59.6528 15.416 59.1749C15.073 58.697 14.9339 58.1024 15.0294 57.522C15.1249 56.9416 15.4471 56.4229 15.9251 56.0799L21.99 51.7285H17.2201C16.6316 51.7285 16.0672 51.4948 15.6511 51.0788C15.2349 50.6628 15.0012 50.0986 15.0012 49.5102C15.0012 48.9219 15.2349 48.3577 15.6511 47.9416C16.0672 47.5256 16.6316 47.2919 17.2201 47.2919H21.9916L15.9267 42.9413C15.464 42.5927 15.156 42.0771 15.0685 41.5045C14.9811 40.9319 15.1211 40.3478 15.4587 39.8771C15.7963 39.4064 16.3047 39.0863 16.8752 38.9853C17.4457 38.8843 18.0331 39.0104 18.5118 39.3367L29.6015 47.2911H45.1421L34.1554 36.3059L20.6861 34.0883C20.1121 33.9856 19.6017 33.6612 19.2651 33.1852C18.9285 32.7092 18.7929 32.1199 18.8875 31.5447C18.9821 30.9695 19.2994 30.4547 19.7708 30.1115C20.2421 29.7684 20.8296 29.6245 21.4062 29.711L28.7734 30.9228L25.3991 27.5487C24.9831 27.1328 24.7494 26.5687 24.7494 25.9805C24.7494 25.3923 24.9831 24.8282 25.3991 24.4123C25.8151 23.9964 26.3794 23.7628 26.9677 23.7628C27.556 23.7628 28.1203 23.9964 28.5363 24.4123L31.9081 27.7889L30.6992 20.4238C30.6385 20.131 30.6377 19.8289 30.6968 19.5358C30.7559 19.2427 30.8736 18.9645 31.0429 18.718C31.2123 18.4715 31.4297 18.2618 31.6822 18.1015C31.9346 17.9411 32.2169 17.8335 32.512 17.785C32.8072 17.7365 33.1091 17.7481 33.3996 17.8192C33.6901 17.8903 33.9633 18.0194 34.2026 18.1987C34.442 18.378 34.6426 18.6038 34.7924 18.8626C34.9423 19.1214 35.0382 19.4078 35.0745 19.7046L37.2894 33.1695L48.2817 44.1532V28.6185L40.3242 17.5301C39.9812 17.0522 39.8422 16.4577 39.9376 15.8773C40.0331 15.2969 40.3553 14.7781 40.8333 14.4352C41.3113 14.0923 41.9061 13.9532 42.4866 14.0487C43.0672 14.1441 43.5861 14.4662 43.9291 14.9441L48.2817 21.0082V16.2388C48.2817 15.6504 48.5154 15.0862 48.9316 14.6702C49.3477 14.2542 49.9121 14.0204 50.5006 14.0204C51.0891 14.0204 51.6535 14.2542 52.0696 14.6702C52.4857 15.0862 52.7195 15.6504 52.7195 16.2388V21.0098L57.0721 14.9457C57.2403 14.7055 57.4546 14.5009 57.7025 14.344C57.9504 14.1871 58.227 14.0809 58.5162 14.0316C58.8054 13.9823 59.1016 13.9908 59.3875 14.0567C59.6734 14.1226 59.9433 14.2445 60.1818 14.4155C60.4202 14.5864 60.6223 14.8029 60.7765 15.0525C60.9306 15.3021 61.0337 15.5798 61.0798 15.8695C61.1258 16.1591 61.1139 16.4551 61.0448 16.7401C60.9756 17.0252 60.8506 17.2937 60.6769 17.5301L52.7203 28.6168V44.1532L63.7085 33.1695L65.9266 19.7046C65.9697 19.4135 66.0703 19.1338 66.2225 18.8819C66.3747 18.63 66.5756 18.4109 66.8134 18.2373C67.0511 18.0638 67.3211 17.9393 67.6075 17.8711C67.8938 17.8029 68.1909 17.7923 68.4814 17.8401C68.7719 17.8878 69.05 17.9928 69.2995 18.149C69.549 18.3052 69.7649 18.5095 69.9347 18.75C70.1044 18.9905 70.2246 19.2623 70.2882 19.5496C70.3518 19.837 70.3576 20.1341 70.3052 20.4238L69.093 27.7889L72.4673 24.4156C72.8833 23.9997 73.4475 23.766 74.0359 23.766C74.6242 23.766 75.1884 23.9997 75.6045 24.4156C76.0205 24.8315 76.2542 25.3956 76.2542 25.9837C76.2542 26.5719 76.0205 27.136 75.6045 27.5519L72.2278 30.9228L79.5949 29.711C80.1716 29.6245 80.7591 29.7684 81.2304 30.1115C81.7017 30.4547 82.019 30.9695 82.1136 31.5447C82.2083 32.1199 82.0726 32.7092 81.7361 33.1852C81.3995 33.6612 80.889 33.9856 80.3151 34.0883L66.8457 36.3026L55.8591 47.2919H71.398L82.4877 39.3375C82.9662 39.0027 83.5574 38.87 84.1331 38.9682C84.7088 39.0663 85.2225 39.3874 85.563 39.8618C85.9034 40.3362 86.043 40.9256 85.9516 41.5023C85.8601 42.0789 85.5449 42.5963 85.0744 42.9421L79.0096 47.2927H83.7811C84.0725 47.2927 84.361 47.3501 84.6302 47.4616C84.8994 47.5731 85.1441 47.7365 85.3501 47.9424C85.5561 48.1484 85.7196 48.393 85.8311 48.6621C85.9426 48.9313 86 49.2197 86 49.511C86 49.8023 85.9426 50.0908 85.8311 50.3599C85.7196 50.6291 85.5561 50.8736 85.3501 51.0796C85.1441 51.2856 84.8994 51.449 84.6302 51.5605C84.361 51.672 84.0725 51.7293 83.7811 51.7293H79.0096L85.0744 56.0807C85.5523 56.4236 85.8744 56.9422 85.9699 57.5224C86.0653 58.1027 85.9263 58.6971 85.5835 59.1749Z" fill="currentColor"/>
</svg>
