<svg width="100" height="100" viewBox="0 0 100 100" xmlns="http://www.w3.org/2000/svg">
<path d="M80.396 43.8377C80.3906 39.2687 78.5732 34.8884 75.3424 31.6576C72.1116 28.4268 67.7313 26.6094 63.1623 26.604C59.1134 26.6316 55.2063 28.0986 52.1398 30.7428C50.0863 32.4923 48.4487 34.6776 47.3459 37.1396C44.9242 35.385 42.0955 34.2763 39.1266 33.9181C36.1577 33.5598 33.1464 33.9639 30.377 35.0922C27.6076 36.2205 25.1712 38.0358 23.2979 40.3667C21.4246 42.6977 20.176 45.4675 19.6699 48.4148C16.5208 49.7698 13.7904 51.9408 11.7607 54.7037C9.3116 57.9999 7.99257 61.9989 8.00003 66.1054C8.00646 71.2097 10.0372 76.1031 13.6468 79.7122C17.2564 83.3212 22.1501 85.3512 27.2545 85.3569H58.0962C61.47 85.358 64.7848 84.4723 67.7082 82.7884C70.6317 81.1046 73.0612 78.6818 74.7532 75.763C76.4451 72.8442 77.3401 69.5319 77.3483 66.1582C77.3566 62.7845 76.4778 59.4679 74.8002 56.5408C76.5588 54.924 77.9638 52.9607 78.9268 50.7746C79.8899 48.5884 80.3901 46.2266 80.396 43.8377ZM58.0962 80.0439H27.2545C23.9353 80.0451 20.7246 78.8618 18.2 76.7069C15.6755 74.5519 14.0028 71.5668 13.4829 68.2886C12.963 65.0103 13.63 61.6542 15.364 58.8239C17.0979 55.9936 19.785 53.8749 22.9417 52.8491C23.4431 52.6845 23.8841 52.3742 24.2083 51.9578C24.5326 51.5415 24.7254 51.0379 24.7623 50.5115C24.9785 47.4684 26.3185 44.6145 28.5217 42.5044C30.7248 40.3943 33.6339 39.1786 36.6834 39.0938C39.7329 39.009 42.705 40.061 45.0221 42.0454C47.3392 44.0298 48.8358 46.8048 49.2209 49.8311C49.3006 50.4747 49.6131 51.067 50.0994 51.4962C50.5857 51.9254 51.2122 52.1618 51.8608 52.161H58.1001C59.931 52.161 61.7438 52.5216 63.4353 53.2222C65.1268 53.9228 66.6637 54.9497 67.9582 56.2443C69.2528 57.5389 70.2798 59.0758 70.9804 60.7673C71.681 62.4587 72.0416 64.2716 72.0416 66.1024C72.0416 67.9333 71.681 69.7462 70.9804 71.4376C70.2798 73.1291 69.2528 74.666 67.9582 75.9606C66.6637 77.2551 65.1268 78.2821 63.4353 78.9827C61.7438 79.6833 59.931 80.0439 58.1001 80.0439H58.0962ZM71.5303 52.3252C67.9418 48.8116 63.1186 46.8451 58.0962 46.848H54.0391C53.5148 44.882 52.651 43.0228 51.4866 41.3542C52.1299 38.7192 53.6209 36.3684 55.7304 34.6634C57.8399 32.9583 60.451 31.9934 63.1623 31.917C65.5281 31.9157 67.8407 32.6186 69.8057 33.936C71.7707 35.2534 73.2992 37.1258 74.1966 39.3148C75.094 41.5037 75.3196 43.9102 74.8448 46.2279C74.37 48.5455 73.2162 50.6694 71.5303 52.3291V52.3252ZM60.0675 22.0813V16.6565C60.0675 15.9519 60.3474 15.2763 60.8455 14.7781C61.3437 14.2799 62.0194 14 62.724 14C63.4285 14 64.1042 14.2799 64.6024 14.7781C65.1006 15.2763 65.3805 15.9519 65.3805 16.6565V22.0813C65.3805 22.7858 65.1006 23.4615 64.6024 23.9597C64.1042 24.4579 63.4285 24.7377 62.724 24.7377C62.0194 24.7377 61.3437 24.4579 60.8455 23.9597C60.3474 23.4615 60.0675 22.7858 60.0675 22.0813ZM93 43.3993C93 43.7481 92.9313 44.0935 92.7978 44.4157C92.6643 44.738 92.4686 45.0308 92.2219 45.2774C91.9752 45.524 91.6823 45.7196 91.36 45.853C91.0377 45.9863 90.6923 46.0549 90.3435 46.0548H84.9187C84.5657 46.0616 84.2148 45.9979 83.8867 45.8674C83.5585 45.737 83.2596 45.5424 83.0076 45.2951C82.7555 45.0478 82.5552 44.7527 82.4185 44.4271C82.2818 44.1015 82.2114 43.7519 82.2114 43.3988C82.2114 43.0457 82.2818 42.6961 82.4185 42.3705C82.5552 42.0449 82.7555 41.7498 83.0076 41.5025C83.2596 41.2552 83.5585 41.0606 83.8867 40.9302C84.2148 40.7998 84.5657 40.736 84.9187 40.7428H90.3435C90.6924 40.7427 91.0379 40.8113 91.3603 40.9448C91.6826 41.0782 91.9755 41.2739 92.2222 41.5206C92.4689 41.7673 92.6646 42.0602 92.798 42.3825C92.9315 42.7049 93.0001 43.0504 93 43.3993ZM41.752 26.8062C41.2533 26.3077 40.973 25.6316 40.9728 24.9265C40.9726 24.2214 41.2526 23.5452 41.751 23.0465C42.2494 22.5478 42.9256 22.2675 43.6307 22.2673C44.3357 22.2671 45.012 22.547 45.5107 23.0455L49.3472 26.882C49.6007 27.1271 49.8028 27.4203 49.9418 27.7443C50.0808 28.0684 50.1539 28.4169 50.1568 28.7695C50.1597 29.1221 50.0924 29.4718 49.9588 29.7981C49.8252 30.1244 49.6279 30.4208 49.3786 30.6701C49.1292 30.9194 48.8327 31.1166 48.5063 31.2501C48.18 31.3837 47.8303 31.4509 47.4777 31.4479C47.1251 31.4449 46.7766 31.3717 46.4526 31.2326C46.1286 31.0935 45.8355 30.8913 45.5904 30.6378L41.752 26.8062ZM76.3554 30.0216C76.1087 29.775 75.9131 29.4822 75.7796 29.16C75.6461 28.8378 75.5774 28.4924 75.5774 28.1437C75.5774 27.7949 75.6461 27.4495 75.7796 27.1273C75.9131 26.8051 76.1087 26.5123 76.3554 26.2657L80.1919 22.4292C80.437 22.1758 80.7302 21.9737 81.0542 21.8347C81.3783 21.6957 81.7268 21.6226 82.0794 21.6197C82.432 21.6168 82.7816 21.6841 83.108 21.8177C83.4343 21.9513 83.7307 22.1485 83.98 22.3979C84.2293 22.6473 84.4265 22.9438 84.56 23.2701C84.6935 23.5965 84.7608 23.9461 84.7578 24.2987C84.7547 24.6513 84.6816 24.9998 84.5425 25.3238C84.4034 25.6479 84.2012 25.941 83.9477 26.186L80.1112 30.0216C79.8647 30.2684 79.572 30.4643 79.2498 30.5979C78.9276 30.7316 78.5821 30.8003 78.2333 30.8003C77.8844 30.8003 77.539 30.7316 77.2168 30.5979C76.8946 30.4643 76.6018 30.2684 76.3554 30.0216Z" fill="currentColor"/>
</svg>
