<svg xmlns="http://www.w3.org/2000/svg" viewBox="0 0 360 72" width="360" height="72"><path d="M43.2 31.3c3.5-1.5 5-4.1 5-7 0-5.8-5.4-9-13.3-9s-7 .3-9.9.3-4.1-.1-5.2-.1-1.8.6-1.8 1.4c0 2 2.9 1 2.9 4.4v23c0 3.4-2.9 2.4-2.9 4.4s.5 1.4 1.8 1.4 2.5-.1 5.2-.1 7.3.2 11.5.2c9.7 0 14.4-3.8 14.4-10s-3-7.5-7.6-8.8Zm-14.3-9.9c0-1.8 1.1-2.3 3.5-2.3h.7c4.1 0 6.6 2.1 6.6 5.6s-2.4 5.1-6 5.1h-3.1c-1.3 0-1.6-.3-1.6-1.2v-7.2Zm5.6 24.9h-1.3c-3.3 0-4.2-.4-4.2-3.1v-8.3c0-1.1.4-1.5 1.5-1.5h3.2c5.5 0 8.4 2.6 8.4 6.8s-3 6.1-7.6 6.1M56.9 22c3.3 0 6.1-2.5 6.1-4.8S61.3 14 59.2 14c-3.3 0-5.9 2.6-5.9 5s1.4 3 3.6 3M62.2 44.3V27.8c0-1.3-.3-2.3-1.5-2.3s-1.1.1-4.3 1.6c-3.4 1.5-4.6 2.2-4.6 3.2 0 2.1 3.2.8 3.2 3.9v10.2c0 3.6-2.8 2.5-2.8 4.4s.5 1.3 1.6 1.3 2.4-.1 4.8-.1 3.7.1 4.9.1 1.6-.7 1.6-1.3c0-1.9-2.8-.9-2.8-4.4ZM86.2 44.2c-2.9-.2-6.6-.5-11.1-.8-2.1-.2-3.1-.5-3.1-1.3s.5-1 1.1-1.5c1.5.3 3.1.5 5 .5 8.7 0 13.1-4 13.1-8.4s-2.5-6.1-7-7.2c.6-2.2 3.6-2.6 6.8-2.7 1.1 0 1.6-.6 1.6-1.4s-.5-1.4-1.3-1.9c-1.8-1.5-3.1-2.1-4.4-2.1-2 0-5.1 2.9-5.6 7.6h-1.9c-8.6 0-13.2 4-13.2 8.6s1.4 4.6 4 5.9c-2.1 1.4-3.7 3.4-3.7 5.3s1.1 3.2 2.6 4c-2.4 1-3.8 2.5-3.8 4.4 0 3.6 5.3 6 14.3 6s14.5-3.4 14.5-8.4-3.4-6.3-7.9-6.6m-7.8-16.3c2.9 0 5.5 1.9 5.5 5.3S81.8 38 78.7 38s-5.5-1.9-5.5-5.3 2.1-4.8 5.2-4.8m1.2 28.3c-5.1 0-8.6-1-8.6-3.5s.6-2.2 1.6-2.9c3.8.5 7.5.8 10.9 1.3 2.5.3 3.6 1.1 3.6 2.3s-2.4 2.9-7.5 2.9ZM134.8 32.8h-10.3c-1.3 0-1.8.6-1.8 1.4 0 2.1 3.1 1 3.1 4.4v6.2c0 1-1.2 1.9-3.7 1.9-8.2 0-11.6-6.6-11.6-13.8s3.3-14.4 9.5-14.4 7.2 3.3 10.4 7.5c.7.9 1.2 1.3 1.9 1.3s1.6-.6 1.6-1.6-.5-1.8-1.3-4l-1.6-4.6c-.6-1.6-1.3-2.6-2.3-2.6s-1.4 1.3-2.5 1.3-3.9-1.2-8.1-1.2c-8.2 0-16.4 7.6-16.4 18.9s8.1 17.4 19.2 17.4 10.5-1.3 12.5-2c1.2-.4 1.6-.9 1.6-1.6 0-1.3-1.3-1.1-1.3-3.4v-5.3c0-3.4 3-2.4 3-4.4s-.5-1.4-1.8-1.4ZM156.1 25.2c-3.5 0-6.9 2.8-8.3 6.5v-4c0-1.3-.3-2.3-1.5-2.3s-1.1.1-4.3 1.6c-3.4 1.5-4.6 2.2-4.6 3.2 0 2.1 3.2.8 3.2 3.9v10.2c0 3.6-2.8 2.5-2.8 4.4s.5 1.3 1.6 1.3 2.4-.1 4.8-.1 4.2.1 5.4.1 1.6-.7 1.6-1.3c0-2.1-3.5-.9-3.5-4.4v-4.4c0-5.8 2.9-8.4 4.8-8.4s2.1 1 3 2.7c.4.8.9 1.4 1.6 1.4s1.3-.6 1.7-1.5c1-2.4 1.6-4.2 1.6-5.5s-1.8-3.3-4.5-3.3ZM184.7 42.9c-.5 0-.9.2-1.6.8-1.8 1.5-3.8 2.4-6.2 2.4-3.5 0-6.3-2.2-7.8-5.3l14.5-4.4c.9-.3 1.3-.5 1.3-1.9 0-4.7-4.1-9.6-11-9.6s-13.3 5.2-13.3 13.2 5.5 12.8 13 12.8 10.3-3 11.9-5.5c.3-.5.4-.9.4-1.3s-.4-1.3-1.2-1.3Zm-16.9-7.6c0-4.2 2.1-6.8 5-6.8s4.7 2.7 4.7 4.9-.4 1.3-1.2 1.5l-8.3 2.7c-.1-.7-.2-1.5-.2-2.3M210.7 42.9c-.5 0-.9.2-1.6.8-1.8 1.5-3.8 2.4-6.2 2.4-3.5 0-6.3-2.2-7.8-5.3l14.5-4.4c.9-.3 1.3-.5 1.3-1.9 0-4.7-4.1-9.6-11-9.6s-13.3 5.2-13.3 13.2 5.5 12.8 13 12.8 10.3-3 11.9-5.5c.3-.5.4-.9.4-1.3s-.4-1.3-1.2-1.3Zm-16.8-7.6c0-4.2 2.1-6.8 5-6.8s4.7 2.7 4.7 4.9-.4 1.3-1.2 1.5l-8.3 2.7c-.1-.7-.2-1.5-.2-2.3M239.9 43.7l-1.2-9c-.7-5.2-2.9-9.4-7.9-9.4s-6.5 2.2-8 4.8v-2.3c0-1.3-.3-2.3-1.5-2.3s-1.1.1-4.3 1.6c-3.4 1.5-4.6 2.2-4.6 3.2 0 2.1 3.2.8 3.2 3.9v10.2c0 3.6-2.8 2.5-2.8 4.4s.5 1.3 1.6 1.3 2.4-.1 4.8-.1 3.7.1 4.9.1 1.6-.7 1.6-1.3c0-1.9-2.8-.9-2.8-4.4v-7c0-4.8 2.4-6.5 4.5-6.5s3.9 2.5 4.3 5.7l.9 6.3c.1.9.2 1.7.2 2.2 0 2.6-2.8 1.9-2.8 3.7s.6 1.3 1.8 1.3 2.2-.1 4.8-.1 3.5.1 4.8.1 1.7-.5 1.7-1.3c0-2.1-2.6-.8-3.2-5.1M281.9 38.8c-.8 0-1.3.4-2 1.3-3.4 3.8-5.7 6.1-9.9 6.1h-4.7c-2.5 0-3-.7-3-2.3v-8.3c0-.9.3-1.2 1.4-1.2h2.8c2.9 0 2.8 3.5 4.8 3.5s1.4-.5 1.4-1.9-.1-2.3-.1-3.5.1-2.4.1-3.5-.6-1.9-1.4-1.9c-1.9 0-1.9 3.5-4.8 3.5h-2.8c-1.2 0-1.4-.3-1.4-1.3v-7.8c0-1.6.5-2.3 3-2.3h3c4 0 6 2.2 9.3 5.8.7.8 1.2 1.3 2 1.3s1.4-.5 1.4-1.5-.4-1.8-1.3-3.6l-2-4.3c-.8-1.8-1.5-2.5-2.6-2.5s-1.5 1.2-3.4 1.2h-13.5c-2.7 0-4.1-.1-5.2-.1s-1.8.6-1.8 1.4c0 2 2.9 1 2.9 4.4v23c0 3.4-2.9 2.4-2.9 4.4s.5 1.4 1.8 1.4 2.5-.1 5.2-.1h15.4c2 0 2.3 1.2 3.6 1.2s1.7-.7 2.4-2.3l2.2-4.7c.9-2 1.3-2.8 1.3-3.8s-.7-1.5-1.4-1.5ZM304.4 44.2c-2.9-.2-6.6-.5-11.1-.8-2.1-.2-3.1-.5-3.1-1.3s.5-1 1.1-1.5c1.5.3 3.1.5 5 .5 8.7 0 13.1-4 13.1-8.4s-2.5-6.1-7-7.2c.6-2.2 3.6-2.6 6.8-2.7 1.1 0 1.6-.6 1.6-1.4s-.5-1.4-1.3-1.9c-1.8-1.5-3.1-2.1-4.4-2.1-2 0-5.1 2.9-5.6 7.6h-1.9c-8.6 0-13.2 4-13.2 8.6s1.4 4.6 4 5.9c-2.1 1.4-3.7 3.4-3.7 5.3s1.1 3.2 2.7 4c-2.4 1-3.8 2.5-3.8 4.4 0 3.6 5.3 6 14.3 6s14.5-3.4 14.5-8.4-3.4-6.3-7.9-6.6Zm-7.8-16.3c2.9 0 5.5 1.9 5.5 5.3S300 38 296.9 38s-5.5-1.9-5.5-5.3 2.1-4.8 5.2-4.8m1.2 28.3c-5.1 0-8.6-1-8.6-3.5s.6-2.2 1.6-2.9c3.8.5 7.5.8 10.9 1.3 2.5.3 3.6 1.1 3.6 2.3s-2.4 2.9-7.5 2.9ZM333.6 44.2c-2.9-.2-6.6-.5-11.1-.8-2.1-.2-3.1-.5-3.1-1.3s.5-1 1.1-1.5c1.5.3 3.1.5 5 .5 8.7 0 13.1-4 13.1-8.4s-2.5-6.1-7-7.2c.6-2.2 3.6-2.6 6.8-2.7 1.1 0 1.6-.6 1.6-1.4s-.5-1.4-1.3-1.9c-1.8-1.5-3.1-2.1-4.4-2.1-2 0-5.1 2.9-5.6 7.6h-1.9c-8.6 0-13.2 4-13.2 8.6s1.4 4.6 4 5.9c-2.1 1.4-3.7 3.4-3.7 5.3s1.1 3.2 2.6 4c-2.4 1-3.8 2.5-3.8 4.4 0 3.6 5.3 6 14.3 6s14.5-3.4 14.5-8.4-3.4-6.3-7.9-6.6m-7.8-16.3c2.9 0 5.5 1.9 5.5 5.3s-2.1 4.8-5.2 4.8-5.5-1.9-5.5-5.3 2.1-4.8 5.2-4.8m1.2 28.3c-5.1 0-8.6-1-8.6-3.5s.6-2.2 1.6-2.9c3.8.5 7.5.8 10.9 1.3 2.5.3 3.6 1.1 3.6 2.3s-2.4 2.9-7.5 2.9ZM339.5 12.8c-1.4 0-2.5 1.1-2.5 2.5s1.1 2.5 2.5 2.5 2.5-1.1 2.5-2.5-1.1-2.5-2.5-2.5m0 4.5c-1.1 0-2-.9-2-2s.9-2 2-2 2 .9 2 2-.9 2-2 2"/><path d="m340.5 16.1-.4-.5c.3-.1.5-.4.5-.7 0-.5-.4-.8-1.2-.8h-1.1c-.1 0-.2 0-.2.1s.2 0 .2.3V16c0 .3-.2.2-.2.4s0 .1.2.1h.9s.2 0 .2-.1c0-.2-.2 0-.2-.4v-.4s.1 0 .2.1v.2c.2 0 .3.1.3.2 0 .2-.1 0-.1.2s0 .1.2.1h1c.1 0 .1 0 .1-.1 0-.2-.2-.1-.4-.4Zm-1.1-.8s-.2 0-.2-.1v-.7s0-.1.2-.1.4.1.4.5-.2.5-.4.5Z"/></svg>