<svg xmlns="http://www.w3.org/2000/svg" width="174" height="48" viewBox="0 0 174 48"><path d="M53.495 15.406c-4.41 0-7.582 3.54-7.582 8.184 0 4.872 3.305 8.152 7.682 8.152 3.607 0 5.544-1.95 6.345-4.222l3.84 1.235c-1.636 4.157-5.044 6.626-10.254 6.626-6.78 0-11.688-4.644-11.688-11.822 0-6.854 4.809-11.821 11.622-11.821 4.942 0 8.85 2.436 10.42 7.08l-3.909 1.235c-.867-2.763-2.936-4.648-6.476-4.648M90.639 12.22h4.075v22.736h-4.075zM100.296 12.22h4.075V31.32h8.213v3.637h-12.287zM116.597 12.22h4.075V31.32h8.213v3.637h-12.286V12.22zM138.573 34.956h-4.075v-8.868l-8.116-13.867h4.476l5.678 9.906 5.711-9.906h4.474l-8.148 13.867zM67.874 12.22h4.075v9.534h9.3v-9.532l4.076-.001v22.737H81.25v-9.532h-9.301v9.532h-4.075zM156.34 28.932l3.793-1.069c.801 2.622 2.164 3.95 5.128 3.95 2.63 0 4.527-1.101 4.527-3.237 0-1.522-.965-2.655-4.561-3.27-5.261-.938-8.223-2.913-8.223-6.799 0-3.95 3.396-6.7 8.223-6.7 4.294 0 7.156 2.298 8.157 6.182l-3.797 1.036c-.631-2.33-1.797-3.658-4.36-3.658-2.431 0-4.162 1.036-4.162 3.14 0 1.78 1.731 2.428 4.896 3.075 5.326 1.036 7.889 3.075 7.889 6.992 0 4.143-3.796 6.8-8.589 6.8-4.594 0-7.791-2.234-8.921-6.442M153.712 14.96v-2.74h-3.684v7.123c.847-.085 1.984-.45 2.566-1.005 1.201-1.143 1.119-2.787 1.118-3.378M5.162 5.02c.999-.97.796-2.744-.455-3.96C3.457-.158 1.632-.356.634.615s-.796 2.745.455 3.961c1.251 1.217 3.075 1.416 4.073.443m22.91 21.782c0-3.246-.822-6.476-2.35-9.36-1.604-3.028-3.99-5.622-6.884-7.537-.647-.428-3.443-2.322-6.165-2.455-1.912-.094-3.385.461-4.632 1.513-.759.638-3.418 3.468-1.186 7.876 2.023 3.996 2.745 6.933 2.76 9.96.027 4.72-1.648 9.04-4.435 12.478-.781.965-2.786 2.852-4.751 4.443-.598.484-.648 1.374.362 1.827 1.677.751 4.94 2.298 10.545 1.157 3.003-.61 5.92-1.822 8.37-3.624 2.642-1.942 4.838-4.486 6.283-7.387a20 20 0 0 0 2.083-8.891"/></svg>