<svg xmlns="http://www.w3.org/2000/svg" width="110" height="28" viewBox="0 0 110 28"><path d="M5.103.255H0v23.96h5.103c2.782 0 4.479-1.615 4.479-4.496V4.794C9.592 1.882 7.885.255 5.102.255m.59 19.432c0 1.074-.257 1.648-.913 1.648h-.848v-18.2h.848c.656 0 .913.586.913 1.649zM15.394 4.858c-2.783 0-4.577 1.68-4.577 4.635v10.385c0 2.945 1.805 4.603 4.684 4.603 2.718 0 4.447-1.615 4.447-4.57v-3.147h-2.653v2.753c0 1.393-.462 2.105-1.343 2.105-.977 0-1.343-.68-1.343-1.754v-4.699h5.34V9.493c-.012-2.987-1.741-4.635-4.556-4.635m.816 7.93h-1.6v-3.72c0-.936.16-1.616.784-1.616.655 0 .816.68.816 1.616zM27.758 14.308l-1.697-1.456c-.817-.776-1.343-1.233-1.343-2.232V9.068c0-.936.16-1.616.784-1.616.623 0 .816.68.816 1.616v3.242h3.373V9.13c0-2.625-1.44-4.273-4.19-4.273s-4.446 1.584-4.446 4.497v1.785c0 1.68.784 2.754 2.062 3.817l1.697 1.36c.881.776 1.279 1.33 1.279 2.169v1.818c0 .935-.194 1.584-.817 1.584s-.88-.649-.88-1.584V16.87H20.99v3.338c0 2.626 1.504 4.273 4.286 4.273 2.783 0 4.512-1.488 4.512-4.4v-1.85c0-1.818-.784-2.913-2.03-3.923M34.558 5.113H30.83v19.103h3.728zM34.558.255H30.83v3.561h3.728zM53.937 4.858c-1.633 0-2.59 1.137-2.88 2.913V5.113H47.33v19.103h3.728V8.706c0-.712.365-1.233.913-1.233.59 0 .848.52.848 1.233v15.51h3.728V7.962c.01-1.68-.88-3.104-2.61-3.104M64.83 11.853l-1.87-1.68c-.977-.935-1.407-1.392-1.407-2.721V4.497c0-.968.225-1.552.848-1.552s.881.584.881 1.552v4.858h3.642V4.858c0-3.147-1.569-4.858-4.48-4.858-2.91 0-4.683 1.711-4.683 4.858v3.104c0 2.232.752 3.37 2.159 4.667l1.934 1.711c1.01.904 1.31 1.201 1.31 2.53v3.115c0 .967-.226 1.552-.849 1.552s-.88-.585-.88-1.552V15.03H57.77v4.603c0 3.136 1.633 4.858 4.544 4.858 2.88 0 4.684-1.712 4.684-4.858v-2.849c-.01-2.434-.559-3.412-2.17-4.932M72.499.255h-1.214l-2.514 3.147v1.711h-.945V8.09h.945V21.27c0 2.105 1.085 2.945 2.621 2.945h2.256v-2.85h-.623c-.365 0-.526-.19-.526-.648V8.1h1.246V5.124H72.5zM80.223 20.633c0 .713-.323 1.233-.913 1.233-.559 0-.785-.52-.785-1.233V5.113h-3.727v16.254c0 1.68.848 3.104 2.589 3.104 1.632 0 2.589-1.138 2.846-2.913v2.658h3.76V5.113h-3.76v15.52zM90.76 7.77c-.29-1.753-1.245-2.912-2.878-2.912-1.73 0-2.621 1.424-2.621 3.104v13.405c0 1.68.88 3.104 2.62 3.104 1.634 0 2.59-1.138 2.88-2.913v2.658h3.727V.256h-3.727zm0 12.863c0 .713-.365 1.233-.912 1.233-.591 0-.849-.52-.849-1.233V8.75c0-.744.258-1.233.849-1.233.558 0 .913.489.913 1.233zM99.559.255H95.83v3.561h3.728zM99.559 5.113H95.83v19.103h3.728zM105.424 4.858c-2.815 0-4.576 1.68-4.576 4.635v10.385c0 2.913 1.772 4.603 4.576 4.603 2.846 0 4.576-1.68 4.576-4.603V9.494c0-2.955-1.73-4.635-4.576-4.635m.816 15.446c0 .935-.161 1.584-.816 1.584-.623 0-.784-.649-.784-1.584V9.068c0-.936.161-1.616.784-1.616.655 0 .816.68.816 1.616zM42.066 20.144h-3.47c-.655 0-1.116-.095-1.116-.616 0-.32.257-.51.612-.649.59.255 1.278.383 2.052.383 2.782 0 4.468-1.68 4.468-4.603V9.344h1.58v-4.22h-1.214l-1.16 1.445c-.753-1.105-2.03-1.711-3.685-1.711-2.75 0-4.469 1.68-4.469 4.635v5.177c0 1.966.784 3.38 2.148 4.082-1.235.265-2.17 1.073-2.17 2.455 0 1.393 1.086 2.137 2.289 2.328-1.214.096-2.45.744-2.45 2.137 0 1.616 1.698 2.328 3.997 2.328h1.213c3.6 0 5.63-1.584 5.63-4.21.01-2.487-1.505-3.646-4.255-3.646M39.381 9.068c0-.936.161-1.616.763-1.616.633 0 .794.68.794 1.616v6.027c0 .935-.16 1.584-.794 1.584-.602 0-.763-.649-.763-1.584zm1.45 16.317h-1.343c-1.214 0-1.73-.393-1.73-1.031 0-.649.495-.776 1.15-.776h2.75c.817 0 1.182.255 1.182.872-.01.744-.698.935-2.009.935"/></svg>