<svg width="100" height="42" viewBox="0 0 100 42" xmlns="http://www.w3.org/2000/svg">
  <path d="M0 0H26.048V3.49216H4.00739V18.0905H22.7276V21.5827H4.00739V37.6122H26.048V41.1044H0V0Z" />
  <path d="M49.5601 0V41.1044H45.5527V0H49.5601Z" />
  <path d="M71.1468 41.1044V0H85.4017C93.9889 0 98.5688 3.7784 98.5688 10.591C98.5688 15.9723 95.1911 18.6057 91.8135 19.6362C96.7941 20.8384 100 24.5023 100 29.8837C100 36.9825 94.9621 41.1044 86.7756 41.1044H71.1468ZM75.0397 18.1477H85.1727C91.2983 18.1477 94.6759 15.7433 94.6759 10.8199C94.6759 5.83934 91.2983 3.4349 85.1727 3.4349H75.0397V18.1477ZM75.0397 21.6399V37.6695H86.6611C92.844 37.6695 96.1071 34.4635 96.1071 29.6547C96.1071 24.8458 92.844 21.6399 86.6611 21.6399H75.0397Z" />
</svg>
