<svg viewBox="0 0 67 15" fill="none" xmlns="http://www.w3.org/2000/svg"><path d="M6.826.479v1.698h-4.63v2.865h3.71V6.68h-3.71v4.503H0V.48h6.826zm6.57 3.08a3.655 3.655 0 011.51 1.426c.366.621.55 1.351.55 2.19 0 .838-.184 1.567-.551 2.184a3.707 3.707 0 01-1.509 1.425c-.639.333-1.36.498-2.163.498-.803 0-1.524-.167-2.164-.499A3.727 3.727 0 017.56 9.36c-.366-.617-.549-1.346-.549-2.184 0-.839.184-1.569.55-2.191a3.65 3.65 0 011.51-1.425c.64-.327 1.36-.49 2.163-.49.803 0 1.524.163 2.163.49zm-3.65 1.873c-.407.401-.61.981-.61 1.743 0 .762.203 1.343.61 1.743.407.4.902.6 1.487.6.585 0 1.08-.2 1.487-.6.407-.4.61-.981.61-1.743 0-.761-.204-1.343-.61-1.742a2.04 2.04 0 00-1.487-.6c-.584 0-1.08.2-1.487.6zM22.697 3.56a3.656 3.656 0 011.508 1.425c.367.621.551 1.351.551 2.19 0 .838-.184 1.567-.551 2.184a3.708 3.708 0 01-1.508 1.425c-.64.333-1.36.498-2.164.498-.803 0-1.524-.167-2.163-.499a3.727 3.727 0 01-1.51-1.424c-.367-.617-.55-1.346-.55-2.184 0-.839.184-1.569.55-2.191a3.65 3.65 0 011.51-1.425c.639-.327 1.36-.49 2.163-.49.804 0 1.524.163 2.164.49zm-3.65 1.872c-.408.401-.61.981-.61 1.743 0 .762.202 1.343.61 1.743.406.4.9.6 1.486.6.584 0 1.08-.2 1.487-.6.407-.4.61-.981.61-1.743 0-.761-.204-1.343-.61-1.742-.407-.4-.901-.6-1.487-.6-.584 0-1.08.2-1.487.6zM27.824.48v10.704H25.73V.48h2.096zm7.887 3.08c.556.33.99.803 1.302 1.426.312.621.468 1.351.468 2.19 0 .838-.156 1.57-.468 2.19-.313.623-.746 1.098-1.302 1.426a3.612 3.612 0 01-1.873.491c-.694 0-1.285-.161-1.776-.484a2.656 2.656 0 01-1.048-1.294V15H28.92V3.168h2.096v1.664a2.62 2.62 0 011.048-1.287c.49-.319 1.083-.478 1.776-.478a3.633 3.633 0 011.873.493zm-4.096 1.918c-.412.42-.616.986-.616 1.7 0 .703.205 1.265.616 1.685.41.419.934.628 1.569.628.653 0 1.179-.204 1.575-.615.397-.41.595-.976.595-1.699 0-.723-.198-1.292-.595-1.706-.396-.415-.922-.622-1.575-.622-.635-.001-1.158.208-1.569.629zM41.77 3.494a3.3 3.3 0 011.695-.44v2.183h-.61c-1.536 0-2.305.694-2.305 2.082v3.863h-2.096V3.168h2.096v1.533a3.412 3.412 0 011.22-1.207zm8.608.066a3.656 3.656 0 011.508 1.425c.367.621.551 1.351.551 2.19 0 .838-.183 1.567-.551 2.184a3.708 3.708 0 01-1.508 1.425c-.64.333-1.36.498-2.164.498-.803 0-1.524-.167-2.163-.499a3.727 3.727 0 01-1.51-1.424c-.367-.617-.55-1.346-.55-2.184 0-.839.184-1.569.55-2.191a3.65 3.65 0 011.51-1.425c.64-.327 1.36-.49 2.163-.49.804 0 1.524.163 2.164.49zm-3.65 1.872c-.408.401-.61.981-.61 1.743 0 .762.202 1.343.61 1.743.406.4.9.6 1.486.6.584 0 1.08-.2 1.488-.6.406-.4.608-.981.608-1.743 0-.761-.203-1.343-.608-1.742a2.04 2.04 0 00-1.487-.6c-.585 0-1.08.2-1.488.6zM59.676 3.56a3.655 3.655 0 011.509 1.425c.366.621.55 1.351.55 2.19 0 .838-.183 1.567-.55 2.184a3.707 3.707 0 01-1.509 1.425c-.64.333-1.36.498-2.164.498-.802 0-1.523-.167-2.163-.499a3.727 3.727 0 01-1.51-1.424c-.366-.617-.549-1.346-.549-2.184 0-.839.183-1.569.55-2.191a3.651 3.651 0 011.51-1.425c.639-.327 1.36-.49 2.163-.49.803 0 1.524.163 2.163.49zm-3.65 1.872c-.407.401-.61.981-.61 1.743 0 .762.203 1.343.61 1.743.407.4.901.6 1.487.6.584 0 1.08-.2 1.487-.6.407-.4.61-.981.61-1.743 0-.761-.204-1.343-.61-1.742a2.04 2.04 0 00-1.487-.6c-.586 0-1.08.2-1.487.6zm9.68-3.391c-.248.212-.372.583-.372 1.113v.014H67V4.89h-1.665v6.292h-2.097V4.89h-1.056V3.168h1.056V2.98c0-.954.28-1.69.84-2.205.56-.517 1.39-.775 2.49-.775.188 0 .332.005.43.014v1.765c-.612-.037-1.043.05-1.291.262z" fill="currentColor"/></svg>
