<svg xmlns="http://www.w3.org/2000/svg" width="77" height="42" viewBox="0 0 77 42"><path d="M6.927 5.987V7.95h3.706v2.888c-.931.808-1.96 1.29-3.337 1.29-2.794 0-4.968-2.368-4.968-5.083 0-2.714 2.077-5.081 4.968-5.081 1.32 0 2.503.577 3.453 1.54l1.514-1.502C10.963.712 9.236 0 7.296 0a7.15 7.15 0 0 0-5.017 2.068A7.03 7.03 0 0 0 .194 7.045a7.03 7.03 0 0 0 2.085 4.978 7.15 7.15 0 0 0 5.017 2.068c1.785 0 3.59-.693 4.87-1.925l.446-.443V5.987zM0 39.185c1.125 1.405 2.755 2.406 4.91 2.406 2.948 0 4.423-2.156 4.423-4.139 0-2.06-1.455-3.118-3.725-4.1-1.96-.847-3.008-1.309-3.008-2.406 0-.867.873-1.598 2.037-1.598 1.126 0 1.921.558 2.756 1.502l1.436-1.425C7.897 28.328 6.714 27.5 4.637 27.5c-2.309 0-4.094 1.598-4.094 3.6 0 2.117 1.882 3.137 3.61 3.869 2.405 1.02 3.085 1.636 3.085 2.676 0 1.097-1.029 1.944-2.329 1.944-1.358 0-2.425-.693-3.454-1.867zm16.95 2.098h2.095V31.119l4.326 5.66 4.328-5.66v10.164h2.095V27.808h-2.096l-4.326 5.89-4.328-5.89H16.95zm21.31 0h2.095V27.808H38.26zm9.48-11.512h4.055v11.512h2.096V29.771h4.055v-1.963H47.74zm17.83 11.512h2.096V35.45h6.597v5.833h2.095V27.808h-2.095v5.679h-6.597v-5.679H65.57zm1.655-27.5h2.095V7.97h6.21V6.006h-6.21V2.272h7.529V.308h-9.624zM37.46 12.628c0 .712.601 1.309 1.32 1.309.348-.004.682-.143.928-.387.247-.245.387-.576.39-.922a1.32 1.32 0 0 0-.39-.922 1.34 1.34 0 0 0-.929-.387 1.34 1.34 0 0 0-.929.387 1.32 1.32 0 0 0-.39.922"/></svg>