<svg width="97" height="15" viewBox="0 0 97 15" fill="none" xmlns="http://www.w3.org/2000/svg"><path d="M32.705 13.18c-1.714.911-3.589 1.34-5.517 1.34-4.072 0-7.018-2.786-7.018-6.964 0-4.286 2.946-7.072 7.017-7.072 2.036 0 3.858.429 5.25 1.661L30.67 3.913a5.22 5.22 0 00-3.429-1.286c-2.732 0-4.553 2.09-4.553 4.768 0 2.84 1.821 4.928 4.553 4.928 1.072.054 2.143-.214 3.107-.696V8.52h-2.732V6.377h5.09v6.804zM35.491.86h4.607c2.572 0 4.982.803 4.982 3.803a3.39 3.39 0 01-3.107 3.59l3.536 5.892h-2.84L39.617 8.52h-1.714v5.625h-2.357V.859h-.054zm4.232 5.624c1.34 0 2.893-.107 2.893-1.821 0-1.607-1.446-1.768-2.678-1.768h-2.036v3.59h1.821zM47.652.86h8.84v2.143h-6.43V6.27h6.108v2.143h-6.108v3.59h6.75v2.142h-9.16V.859zm23.41 12.322c-1.714.91-3.589 1.339-5.517 1.339-4.125 0-7.018-2.786-7.018-6.964 0-4.286 2.946-7.072 7.018-7.072 2.035 0 3.857.429 5.25 1.661l-1.768 1.768c-.965-.804-2.197-1.286-3.482-1.286-2.733 0-4.554 2.09-4.554 4.768 0 2.84 1.822 4.928 4.554 4.928 1.071.054 2.142-.214 3.107-.696V8.52H65.92V6.377h5.089v6.804h.053zm14.733 0c-1.715.91-3.59 1.339-5.518 1.339-4.125 0-7.018-2.786-7.018-6.964 0-4.286 2.946-7.072 7.018-7.072 2.035 0 3.857.429 5.25 1.661l-1.768 1.768c-.964-.857-2.197-1.34-3.482-1.286-2.732 0-4.554 2.09-4.554 4.768 0 2.84 1.822 4.928 4.554 4.928 1.071.054 2.143-.214 3.107-.696V8.52h-2.732V6.377h5.09l.053 6.804zm9.375-9.482a3.057 3.057 0 00-2.358-1.072c-1.07 0-2.196.482-2.196 1.714 0 2.679 6.322 1.125 6.322 5.893 0 2.84-2.25 4.232-4.876 4.232a5.32 5.32 0 01-4.339-1.821l1.768-1.714a3.178 3.178 0 002.625 1.393c1.072 0 2.304-.59 2.304-1.822 0-2.893-6.322-1.232-6.322-6 0-2.732 2.465-4.018 4.929-4.018 1.393-.053 2.785.429 3.803 1.393L95.17 3.7z" fill="currentColor"/><path d="M6.238 5.315c0 .543-.42.968-.958.992H.958a.949.949 0 01-.686-.292.97.97 0 01-.272-.7V.992C0 .45.42 0 .958 0H5.28c.538 0 .958.449.958.992v4.323zm8.762 0c0 .543-.42.968-.958.992H9.719a.949.949 0 01-.685-.292.97.97 0 01-.273-.7V.992c0-.543.421-.968.958-.992h4.323c.537 0 .958.449.958.992v4.323zm-8.762 8.693c0 .543-.42.992-.958.992H.958a.95.95 0 01-.686-.292.97.97 0 01-.272-.7V9.685c0-.543.42-.968.958-.992H5.28c.538 0 .958.449.958.992v4.323zm8.762 0c0 .543-.42.992-.958.992H9.719a.95.95 0 01-.685-.292.97.97 0 01-.273-.7V9.685c0-.543.421-.968.958-.992h4.323c.537 0 .958.449.958.992v4.323z" fill="currentColor"/></svg>
