<svg width="40" height="15" viewBox="0 0 40 15" fill="none" xmlns="http://www.w3.org/2000/svg"><path fill-rule="evenodd" clip-rule="evenodd" d="M10.149 14.768H6.767V9.24c0-1.37-.594-2.046-1.78-2.046-1.077 0-1.604.527-1.604 1.561v6.012H0V0h3.383v5c.44-.423 1.164-.633 2.152-.633 3.076 0 4.614 1.54 4.614 4.64v5.76zm8.94-6.519h-3.515c.22-.95.791-1.413 1.736-1.413.856 0 1.538.484 1.778 1.413zm3.559 1.561c0-1.603-.506-2.912-1.516-3.945-.988-1.012-2.307-1.519-3.91-1.519-1.56 0-2.79.485-3.712 1.477-.923.992-1.385 2.278-1.385 3.839l.044.992h7.008c-.242 1.096-.988 1.688-1.933 1.688-.769 0-1.274-.275-1.516-.844h-3.427c.55 2.025 2.11 3.481 5.009 3.481 1.515 0 2.79-.443 3.8-1.33 1.032-.865 1.538-2.151 1.538-3.839zm12.454 4.957h-3.866l-2.152-2.7-2.11 2.7h-3.887l4.041-5.147-3.998-5.064h3.889l2.042 2.596 2.044-2.596h3.887L31.016 9.62l4.086 5.148zm.659-1.666c0-1.097.812-1.92 2.13-1.92 1.319 0 2.109.823 2.109 1.92S39.21 15 37.892 15c-1.34 0-2.131-.802-2.131-1.899z" fill="currentColor"/></svg>
