<svg viewBox="0 0 93 15" fill="none" xmlns="http://www.w3.org/2000/svg"><path d="M16.379 7.548c-.076-1.248-.777-2.09-1.97-2.376-1.099-.26-2.204-.037-3.361.696l-.905.605V.001S6.558.89 5.789 1.071l.041.328c1.016.254 1.182.451 1.253 1.45.01.174.014 7.654.014 10.787 0 .72-.736.86-1.072.904v.16h5.04v-.17l-.023-.002c-.321-.046-.921-.133-.921-.923V7.227l.039-.027c.825-.621 1.585-.748 2.325-.39.703.34 1.015.924 1.011 1.893l-.011 5.037c-.078.615-.717.749-1.031.803v.158h5.091v-.162s-.08.005-.412-.075c-.262-.063-.653-.228-.686-.764l-.068-6.152zm10.077 5.006c-.954.784-2.266 1.093-3.525.625-1.86-.69-1.99-2.654-1.99-2.654s2.12-.57 3.105-.84c1.036-.289 2.074-.57 3.114-.845-.165-1.136-.589-1.908-1.201-2.612-1.122-1.29-2.96-1.287-3.437-1.287-2.274 0-3.51 1.103-4.147 1.96-.967 1.299-1.24 3.084-.734 4.776.507 1.699 1.686 2.762 3.506 3.162 2.324.512 4.312-.205 5.667-2.012l-.358-.273zm-5.712-2.967l-.004-.058c-.037-1.094.083-1.863.403-2.57.244-.543.602-.867 1.068-.965.298-.06.624-.046.87.044.584.218.904.916.834 1.825-.055.697-.248.92-.981 1.138-.471.137-1.9.508-2.133.571l-.057.015zm-15.369 3.7s-.505.422-1.098.422c-.841 0-1.2-.445-1.2-1.06 0 0-.012-5.822-.012-6.417h2.308V5.33H3.07V2.003h-.396L.007 4.037 0 13.026c0 .065.015.37.08.58.186.588.804 1.407 2.256 1.393 2.354-.02 3.327-1.328 3.327-1.328l-.288-.385zm85.714.145l.002-5.355c.025-1.022-.496-1.926-1.222-2.482-.692-.528-1.768-.624-2.586-.421-1.333.331-2.555 1.268-2.555 1.268l-.548-1.124-3.507.984s.048.33.051.33c.277.07.523.225.704.441.18.217.284.484.297.762.005.105.02 5.616.02 5.616 0 .625-.565.975-1.063 1.089v.16h4.994v-.17c-.434-.099-.936-.37-.936-1.11 0-1.197-.014-6.12-.014-6.12s1.187-.915 2.196-.548c.853.31 1.121 1.013 1.167 1.808 0 0 .019 2.744.015 4.916-.019.616-.56.957-1.054 1.053v.172h4.994v-.17c-.44-.096-.947-.367-.955-1.1zm-28.193.627L56.292 5.31h-3.72v.17c.154.004.322.12.451.235.108.096.203.205.286.322l6.544 8.656h3.714v-.17c-.31-.007-.672-.464-.672-.464h.001zm-2.949-6.116c-.14.226-.294.444-.463.65l.297.396c.102-.099.006-.008.325-.315 1.06-1.024 3.496-3.365 3.496-3.365H59.87c.022.021.046.05.072.082.544.716.497 1.762.005 2.552zm-3.721 4.117a6.32 6.32 0 01.441-.624l-.3-.396-.3.289c-1.06 1.024-3.496 3.364-3.496 3.364h3.732a.664.664 0 01-.072-.082c-.544-.714-.497-1.762-.005-2.55zM41.153 7.547c-.077-1.248-.776-2.091-1.971-2.377-1.098-.26-2.203-.037-3.36.696l-.905.605V0s-3.585.888-4.354 1.07l.04.328c1.017.254 1.183.452 1.253 1.45.01.174.015 7.654.015 10.787 0 .72-.737.86-1.072.904v.16h5.04v-.17l-.023-.003c-.322-.046-.921-.132-.921-.923V7.226l.039-.026c.825-.623 1.584-.75 2.326-.391.702.34 1.014.925 1.01 1.893l-.012 5.037c-.078.615-.716.75-1.03.804v.157h5.091v-.162s-.08.005-.412-.075c-.262-.063-.653-.228-.686-.765l-.068-6.151zM70.04 8.65c-.532 2.302.144 3.85 1.425 5.101 1.072 1.045 2.59 1.22 3.4 1.243 3.078.093 5.205-1.308 5.595-4.331.36-2.797-1.34-4.971-3.405-5.491-1.287-.326-2.597-.243-3.867.193 0 0-2.543.674-3.148 3.285zm2.92 1.463a8.45 8.45 0 01.079-2.3c.055-.322.145-.63.265-.915.316-.726.816-1.124 1.485-1.182.016-.002.098-.004.098-.004.513-.044 1.013.157 1.41.564.595.616.814 1.387 1 2.188.08.326.218 1.377.218 1.377a8.805 8.805 0 01-.08 2.306 4.207 4.207 0 01-.268.917c-.315.725-.816 1.13-1.484 1.188-.016.001-.11.008-.117.01-.503.043-.997-.17-1.389-.576-.597-.617-.816-1.387-1.003-2.188-.092-.4-.16-.804-.201-1.211l-.012-.174z" fill="currentColor"/><path d="M69.798 13.287s-.504.422-1.097.422c-.842 0-1.202-.445-1.202-1.06l-.01-6.417h2.308V5.33h-2.305V2.003h-.395L64.43 4.037l-.007 8.988c.001.066.015.37.081.58.185.59.804 1.407 2.256 1.394 2.353-.02 3.326-1.328 3.326-1.328l-.287-.385zM42.495 8.65c-.532 2.302.144 3.85 1.424 5.1 1.072 1.046 2.59 1.22 3.401 1.244 3.077.093 5.205-1.309 5.594-4.331.362-2.797-1.339-4.971-3.404-5.492-1.287-.325-2.597-.242-3.867.194 0 0-2.544.674-3.148 3.285zm2.92 1.463a8.454 8.454 0 01.078-2.3c.056-.322.146-.63.267-.916.315-.725.815-1.123 1.484-1.182l.098-.003c.512-.044 1.012.157 1.41.564.595.616.813 1.387 1 2.188.08.326.217 1.377.217 1.377a8.805 8.805 0 01-.079 2.306 4.208 4.208 0 01-.268.917c-.316.725-.816 1.13-1.484 1.188-.017 0-.11.008-.117.01-.503.043-.997-.17-1.389-.576-.597-.617-.816-1.387-1.003-2.189-.092-.399-.16-.803-.201-1.21l-.012-.174z" fill="currentColor"/></svg>
