<svg width="76" height="18" viewBox="0 0 76 18" fill="none" xmlns="http://www.w3.org/2000/svg"><path d="M11.144 4.966h2.23v.85c.507-.625 1.261-1.01 2.18-1.01 1.163 0 2.032.448 2.524 1.267.557-.77 1.492-1.267 2.558-1.267 2.082 0 3.115 1.218 3.115 3.287v4.89h-2.28V8.38c0-1.074-.425-1.7-1.425-1.7-.853 0-1.476.578-1.476 1.925v4.377h-2.279V8.38c0-1.074-.426-1.7-1.426-1.7-.852 0-1.476.578-1.476 1.925v4.377h-2.245V4.966zM26.91 7.996h3.967c-.296-.833-1-1.266-1.951-1.266-.95 0-1.672.513-2.017 1.266zm5.662 3.368c-.74 1.061-1.954 1.78-3.597 1.78-2.557 0-4.328-1.86-4.328-4.17 0-2.308 1.902-4.169 4.262-4.169 2.508 0 4.23 1.844 4.23 4.153v.802H26.81c.264.882 1 1.459 2.181 1.459.744 0 1.387-.327 1.792-.873M9.997 4.966H7.75v8.017h2.246V4.966zM0 1.278v11.705h6.606v-2.132H2.278V1.278H0zM35.71 10.16c.295.738.918 1.091 1.721 1.091.738 0 1.132-.336 1.132-.721 0-.433-.804-.561-1.754-.738-1.476-.256-2.951-.753-2.951-2.469 0-1.347 1.327-2.55 3.36-2.517 1.715 0 2.771.591 3.343 1.611.009.016-1.842 1.09-1.842 1.09-.214-.53-.78-.905-1.517-.905-.737 0-1.065.304-1.065.657 0 .353.476.48 1.704.722 1.378.272 2.968.753 2.968 2.485 0 1.17-1.115 2.709-3.475 2.678-1.843 0-2.963-.587-3.592-1.81l1.968-1.173zM41.708 1.306L43.938 0v5.848A2.905 2.905 0 0146.2 4.806c1.934 0 3.098 1.218 3.098 3.287v4.89h-2.279V8.397c0-1.09-.509-1.716-1.508-1.716-.853 0-1.558.578-1.558 1.925v4.377h-2.246V1.306zM56.689 8.958c0-1.186-.886-2.148-2.099-2.148-1.245 0-2.197.914-2.197 2.148 0 1.235.952 2.164 2.197 2.164 1.213 0 2.099-.977 2.099-2.164zm-6.492.017c0-2.839 2.131-4.17 3.983-4.17 1.065 0 1.902.386 2.443.947v-.786h2.246v8.017h-2.246v-.897c-.541.625-1.41 1.058-2.475 1.058-1.738 0-3.951-1.347-3.951-4.17zM60.095 4.966h2.23V6.28c.41-.833 1.146-1.314 2.262-1.314h.901v2.133h-1.426c-1.197 0-1.72.609-1.72 2.1v3.783h-2.247V4.966zM72.98 8.958c0-1.234-.951-2.148-2.197-2.148-1.214 0-2.098.962-2.098 2.148 0 1.187.884 2.165 2.098 2.165 1.246 0 2.196-.93 2.196-2.165zm-4.23 3.24v4.473L66.504 18V4.966h2.245v.914c.525-.626 1.362-1.074 2.46-1.074 1.852 0 3.967 1.33 3.967 4.169 0 2.822-2.197 4.169-3.934 4.169-1.082 0-1.968-.353-2.493-.947zM10.153 1.336c0 .707-.585 1.28-1.309 1.28-.722 0-1.308-.573-1.308-1.28 0-.707.586-1.28 1.308-1.28.724 0 1.31.573 1.31 1.28z" fill="currentColor"/></svg>
