<svg viewBox="0 0 53 15" fill="none" xmlns="http://www.w3.org/2000/svg"><path d="M8.76 7.605c0 .658-.102 1.25-.306 1.775a4.116 4.116 0 01-.832 1.347c-.34.366-.758.657-1.227.855a3.794 3.794 0 01-1.49.296c-.396 0-.738-.041-1.024-.123a3.012 3.012 0 01-.71-.288c-.2-.112-.383-.25-.543-.41h-.175v3.778L2.277 15H.176L0 14.835V3.662l.176-.165h1.926l.176.165.175.492h.176c.152-.153.333-.29.543-.41.227-.115.465-.208.71-.28a3.527 3.527 0 011.025-.13 3.753 3.753 0 011.489.295c.468.198.887.49 1.227.855.35.372.627.821.832 1.347.203.526.306 1.117.306 1.774zm-2.453 0c0-.657-.146-1.205-.438-1.644-.293-.437-.789-.657-1.49-.657s-1.197.22-1.49.657c-.292.439-.438.986-.438 1.644 0 .658.146 1.205.439 1.644.291.438.788.657 1.49.657.7 0 1.196-.22 1.489-.657.293-.439.438-.986.438-1.644zm11.476 4.31h-1.926l-.176-.168-.175-.505h-.176c-.119.17-.274.313-.455.421-.163.112-.38.21-.648.295a3.41 3.41 0 01-.999.126c-.619 0-1.177-.11-1.672-.33a3.708 3.708 0 01-1.27-.908 4 4 0 01-.807-1.387 5.288 5.288 0 01-.28-1.75c0-.628.093-1.212.28-1.75a3.958 3.958 0 01.806-1.388c.35-.387.783-.697 1.27-.909.496-.22 1.054-.329 1.673-.329.397 0 .73.045.999.134.268.09.484.185.648.286.198.124.35.264.455.421h.176l.175-.504.176-.17h1.926l.176.17v8.077l-.176.169zm-6.131-4.207c0 .674.146 1.235.438 1.684.292.448.789.673 1.49.673.7 0 1.196-.225 1.49-.673.29-.45.437-1.01.437-1.684 0-.673-.146-1.234-.438-1.683-.293-.448-.788-.673-1.49-.673-.7 0-1.196.225-1.489.673-.292.45-.438 1.011-.438 1.683zm13.143-2.375h-1.208c-.69 0-1.179.173-1.466.517-.289.344-.432.895-.432 1.65v4l-.173.167h-2.07l-.173-.167v-8l.173-.167h1.898l.172.167.173.5h.173c.08-.121.201-.233.362-.333.138-.088.331-.167.578-.233.248-.067.567-.1.958-.1h1.034l.173.167v1.667l-.171.165h-.001zm8.757 6.583h-1.926l-.176-.169-.176-.505H31.1c-.119.17-.274.313-.456.421-.163.112-.38.21-.648.295a3.409 3.409 0 01-.998.126c-.62 0-1.177-.11-1.673-.33a3.717 3.717 0 01-1.27-.908c-.351-.387-.62-.85-.806-1.387a5.29 5.29 0 01-.281-1.75c0-.628.093-1.212.28-1.75a3.957 3.957 0 01.807-1.388c.35-.387.782-.697 1.27-.909.495-.22 1.054-.329 1.672-.329.397 0 .73.045 1 .134.268.09.484.185.648.286.198.124.35.264.455.421h.175l.176-.504.175-.17h1.927l.175.17v8.077l-.175.169zM27.42 7.708c0 .674.146 1.235.438 1.684.291.448.788.673 1.49.673.7 0 1.196-.225 1.489-.673.29-.45.438-1.01.438-1.684 0-.673-.146-1.234-.438-1.683-.293-.448-.789-.673-1.49-.673-.7 0-1.197.225-1.49.673-.292.45-.438 1.011-.438 1.683zm9.654 3.959h-1.877l-.157-.167V.167L35.198 0h1.877l.156.167V11.5l-.156.167zm3.504 0h-1.877l-.157-.167V.167L38.702 0h1.877l.156.167V11.5l-.156.167zm9.355-3.286l-.174.168h-5.374l-.174.17c0 .09.026.207.077.353a1.51 1.51 0 00.798.832c.226.107.511.16.859.16.266 0 .511-.042.737-.126.225-.085.383-.21.477-.379l.173-.167h2.08l.175.167a3.26 3.26 0 01-.278.825c-.138.292-.35.564-.633.816-.284.253-.648.463-1.092.63-.445.17-.992.254-1.64.254-.739 0-1.38-.118-1.923-.354a3.832 3.832 0 01-1.352-.95 3.852 3.852 0 01-.798-1.388 5.343 5.343 0 01-.26-1.684c0-.582.086-1.14.26-1.674.16-.51.426-.985.78-1.397a3.739 3.739 0 011.3-.95c.52-.236 1.127-.354 1.82-.354.694 0 1.3.118 1.82.354.502.222.946.546 1.3.95.355.412.62.887.78 1.397.175.532.261 1.092.261 1.674v.673h.001zm-2.6-1.684c0-.044-.018-.14-.052-.285a1.405 1.405 0 00-.676-.875c-.209-.124-.486-.185-.833-.185-.346 0-.624.062-.832.185a1.406 1.406 0 00-.676.875 1.719 1.719 0 00-.052.285l.174.17h2.773l.173-.17zm5.51 4.97h-1.878l-.156-.167V.167L50.966 0h1.877L53 .167V11.5l-.157.167z" fill="currentColor"/></svg>
