<svg width="150" height="15" viewBox="0 0 150 15" fill="none" xmlns="http://www.w3.org/2000/svg"><path d="M10.54 10.022c-.246-.455-.528-.805-.87-1.062-.487-.34-1.08-.542-1.832-.642 1.101-.18 2.015-.62 2.749-1.3a3.383 3.383 0 001.069-2.044c.035-.221.05-.454.05-.7 0-2.422-1.649-4.083-5.292-4.083H0V14.8h1.975V9.024H5.13c1.76 0 2.676.207 3.276.999.364.478.61 1.172.854 2.161l.653 2.622h2.095l-.69-2.66c-.233-.875-.48-1.575-.776-2.123h-.001zM1.976 7.58V1.897h3.93c2.749 0 3.846 1.041 3.846 2.803 0 .097-.004.188-.01.281-.145 1.683-1.623 2.603-3.998 2.603H1.975V7.58zm32.417 1.016h5.27c-.077.52-.194.995-.34 1.429h-.478c-.758 2.196-2.398 3.258-4.684 3.258-2.354 0-3.913-1.27-4.527-3.258h.476c-.229-.739-.324-1.578-.282-2.487.046-.947.219-1.807.53-2.557h.476c.25-.616.618-1.18 1.083-1.661.973-.992 2.258-1.534 3.848-1.534 2.58 0 3.874 1.007 4.79 3.022l1.807-1.086c-.603-1.12-1.41-2.019-2.43-2.696C38.918.351 37.575 0 35.87 0c-3.595 0-6.104 1.984-7.106 4.978h-.473a9.624 9.624 0 00-.472 2.609 9.14 9.14 0 00.201 2.434h-.476C28.194 12.915 30.328 15 33.669 15c2.843 0 4.702-1.433 5.51-4.177l-.155 1.862-.096 2.114h1.934l.226-4.778h.476l.135-2.868h-7.232l-.075 1.443zm23.901-1.44h-7.225l-.103 1.44h5.26a8.602 8.602 0 01-.37 1.426h-.638c-.794 2.185-2.414 3.246-4.706 3.246-2.343 0-3.896-1.251-4.48-3.246h.638c-.223-.76-.307-1.631-.24-2.577.063-.902.25-1.735.564-2.467h.639A5.382 5.382 0 0148.754 3.3c.97-.968 2.258-1.52 3.86-1.52 2.606 0 3.887 1.02 4.772 3.033l1.82-1.083c-.59-1.13-1.39-2.032-2.402-2.712C55.802.347 54.454 0 52.733 0c-3.634 0-6.142 2.015-7.172 4.978h-.639a9.684 9.684 0 00-.5 2.487 9.342 9.342 0 00.158 2.557h-.638C44.555 12.94 46.679 15 49.992 15c2.85 0 4.681-1.44 5.535-4.163l-.201 1.852-.144 2.11h1.932l.34-4.778h.637l.202-2.865zm13.045 5.887h-8.794l.287-3.021h.806l.173-1.86h7.025l.134-1.502h-7.006l.159-1.682h.803l.29-3.043h8.752l.163-1.74H63.423l-.452 4.783h-.805l-.48 5.044h-.804l-.455 4.783h10.75l.16-1.762zm31.631 0h-8.796l.43-3.021h1.136L96 8.162h7.024l.205-1.502h-7.003l.24-1.682h1.136l.43-3.043h8.753l.243-1.74H96.324l-.68 4.783h-1.136l-.716 5.044h-1.136l-.681 4.783h10.749l.245-1.762zm25.949-4.447h5.271c-.077.52-.194.995-.342 1.429h-.31c-.759 2.196-2.4 3.258-4.685 3.258-2.354 0-3.913-1.27-4.527-3.258h.31c-.229-.739-.324-1.578-.281-2.487.045-.947.218-1.807.529-2.557h.31a5.227 5.227 0 011.083-1.661c.974-.992 2.258-1.534 3.849-1.534 2.579 0 3.873 1.007 4.79 3.022l1.807-1.086c-.603-1.12-1.411-2.019-2.43-2.696C133.279.351 131.934 0 130.23 0c-3.595 0-6.103 1.984-7.105 4.978h-.31a9.62 9.62 0 00-.473 2.609 9.132 9.132 0 00.201 2.434h-.31c.649 2.894 2.783 4.979 6.124 4.979 2.843 0 4.702-1.433 5.51-4.177l-.155 1.862-.095 2.114h1.933l.225-4.778h.31l.136-2.868h-7.232l-.071 1.443zm12.288 4.447V8.162h7.023V6.66h-7.023V1.936h8.752V.194h-10.707v14.611H150v-1.762h-8.794zM25.158 9.726h.306l-1.896-4.991h.306L22.07 0h-2.206l-2.026 4.734h-.305l-2.133 4.992h-.306l-2.025 4.734h2.053l1.363-3.31h7.202l1.207 3.31h2.06l-1.796-4.734zm-1.994 0h-5.779l2.064-4.991h.306l.434-1.051.727-1.96.641 1.94.393 1.07h-.306l1.83 4.992h-.31zm64.878-4.992h.984C88.314 1.947 85.952 0 82.061 0h-4.828l-.576 4.734h-.985l-.605 4.992h-.983l-.575 4.734h5.48c4.093 0 6.67-1.954 7.737-4.734h.984a8.435 8.435 0 00.494-2.015c.125-1.055.071-2.06-.162-2.976v-.001zm-3.469 4.992c-.904 1.778-2.708 2.97-5.471 2.97h-3.386l.358-2.97h.984l.605-4.991h.984l.361-2.991h2.874c2.742 0 4.41 1.16 5.05 2.99h-.984c.287.824.369 1.782.244 2.829a6.416 6.416 0 01-.634 2.163h-.985zm36.307-4.992C120.151 1.899 117.737 0 113.8 0h-4.774l-.455 4.734h-.73l-.479 4.992h-.729l-.456 4.734h5.329c4.055 0 6.605-1.937 7.637-4.734h.729c.245-.67.406-1.39.476-2.145.097-1.02.029-1.979-.195-2.847h.727zm-3.874 4.992c-.875 1.795-2.662 2.97-5.414 2.97h-3.262l.284-2.97h.73l.481-4.991h.728l.288-2.991h2.817c2.778 0 4.475 1.133 5.133 2.99h-.729c.278.79.37 1.71.278 2.726a6.474 6.474 0 01-.609 2.266h-.725z" fill="currentColor"/></svg>
