<svg viewBox="0 0 63 15" fill="none" xmlns="http://www.w3.org/2000/svg"><path d="M0 15V0h5.34c1.286 0 2.378.38 3.273 1.14.896.76 1.344 1.785 1.344 3.07 0 1.25-.472 2.263-1.417 3.042-.944.78-2.06 1.17-3.346 1.17l5.073 6.166v.411H7.821L2.567 8.423h-.412v6.576H0zm2.156-8.634H5.44c.645 0 1.2-.199 1.664-.597.465-.397.697-.917.697-1.56S7.57 3.046 7.104 2.65c-.464-.396-1.02-.593-1.664-.593H2.156v4.309zm10 7.186c-.987-.952-1.481-2.154-1.481-3.607 0-1.453.493-2.655 1.48-3.607.99-.951 2.168-1.427 3.538-1.427 1.37 0 2.548.476 3.534 1.427.986.952 1.48 2.154 1.48 3.607 0 1.453-.494 2.655-1.48 3.607-.986.951-2.165 1.427-3.534 1.427-1.37 0-2.549-.476-3.536-1.427zm1.337-5.887c-.522.602-.783 1.363-.783 2.28 0 .918.261 1.678.783 2.28.522.602 1.255.903 2.2.903.945 0 1.678-.3 2.197-.903.521-.602.78-1.363.78-2.28 0-.918-.259-1.678-.78-2.28-.52-.602-1.252-.903-2.197-.903-.945 0-1.678.301-2.2.903zm8.06-.472v-1.85h1.871V3.285l1.62-2.051h.391v4.108h2.075v1.851h-2.075v4.932c0 .3.096.547.288.737.192.19.446.286.76.286l1.233-.206v1.851L26.583 15c-1.026 0-1.81-.247-2.35-.74-.539-.493-.809-1.205-.809-2.134V7.194h-1.87zm8.416 6.369c-.957-.945-1.437-2.15-1.437-3.617 0-1.466.48-2.672 1.438-3.617.958-.944 2.123-1.417 3.494-1.417 1.095 0 1.983.343 2.665 1.028l.105.1.1-.1.205-.822h1.85v9.656h-1.85l-.206-.822-.1-.101-.106.1c-.684.686-1.572 1.029-2.664 1.029-1.371 0-2.536-.472-3.494-1.417zm1.388-5.897c-.526.602-.789 1.363-.789 2.28 0 .918.264 1.678.792 2.28.527.602 1.262.903 2.204.903.86 0 1.573-.308 2.133-.923.562-.616.842-1.369.842-2.26 0-.891-.28-1.645-.842-2.26-.56-.615-1.272-.923-2.134-.923-.945 0-1.68.301-2.206.903zm8.466-.472v-1.85h1.87V3.285l1.619-2.051h.39v4.108h2.077v1.851h-2.076v4.932c0 .3.096.547.288.737.193.19.446.286.76.286l1.234-.206v1.851L44.852 15c-1.027 0-1.81-.247-2.35-.74s-.809-1.205-.809-2.134V7.194h-1.87zm6.979 2.739c0-1.476.448-2.681 1.343-3.617.896-.936 2.022-1.404 3.38-1.404 1.26 0 2.327.458 3.203 1.373.875.916 1.313 2.097 1.313 3.544l-.206.631h-6.998c0 .752.25 1.386.75 1.899.5.513 1.174.77 2.022.77.589 0 1.092-.134 1.51-.4.417-.265.71-.61.877-1.035l1.724.817c-.945 1.646-2.35 2.469-4.211 2.469-1.313 0-2.426-.474-3.339-1.423-.913-.949-1.368-2.157-1.368-3.625zm2.155-1.324h4.928c-.053-.524-.306-.962-.76-1.316-.452-.353-.986-.53-1.6-.53-1.341-.003-2.197.612-2.567 1.846h-.001zm10.94-6.792a1.412 1.412 0 010 2.822 1.411 1.411 0 010-2.822zm0-1.693a3.102 3.102 0 00-3.15 3.105 3.108 3.108 0 001.948 2.881c.382.154.79.23 1.202.223A3.102 3.102 0 0063 3.227 3.106 3.106 0 0059.897.122z" fill="currentColor"/></svg>
