<svg viewBox="0 0 90 15" fill="none" xmlns="http://www.w3.org/2000/svg"><path d="M9.25.046c.04-.085.324-.042.324.043a29.402 29.402 0 00-.04 4.66c0 .084-.324.127-.365.041-.605-1.652-1.13-2.584-1.696-3.177C6.867.978 6.06.597 4.888.597c-1.212 0-1.939.338-2.465.89a2.902 2.902 0 00-.686 1.863c0 1.568 1.01 2.076 3.555 2.754 2.343.678 3.474 1.27 4.16 1.949.606.635.889 1.313.889 2.456 0 2.5-2.1 4.364-4.766 4.364-2.424 0-3.636-1.27-4.12-1.27-.284 0-.647.423-.97 1.058-.04.085-.323.042-.323-.042.04-1.652.04-2.967-.162-5.169 0-.085.283-.128.323-.042.889 2.117 1.414 3.092 2.06 3.727.687.72 1.818 1.187 3.151 1.187 1.131 0 1.98-.297 2.464-.848.485-.508.687-1.059.687-1.906 0-1.525-.889-2.246-3.554-2.966C2.787 7.967 1.696 7.46 1.05 6.738.444 6.104.202 5.426.202 4.325c0-2.288 1.98-4.32 4.807-4.32 2.343 0 3.352 1.058 3.555 1.058.12.085.444-.423.686-1.017zM20.117 13.39a4.867 4.867 0 01-1.61 1.136 4.69 4.69 0 01-1.905.39c-1.454 0-2.828-.72-3.675-1.653-.809-.847-1.293-1.864-1.293-3.22 0-1.482.566-2.583 1.454-3.515a5.297 5.297 0 013.716-1.568c1.334 0 2.505.551 3.353 1.44a5.19 5.19 0 011.454 3.644c-.04 1.313-.686 2.456-1.494 3.346zm-1.333-6.778c-.364-.762-.93-1.186-2.061-1.186-1.17 0-1.857.678-2.221 1.483-.364.762-.566 1.736-.566 3.135 0 3.304 1.05 4.447 2.626 4.447 1.09 0 1.616-.338 2.06-1.228.323-.72.525-1.821.525-4.024.04-1.187-.121-2.076-.363-2.627zm15.511 7.964c-.08 0-.08-.38 0-.38.848-.043 1.05-.043 1.131-.086.081-.084.081-.211.081-.55 0-.72.04-3.855.04-5.592 0-1.525-.484-2.033-1.251-2.033-1.091 0-2.142 1.397-2.424 1.948-.242.509-.283.848-.283 1.525 0 .89-.04 2.966 0 4.152 0 .423.04.55.08.635.081.085.243.085 1.132.127.08 0 .08.34-.04.34-.809-.043-3.151-.086-4.525-.086-.08 0-.08-.381 0-.381.929-.043 1.05-.043 1.131-.085.081-.084.081-.169.081-.635V8.307c0-1.187-.04-1.568-.202-1.907-.162-.339-.363-.508-.848-.508-1.05 0-2.1 1.483-2.465 2.288-.282.55-.322.974-.322 1.822v3.092c0 .635 0 .975.08 1.059.08.085.323.085 1.212.127.08 0 .08.381-.04.381-1.71-.042-3.42-.042-5.13 0-.082 0-.082-.382 0-.382 1.494-.041 1.656-.084 1.737-.127.08-.084.08-.21.08-.72 0-.762.04-4.998.04-5.972 0-1.187-.04-1.525-.12-1.61-.081-.085-.364-.128-1.455-.17-.08-.042-.08-.38.081-.38.606.041 2.626.084 3.474.084.08 0 .08.085.08.17 0 .338-.04 2.202-.08 2.626h.04c.727-1.568 1.94-3.093 3.393-3.093 1.455 0 2.384 1.06 2.505 2.626h.04c.687-1.27 1.778-2.626 3.273-2.626.888 0 1.534.297 2.06.848.525.55.727 1.397.727 2.541 0 .678-.04 4.321-.04 5.041 0 .339 0 .509.08.55.08.085.283.085 1.414.17.08 0 .08.382 0 .382-1.697-.043-3.272-.043-4.767-.043zm17.087-1.991c-1.09-1.143-1.898-2.753-1.898-5.168 0-1.821.727-3.558 2.06-4.998C52.957.978 54.574.003 57.16.003c2.181 0 3.877 1.06 5.009 2.288 1.09 1.143 1.777 2.923 1.777 4.786 0 2.203-.889 4.152-2.343 5.677a7.08 7.08 0 01-5.13 2.16c-2.06 0-3.797-.974-5.09-2.329zm.768-4.617c0 2.16.242 3.388.687 4.363.686 1.483 2.14 2.076 3.675 2.076 1.86 0 3.191-.762 3.919-2.33.485-1.059.848-2.626.848-4.702 0-2.415-.243-4.025-.768-5.083-.525-1.144-1.656-1.864-3.716-1.864-1.979 0-3.272 1.058-3.877 2.287-.486 1.101-.768 2.542-.768 5.253zm12.886 6.27c1.172-.043 1.413-.043 1.494-.085.081-.085.122-.466.122-1.864V7.63c0-1.017-.081-1.568-.162-1.694-.08-.085-.282-.127-1.454-.127-.081 0-.081-.382.04-.382 1.01 0 2.666-.042 3.595-.042.122 0 .162.085.162.254a44.813 44.813 0 00-.08 2.33l.08.042c.808-1.652 1.777-2.965 3.352-2.965 1.778 0 2.788 1.186 2.788 3.431 0 .89-.04 2.033-.04 3.178 0 1.99.08 2.414.161 2.541.08.085.283.085 1.333.127.08 0 .08.382-.04.382-1.818-.043-3.272-.043-4.686-.043-.12 0-.081-.382-.04-.382.686-.041.929-.084 1.05-.127.08-.084.08-.38.08-.974 0-.762-.04-4.744-.04-5.21 0-1.271-.364-1.991-1.292-1.991-1.091 0-2.02 1.27-2.505 2.287-.242.509-.323.805-.323 1.652 0 .721.04 2.203.04 3.093.04.847.04 1.101.122 1.186.08.085.242.127 1.333.17.08 0 .08.381-.04.381a100.673 100.673 0 00-5.09 0c-.041-.127-.041-.508.04-.508zm19.268-7.922a4.42 4.42 0 00-1.445-1.007 4.263 4.263 0 00-1.705-.349c-1.374 0-2.505.678-3.434 1.652-.768.848-1.333 2.076-1.333 3.347 0 1.525.485 2.584 1.292 3.431.495.513 1.08.92 1.725 1.196a5.1 5.1 0 002.032.414c1.495 0 3.152-.89 3.879-2.966.04-.127-.324-.296-.444-.169-.647 1.695-1.778 2.542-3.233 2.542-1.292 0-2.02-.466-2.463-1.398-.283-.635-.485-1.652-.485-3.007 0-1.653.162-2.712.525-3.474.243-.551.848-1.06 1.696-1.06 1.495 0 2.182 1.144 2.303 3.898h-4.08c-.121 0-.121.508 0 .508 1.171-.042 2.95-.084 6.14-.042.081-.042.122-.085.122-.17.08-1.482-.445-2.669-1.091-3.346h-.001zm-37.204 0a4.422 4.422 0 00-1.445-1.007 4.263 4.263 0 00-1.705-.349c-1.374 0-2.505.678-3.434 1.652-.768.848-1.333 2.076-1.333 3.347 0 1.525.484 2.584 1.293 3.431a5.29 5.29 0 001.724 1.196 5.101 5.101 0 002.032.414c1.495 0 3.151-.89 3.879-2.966.04-.127-.324-.296-.445-.169-.646 1.695-1.777 2.542-3.232 2.542-1.292 0-2.02-.466-2.464-1.398-.283-.635-.484-1.652-.484-3.007 0-1.653.16-2.712.525-3.474.242-.551.848-1.06 1.696-1.06 1.495 0 2.182 1.144 2.302 3.898h-4.08c-.12 0-.12.508 0 .508 1.172-.042 2.95-.084 6.141-.042.08-.042.121-.085.121-.17.081-1.482-.444-2.669-1.09-3.346zM88.137 11.429c.759 0 1.366.617 1.366 1.351 0 .85-.645 1.506-1.404 1.506-.72 0-1.328-.656-1.328-1.429-.037-.81.645-1.428 1.366-1.428z" fill="currentColor"/></svg>
