<svg viewBox="0 0 84 15" fill="none" xmlns="http://www.w3.org/2000/svg"><path d="M3.53 9.88c.04 1.621.957 2.453 2.71 2.453 1.536 0 2.353-.536 2.353-1.405 0-.473-.22-.83-.558-1.008-.858-.433-2.493-.711-4.585-1.54C1.374 7.569.297 6.205.297 4.445.297 1.779 2.433 0 6.022 0c3.488 0 5.623 1.86 5.623 4.683h-3.45c-.16-1.323-.938-1.936-2.414-1.936-1.236 0-1.992.573-1.992 1.285 0 1.066 1.115 1.283 3.37 2.015 1.654.534 2.852.91 3.547 1.462.94.752 1.416 1.779 1.416 3.006C12.122 13.28 9.91 15 5.881 15 2.154 15 .219 13.318 0 9.88h3.53z" fill="currentColor"/><path d="M11.821 4.11h1.417V1.145h3.472V4.11h1.773v2.076H16.71v4.545c0 1.265.197 1.72 1.296 1.72.117 0 .278 0 .436-.02v2.194c-.698.137-1.393.216-2.07.216-2.754 0-3.134-1.322-3.134-4.584v-4.07h-1.417V4.108zM19.08 4.11h3.33v1.84c.736-1.446 1.795-2.074 3.49-2.097v3.4c-.3-.04-.6-.059-.858-.059-1.056 0-1.735.297-2.152.97-.32.532-.36 1.48-.36 2.92v3.52h-3.45V4.11zM36.648 14.603h-3.39v-1.442c-.839 1.166-1.855 1.7-3.21 1.7-2.332 0-3.53-1.185-3.53-3.538V4.11h3.47v5.87c0 1.56.278 2.273 1.455 2.273 1.255 0 1.735-.81 1.735-2.528V4.109h3.47v10.494zM42.507 14.94c-3.17 0-5.243-2.194-5.243-5.476 0-3.575 2.114-5.728 5.423-5.728 2.911 0 4.784 1.54 5.006 4.091h-3.49c-.2-.97-.718-1.464-1.537-1.464-1.193 0-1.833 1.028-1.833 3.005 0 1.916.58 2.863 1.794 2.863.898 0 1.435-.493 1.635-1.52h3.409c-.339 2.667-2.252 4.23-5.164 4.23zM47.812 4.11h1.415V1.145h3.469V4.11h1.776v2.076h-1.776v4.545c0 1.265.2 1.72 1.296 1.72.12 0 .28 0 .44-.02v2.194c-.7.137-1.397.216-2.075.216-2.75 0-3.13-1.322-3.13-4.584v-4.07h-1.415V4.108zM65.318 14.603h-3.39v-1.442c-.837 1.166-1.854 1.7-3.21 1.7-2.333 0-3.529-1.185-3.529-3.538V4.11h3.469v5.87c0 1.56.279 2.273 1.454 2.273 1.257 0 1.737-.81 1.737-2.528V4.109h3.469v10.494zM66.133 4.11h3.33v1.84c.739-1.446 1.795-2.074 3.49-2.097v3.4a6.698 6.698 0 00-.859-.059c-1.054 0-1.733.297-2.15.97-.32.532-.36 1.48-.36 2.92v3.52h-3.451V4.11zM80.55 8.241c-.019-1.364-.777-2.154-1.974-2.154-1.117 0-1.833.75-1.974 2.154h3.948zm3.151 3.062c-.62 2.294-2.514 3.618-5.225 3.618-3.27 0-5.323-2.095-5.323-5.515 0-3.517 2.094-5.65 5.323-5.65 3.33 0 5.403 2.152 5.403 5.81 0 .197 0 .413-.02.613H76.7c0 1.48.66 2.271 1.894 2.271.94 0 1.537-.396 1.776-1.147h3.33z" fill="currentColor"/></svg>
