<svg viewBox="0 0 64 15" fill="none" xmlns="http://www.w3.org/2000/svg"><path d="M2.943 14.433c-.859-.363-1.594-.847-2.085-1.532-.49-.686-.817-1.452-.858-2.379h2.125a3.07 3.07 0 001.144 2.016c.614.484 1.513.726 2.616.726.981 0 1.798-.202 2.452-.605.654-.403.94-1.008.94-1.815 0-.685-.245-1.209-.694-1.612-.45-.363-1.227-.686-2.29-.887l-1.47-.323c-1.35-.282-2.453-.766-3.23-1.41C.777 5.965.41 5.16.41 4.111c0-.807.204-1.492.654-2.097.45-.605 1.062-1.089 1.88-1.411C3.76.28 4.658.12 5.721.12c1.144 0 2.084.201 2.901.645.818.443 1.43.968 1.84 1.653.408.685.612 1.37.612 2.097H9.032a2.2 2.2 0 00-.49-1.412c-.287-.443-.695-.766-1.227-1.008A3.962 3.962 0 005.6 1.733c-.94 0-1.676.201-2.248.604-.572.403-.899.968-.899 1.694 0 .443.082.846.286 1.129.245.282.531.524.981.725.45.202 1.063.363 1.84.525l1.47.322c1.472.282 2.534.766 3.27 1.411.736.645 1.063 1.532 1.063 2.62 0 .888-.246 1.654-.736 2.259-.49.645-1.144 1.088-1.962 1.41-.817.323-1.798.485-2.82.485-1.062.04-2.002-.121-2.901-.484zM12.3.203h1.961V2.14h-1.961V.204zm18.023 12.215c.204-.645.572-1.25 1.103-1.855.532-.604 1.308-1.21 2.29-1.895.49-.282.816-.524 1.062-.645a23.553 23.553 0 001.634-1.048c.41-.282.736-.645 1.022-1.048.286-.403.409-.887.409-1.452 0-.846-.245-1.532-.777-2.056-.49-.524-1.226-.766-2.206-.766-.573 0-1.104.121-1.554.403-.49.282-.858.645-1.144 1.13a2.835 2.835 0 00-.409 1.49h-1.92c0-.846.204-1.652.613-2.378.408-.726.98-1.29 1.757-1.693C32.98.202 33.88 0 34.901 0c1.594 0 2.78.403 3.638 1.17.858.806 1.267 1.854 1.267 3.184 0 .807-.205 1.533-.613 2.178-.41.645-.859 1.169-1.43 1.572a25.17 25.17 0 01-2.085 1.411c-.286.161-.654.363-1.022.645-.736.524-1.308.968-1.716 1.411a3.247 3.247 0 00-.777 1.412h7.806v1.693h-9.931c0-.847.082-1.613.286-2.258zm13.284 1.614a5.973 5.973 0 01-2.002-2.62c-.45-1.13-.695-2.38-.695-3.79 0-1.492.245-2.782.695-3.951.45-1.13 1.103-2.016 2.002-2.661.859-.646 1.921-.968 3.147-.968 1.226 0 2.248.323 3.106.968.858.645 1.512 1.532 1.962 2.66.45 1.13.654 2.46.654 3.911 0 1.412-.245 2.702-.695 3.79-.45 1.13-1.103 1.976-1.962 2.621-.858.645-1.88.968-3.106.968a4.954 4.954 0 01-3.106-.928zm5.967-2.258c.613-1.007.94-2.378.94-4.152 0-1.855-.327-3.306-.94-4.314s-1.553-1.532-2.82-1.532-2.207.524-2.82 1.532-.899 2.46-.899 4.314c0 1.774.286 3.185.9 4.152.612 1.009 1.552 1.492 2.82 1.492 1.266 0 2.206-.483 2.82-1.492zm7.477 2.904a4.658 4.658 0 01-1.512-.888c-1.267-1.128-1.88-3.185-1.88-6.088 0-2.822.572-4.878 1.758-6.168.899-.968 2.084-1.492 3.555-1.492 1.022 0 1.88.202 2.575.564.695.404 1.226.887 1.594 1.492.368.605.613 1.25.654 1.935h-1.921c-.123-.725-.409-1.29-.94-1.733-.531-.444-1.226-.645-2.085-.645-.735 0-1.348.242-1.88.725-.53.484-.898 1.089-1.185 1.895a8.22 8.22 0 00-.367 2.5v.323h.245c.245-.484.695-.887 1.39-1.29a4.406 4.406 0 012.125-.565c1.103 0 2.043.242 2.738.685a3.939 3.939 0 011.594 1.774 5.77 5.77 0 01.49 2.38c0 .805-.163 1.572-.531 2.338-.327.766-.9 1.37-1.676 1.854-.776.484-1.757.726-2.943.726-.613 0-1.226-.12-1.798-.322zm4.25-2.137c.532-.605.777-1.412.777-2.46 0-1.008-.245-1.814-.776-2.419-.532-.564-1.308-.887-2.37-.887-.9 0-1.676.323-2.248.927-.573.605-.859 1.412-.859 2.38 0 .644.123 1.209.409 1.733s.654.927 1.144 1.21c.49.282.981.443 1.512.443 1.104-.04 1.88-.363 2.412-.927z" fill="currentColor"/></svg>
