<svg xmlns="http://www.w3.org/2000/svg" width="100" height="32" viewBox="0 0 100 32"><path d="m45.733 1.433.067 2.724-.634.033c-.05-1.667-.402-1.895-2.936-1.895h-.542v9.544c0 1.319.335 1.668 1.633 1.704l.033.456c-1.23-.016-2.162-.016-2.753-.016-.622 0-1.589 0-2.855.016l.032-.456c1.302-.036 1.638-.385 1.638-1.704V2.295h-.634c-2.603 0-2.955.228-2.988 1.895l-.631-.033.062-2.724c2.376.016 4.154.037 5.347.037 1.116 0 2.855-.021 5.161-.037m1.053 12.144c1.178 0 1.337-.228 1.355-1.88v-7.96c-.018-1.654-.177-1.883-1.355-1.883l-.035-.422c1.601-.086 1.968-.14 3.414-.402v5.413c.931-1.003 1.689-1.408 2.727-1.408 1.721 0 2.673 1.055 2.673 3.06v3.603c.018 1.65.176 1.879 1.352 1.879l.03.422c-1.012-.033-1.786-.07-2.296-.07-.496 0-1.217.037-2.183.07l.037-.422c.93-.14 1.018-.312 1.036-1.88V9.06c0-2.215-.385-2.95-1.547-2.95-.618 0-1.284.4-1.565 1.017a4.3 4.3 0 0 0-.248.666c-.016.092-.016.159-.016.194v3.71c0 1.568.106 1.74 1.034 1.88l.038.422c-.985-.033-1.71-.07-2.2-.07-.51 0-1.285.037-2.286.07zm12.992-5.165c1.616-.036 2.108-.074 3.712-.248-.212-1.704-.852-2.514-1.938-2.514-1.055 0-1.6.842-1.774 2.762m5.576 3.864c-1.092 1.355-2.162 1.92-3.54 1.92-2.44 0-4.094-1.795-4.094-4.417 0-2.826 1.706-4.744 4.166-4.744 1.323 0 2.274.49 2.924 1.53.439.74.56 1.247.577 2.514h-5.559c.074 2.637 1.038 4.147 2.645 4.147.947 0 1.755-.44 2.618-1.44zM.552 30.246c1.427-.037 1.797-.426 1.797-1.89v-9.15c0-1.46-.37-1.849-1.797-1.89l-.057-.471 2.991.038 4.73-.06 1.245.022.077 2.829-.78.059c-.134-1.771-.466-1.966-3.24-1.966h-.432l-.194.017v5.267c.367 0 .664.02.84.02q.45.034.898.037c1.526 0 1.878-.328 1.894-1.777h.665c-.059 1.16-.059 1.76-.059 2.344 0 .47 0 1.128.02 2.004h-.626c-.077-1.397-.39-1.672-1.855-1.69l-1.056-.021-.74.04v4.077c0 1.658.096 1.735 1.736 1.735 2.17 0 2.816-.488 3.008-2.346l.78.042-.449 3.237-1.5.02-4.745-.038-3.208.018zm19.697-.875c-1.111 1.15-1.995 1.598-3.28 1.598-2.573 0-4.221-2.007-4.221-5.031 0-3.157 1.74-5.134 4.551-5.134.74 0 1.489.136 2.644.45l.033 2.303-.877.059c-.326-1.72-.669-2.13-1.8-2.13-1.46 0-2.22 1.272-2.22 3.785 0 2.932.912 4.588 2.572 4.588.858 0 1.546-.372 2.308-1.19zm4.47-3.32c.195 2.754 1.112 4.253 2.613 4.253 1.404 0 2.244-1.459 2.244-3.88 0-2.883-1.154-4.88-2.75-4.88-1.423 0-2.147 1.197-2.147 3.633 0 .293 0 .584.04.875m-2.387.217v-.296c0-3.29 1.773-5.168 4.787-5.168 2.795 0 4.783 2.074 4.783 5.09 0 3.028-1.931 5.076-4.842 5.076-2.778 0-4.63-1.872-4.728-4.702m11.874 4.018c1.272 0 1.465-.254 1.465-2.083v-4.49c0-1.777-.193-2.031-1.465-2.051l-.04-.447c1.702-.098 2.095-.157 3.573-.47l.1 1.727c1.111-1.219 1.969-1.668 3.125-1.668 1.895 0 2.965 1.23 2.965 3.399v4c-.018.153-.018.31-.018.467 0 1.246.33 1.616 1.521 1.616l.039.467c-1.131-.038-1.99-.078-2.556-.078-.545 0-1.364.04-2.403.078l.034-.467c1.005-.157 1.12-.35 1.12-2.083l.022-1.195V25.27c0-2.452-.45-3.238-1.684-3.238-.762 0-1.406.391-1.795 1.098-.156.292-.291.756-.291.954v4.118c.019 1.734.117 1.926 1.15 2.083l.06.467c-1.093-.038-1.912-.078-2.458-.078-.568 0-1.4.04-2.503.078zm15.326-4.235c.197 2.754 1.11 4.253 2.581 4.253 1.404 0 2.243-1.459 2.243-3.88 0-2.883-1.15-4.88-2.738-4.88-1.402 0-2.123 1.197-2.123 3.633 0 .293 0 .584.037.875m-2.418.216v-.296c0-3.29 1.777-5.168 4.787-5.168 2.828 0 4.814 2.074 4.814 5.09 0 3.028-1.93 5.076-4.872 5.076-2.76 0-4.63-1.872-4.73-4.702m11.783 4.018c1.309 0 1.504-.254 1.504-2.083v-4.49c0-1.777-.195-2.031-1.505-2.051l-.039-.447c1.736-.098 2.13-.157 3.6-.47l.088 1.727c1.097-1.199 1.957-1.668 3.107-1.668 1.326 0 2.104.547 2.657 1.82 1.192-1.334 2.067-1.82 3.259-1.82 1.84 0 2.87 1.248 2.87 3.399v4c0 .153-.02.31-.02.467 0 1.246.354 1.616 1.522 1.616l.042.467c-1.132-.038-1.99-.078-2.54-.078-.528 0-1.33.04-2.401.078l.038-.467c1.033-.157 1.131-.35 1.15-2.083V25.27c0-2.414-.424-3.238-1.637-3.238-.721 0-1.463.439-1.775 1.098a4 4 0 0 0-.252.74c-.02.097-.041.175-.041.214v4.118c0 1.734.117 1.926 1.15 2.083l.042.467c-1.034-.038-1.794-.078-2.31-.078-.505 0-1.268.04-2.282.078l.04-.467c1.034-.157 1.131-.35 1.148-2.083V25.27c0-2.414-.427-3.238-1.638-3.238-.737 0-1.402.408-1.773 1.098-.157.31-.282.756-.282.954v4.118c.02 1.734.106 1.926 1.14 2.083l.04.467c-1.074-.038-1.861-.078-2.405-.078-.568 0-1.405.04-2.537.078zm20.026-12.791a1.29 1.29 0 0 1 1.29-1.293c.724 0 1.307.6 1.307 1.293 0 .737-.564 1.324-1.307 1.324-.74 0-1.29-.566-1.29-1.324m2.499 3.25v6.263l.018 1.195c0 1.829.179 2.083 1.502 2.083l.041.467c-1.21-.038-2.088-.077-2.691-.077-.584 0-1.44.04-2.62.077l.037-.467c1.288 0 1.471-.254 1.471-2.083l.019-1.195V24.96l-.019-1.248c0-1.777-.184-2.031-1.471-2.05l-.037-.448c1.762-.116 2.17-.176 3.75-.47m3.91 9.659-.077-1.99.993-.037c.449 1.5.743 1.792 1.777 1.792.895 0 1.482-.467 1.482-1.168 0-.665-.409-1.148-1.64-1.974a60 60 0 0 1-1.284-.897c-.51-.39-.88-.859-1.075-1.383q-.178-.438-.176-1.052c0-1.738 1.212-2.891 3.043-2.891.681 0 1.072.058 2.62.429l.041 1.936-.99.04c-.222-1.273-.618-1.722-1.533-1.722-.878 0-1.503.508-1.503 1.195 0 .68.314 1.09 1.327 1.733.915.606 1.616 1.15 2.093 1.578.546.526.86 1.188.86 1.925 0 1.723-1.448 3.051-3.304 3.051-.72 0-1.403-.16-2.654-.565m8.023-9.033c1.538-.118 2.12-.778 2.561-2.808h.877v2.632h2.46l-.276 1.072h-2.184v4.76c0 2.365.313 2.927 1.64 2.927.31 0 .601-.038 1.072-.173v.564c-.662.37-1.579.584-2.513.584-.864 0-1.663-.485-1.998-1.208-.293-.604-.389-1.207-.389-2.5v-4.954h-1.25z"/></svg>