<svg xmlns="http://www.w3.org/2000/svg" viewBox="0 0 79 24" width="79" height="24"><path d="M77.4296 21.5778C76.4555 21.0304 76.1555 20.234 76.1555 18.414V5.82415C76.1555 3.39104 74.5265 1.90763 72.16 1.78994C70.3494 1.69141 69.4359 2.18406 68.9983 2.5207C68.5608 2.85734 68.5415 3.09545 68.5415 3.2323C68.5415 3.62915 68.9378 3.54978 69.6147 3.92474C70.5888 4.47212 70.886 5.2713 70.886 7.08861V10.4906C70.886 10.5508 70.8475 10.6493 70.7484 10.5125C70.4732 10.154 68.9185 8.65139 65.9357 8.65139C61.6403 8.65139 57.7026 11.974 57.7026 16.5638C57.7026 20.7568 60.3277 24 64.802 24C66.8492 24 68.5003 23.3869 70.0302 21.6463C70.487 21.1317 70.7842 20.4995 70.8833 20.4995C70.9823 20.4995 70.9631 20.598 71.0043 20.8142C71.263 22.377 72.2371 23.7017 74.8815 23.7017C76.6894 23.7017 77.6057 23.3076 78.0432 22.9709C78.4807 22.6343 78.5 22.3962 78.5 22.2593C78.5027 21.8734 78.1037 21.9473 77.4296 21.5778ZM66.9978 20.6473C64.4525 20.6473 62.8207 18.4578 62.8207 15.7427C62.8207 13.0277 64.4525 10.7342 66.8382 10.7342C69.3423 10.7342 70.7539 12.8553 70.7539 15.5648C70.7539 17.9596 69.7606 20.6473 66.9978 20.6473ZM56.2304 23.1789C56.2304 23.5539 56.09 23.7126 55.5535 23.7126H47.0232C46.4728 23.7126 46.3462 23.5539 46.3462 23.1789C46.3462 22.804 46.4453 22.6452 47.0232 22.429C48.6549 21.794 48.6549 21.025 48.6549 19.5416V7.09956C48.6549 5.28225 48.355 4.46938 47.3809 3.93568C46.704 3.56073 46.3077 3.6401 46.3077 3.24324C46.3077 3.1064 46.327 2.86829 46.7645 2.53165C47.202 2.19501 48.1156 1.71057 49.9262 1.80089C52.2927 1.91858 53.9217 3.40198 53.9217 5.8351V19.5416C53.9217 21.025 53.9217 21.794 55.5535 22.429C56.1313 22.6452 56.2304 22.7848 56.2304 23.1789ZM45.141 23.1789C45.141 23.5539 45.0034 23.7126 44.4668 23.7126H35.942C35.3917 23.7126 35.2651 23.5539 35.2651 23.1789C35.2651 22.804 35.3642 22.6452 35.942 22.429C37.571 21.794 37.571 21.025 37.571 19.5416V13.9637C37.571 12.1437 37.2739 11.3336 36.2998 10.7999C35.6228 10.4222 35.2238 10.5015 35.2238 10.1074C35.2238 9.96784 35.2458 9.72973 35.6834 9.39583C36.1209 9.06192 37.0345 8.57475 38.8451 8.66233C41.2088 8.78276 42.8406 10.2662 42.8406 12.6965V19.5388C42.8406 21.0222 42.8406 21.7913 44.4723 22.4263C45.0419 22.6452 45.141 22.7848 45.141 23.1789ZM36.0328 3.41019C34.4644 3.41019 33.6884 4.29969 31.4402 12.5269L28.8564 21.8324C28.5372 23.0174 28.2593 23.7701 25.059 23.7701C22.2743 23.7701 21.9166 23.1187 21.6964 22.0486L18.9942 9.84468C18.8732 9.2973 18.7356 8.97434 18.576 8.97434C18.4164 8.97434 18.3008 9.13308 18.1385 9.84468L14.996 21.8324C14.7208 23.0174 14.4457 23.7701 11.1987 23.7701C8.41392 23.7701 8.0562 23.2227 7.79754 22.1471L4.3579 8.16695C3.46359 4.56517 2.56929 3.78789 1.57592 3.28156C0.898999 2.94492 0.5 2.92576 0.5 2.52891C0.5 2.39206 0.522015 2.15395 0.959537 1.81731C1.39706 1.48067 2.50875 1.0674 4.02219 1.0674C5.53563 1.0674 6.928 1.44509 7.94063 2.53165C8.91473 3.56073 9.27245 5.3014 9.86682 7.77284L12.7891 19.9165C12.8882 20.3517 12.9295 20.39 12.9873 20.39C13.045 20.39 13.1083 20.3517 13.2074 19.9165L16.4489 7.60041C17.2221 4.2778 17.7009 2.81355 20.1857 2.81355C22.7503 2.81355 23.2677 4.53507 23.884 7.60041L26.6357 19.8837C26.7128 20.297 26.7541 20.3763 26.8531 20.3763C26.9522 20.3763 26.9522 20.338 27.0705 19.8837L30.3726 7.96442C31.088 5.37256 31.7484 3.47588 32.8188 2.18953C34.0709 0.686966 35.7219 0 37.9288 0C40.5539 0 42.8598 1.20698 42.8598 3.0845C42.849 3.70519 42.5923 4.29655 42.1456 4.7301C41.6989 5.16364 41.0982 5.40435 40.4741 5.39993C38.4406 5.4273 37.5931 3.41019 36.0328 3.41019Z"></path></svg>