<svg xmlns="http://www.w3.org/2000/svg" width="90" height="23" viewBox="0 0 90 23"><path d="M77.724 0c-6.78 0-12.276 5.152-12.276 11.5S70.944 23 77.724 23 90 17.848 90 11.5 84.504 0 77.724 0m0 19.711c-4.704 0-8.532-3.806-8.532-8.211 0-4.404 3.828-8.211 8.532-8.211s8.532 3.807 8.532 8.211c0 4.405-3.828 8.211-8.532 8.211m-63.252 2.875V15.18L25.296.414h-4.464l-8.184 11.201L4.464.414H0l10.824 14.755v7.406h3.66zm10.98-3.461h3.66v3.461h-3.66zm9.792-7.625C35.256 5.152 40.752 0 47.532 0c2.988 0 5.748.794 8.004 2.139v4.175c-1.896-1.84-4.776-3.025-8.004-3.025C42.828 3.289 39 7.096 39 11.5c0 4.405 3.828 8.211 8.532 8.211 3.228 0 6.108-1.173 8.004-3.024v4.174C53.28 22.206 50.52 23 47.532 23c-6.78 0-12.276-5.152-12.276-11.5z"/></svg>