<svg width="880" height="880" viewBox="0 0 880 880" fill="none" xmlns="http://www.w3.org/2000/svg">
<path d="M350.189 392.725C350.329 391.468 351.454 390.491 352.72 390.491H372.126C373.392 390.491 374.236 391.468 374.095 392.725L360.595 488.09C360.314 489.347 359.048 490.324 357.782 490.324H340.626C339.36 490.324 338.376 489.347 338.657 488.09L338.938 482.366C333.735 488.37 326.422 492 317 492C299.281 492 290 479.713 290 462.12C290 440.198 305.047 420.231 327.407 420.231C336.266 420.231 342.313 423.443 345.829 428.609L350.189 392.725ZM313.204 458.35C313.204 465.89 317.844 470.777 325.157 470.777C333.735 470.777 340.485 464.912 341.61 455.976C342.876 447.18 337.954 441.455 329.657 441.455C319.532 441.455 313.204 449.693 313.204 458.35ZM372.314 490.324C371.048 490.324 369.923 489.347 370.204 488.09L379.205 424.141C379.486 422.884 380.611 421.907 381.877 421.907H401.142C402.407 421.907 403.392 422.884 403.11 424.141L394.11 488.09C393.829 489.347 392.845 490.324 391.579 490.324H372.314ZM381.736 399.566C381.736 392.585 387.078 387 394.531 387C401.703 387 407.047 392.585 407.047 399.566C407.047 406.687 401.703 412.273 394.531 412.273C387.078 412.273 381.736 406.687 381.736 399.566ZM435.111 491.162C423.72 491.162 412.329 485.996 414.86 468.961L418.938 439.919H410.782C409.516 439.919 408.673 438.941 408.813 437.685L410.641 424.141C410.782 422.884 411.907 421.907 413.173 421.907H421.47L423.72 405.989C423.86 404.733 425.126 403.755 426.392 403.755H445.658C446.923 403.755 447.767 404.733 447.626 405.989L445.376 421.907H455.502C456.767 421.907 457.611 422.884 457.47 424.141L455.361 437.824C455.22 439.081 454.095 439.919 452.83 439.919H442.845L439.048 466.448C438.626 469.799 440.876 471.754 443.97 471.754C445.236 471.754 446.642 471.754 448.189 471.614C449.876 471.475 450.861 472.313 450.72 473.848L448.892 486.415C448.47 490.045 440.454 491.162 435.111 491.162ZM487.984 491.162C476.593 491.162 465.202 485.996 467.733 468.961L471.812 439.919H463.655C462.39 439.919 461.546 438.941 461.686 437.685L463.515 424.141C463.655 422.884 464.78 421.907 466.046 421.907H474.343L476.593 405.989C476.734 404.733 477.999 403.755 479.265 403.755H498.531C499.796 403.755 500.64 404.733 500.5 405.989L498.249 421.907H508.375C509.64 421.907 510.484 422.884 510.343 424.141L508.234 437.824C508.093 439.081 506.968 439.919 505.703 439.919H495.718L491.921 466.448C491.499 469.799 493.749 471.754 496.843 471.754C498.109 471.754 499.515 471.754 501.062 471.614C502.75 471.475 503.734 472.313 503.593 473.848L501.765 486.415C501.343 490.045 493.328 491.162 487.984 491.162ZM537.357 492C519.638 492 510.357 479.713 510.357 462.12C510.357 440.198 525.404 420.231 547.763 420.231C557.185 420.231 563.232 423.722 566.748 429.586L568.014 424.141C568.295 422.884 569.279 421.907 570.545 421.907H587.983C589.249 421.907 590.233 422.884 589.952 424.141L580.952 488.09C580.67 489.347 579.405 490.324 578.139 490.324H560.982C559.717 490.324 558.732 489.347 559.014 488.09L559.295 482.366C554.092 488.37 546.779 492 537.357 492ZM533.56 458.35C533.56 465.89 538.201 470.777 545.513 470.777C554.092 470.777 560.842 464.912 561.967 455.976C563.232 447.18 558.311 441.455 550.013 441.455C539.888 441.455 533.56 449.693 533.56 458.35Z" fill="#A2A2A2" fill-opacity="0.5"/>
</svg>
