<svg width="111" height="74" viewBox="0 0 111 74" fill="none" xmlns="http://www.w3.org/2000/svg">
<g clip-path="url(#clip0_1771_5925)">
<rect width="111" height="74" transform="matrix(-1 0 0 1 111 0)" fill="#FFA4D2"/>
<rect width="1" height="4" transform="matrix(-1 0 0 1 74 70)" fill="white"/>
<rect width="1" height="8" transform="matrix(-1 0 0 1 73 66)" fill="white"/>
<rect width="1" height="11" transform="matrix(-1 0 0 1 72 63)" fill="white"/>
<rect width="1" height="17" transform="matrix(-1 0 0 1 72 43)" fill="white"/>
<rect width="1" height="11" transform="matrix(-1 0 0 1 73 42)" fill="white"/>
<rect width="1" height="9" transform="matrix(-1 0 0 1 74 41)" fill="white"/>
<rect width="1" height="8" transform="matrix(-1 0 0 1 75 39)" fill="white"/>
<rect width="1" height="8" transform="matrix(-1 0 0 1 76 36)" fill="white"/>
<rect width="1" height="7" transform="matrix(-1 0 0 1 77 35)" fill="white"/>
<rect width="1" height="3" transform="matrix(-1 0 0 1 76 33)" fill="white"/>
<rect width="1" height="1" transform="matrix(-1 0 0 1 75 32)" fill="white"/>
<rect width="4" height="1" transform="matrix(-1 0 0 1 74 31)" fill="white"/>
<rect width="1" height="1" transform="matrix(-1 0 0 1 70 32)" fill="white"/>
<rect width="1" height="1" transform="matrix(-1 0 0 1 73 30)" fill="white"/>
<rect width="1" height="1" transform="matrix(-1 0 0 1 72 29)" fill="white"/>
<rect width="2" height="1" transform="matrix(-1 0 0 1 71 28)" fill="white"/>
<rect width="1" height="1" transform="matrix(-1 0 0 1 68 31)" fill="white"/>
<rect width="1" height="1" transform="matrix(-1 0 0 1 67 32)" fill="white"/>
<rect width="1" height="1" transform="matrix(-1 0 0 1 66 33)" fill="white"/>
<rect width="1" height="1" transform="matrix(-1 0 0 1 66 36)" fill="white"/>
<rect width="1" height="3" transform="matrix(-1 0 0 1 65 34)" fill="white"/>
<rect width="1" height="3" transform="matrix(-1 0 0 1 64 35)" fill="white"/>
<rect width="1" height="2" transform="matrix(-1 0 0 1 63 37)" fill="white"/>
<rect width="2" height="1" transform="matrix(-1 0 0 1 62 38)" fill="white"/>
<rect width="6" height="1" transform="matrix(-1 0 0 1 70 27)" fill="white"/>
<rect width="4" height="1" transform="matrix(-1 0 0 1 69 26)" fill="white"/>
<rect width="2" height="1" transform="matrix(-1 0 0 1 69 25)" fill="white"/>
<rect width="5" height="1" transform="matrix(-1 0 0 1 68 17)" fill="white"/>
<rect width="3" height="1" transform="matrix(-1 0 0 1 69 18)" fill="white"/>
<rect width="2" height="1" transform="matrix(-1 0 0 1 66 16)" fill="white"/>
<rect width="2" height="1" transform="matrix(-1 0 0 1 65 15)" fill="white"/>
<rect width="2" height="1" transform="matrix(-1 0 0 1 63 14)" fill="white"/>
<rect width="2" height="1" transform="matrix(-1 0 0 1 60 13)" fill="white"/>
<rect width="1" height="2" transform="matrix(-1 0 0 1 58 14)" fill="white"/>
<rect width="2" height="1" transform="matrix(-1 0 0 1 61 16)" fill="white"/>
<rect width="1" height="2" transform="matrix(-1 0 0 1 61 14)" fill="white"/>
<rect width="1" height="1" transform="matrix(-1 0 0 1 59 16)" fill="white"/>
<rect width="1" height="1" transform="matrix(-1 0 0 1 60 14)" fill="white"/>
<rect width="2" height="1" transform="matrix(-1 0 0 1 63 17)" fill="white"/>
<rect width="3" height="1" transform="matrix(-1 0 0 1 71 19)" fill="white"/>
<rect width="6" height="1" transform="matrix(-1 0 0 1 69 28)" fill="white"/>
<rect width="6" height="1" transform="matrix(-1 0 0 1 68 29)" fill="white"/>
<rect width="6" height="1" transform="matrix(-1 0 0 1 67 30)" fill="white"/>
<rect width="6" height="1" transform="matrix(-1 0 0 1 57 30)" fill="white"/>
<rect width="3" height="1" transform="matrix(-1 0 0 1 58 29)" fill="white"/>
<rect width="4" height="1" transform="matrix(-1 0 0 1 56 31)" fill="white"/>
<rect width="2" height="1" transform="matrix(-1 0 0 1 55 32)" fill="white"/>
<rect width="1" height="1" transform="matrix(-1 0 0 1 55 33)" fill="white"/>
<rect width="2" height="1" transform="matrix(-1 0 0 1 59 28)" fill="white"/>
<rect width="1" height="1" transform="matrix(-1 0 0 1 59 27)" fill="white"/>
<rect width="4" height="1" transform="matrix(-1 0 0 1 65 31)" fill="white"/>
<rect width="4" height="1" transform="matrix(-1 0 0 1 64 32)" fill="white"/>
<rect width="4" height="1" transform="matrix(-1 0 0 1 63 33)" fill="white"/>
<rect width="3" height="1" transform="matrix(-1 0 0 1 62 34)" fill="white"/>
<rect width="3" height="1" transform="matrix(-1 0 0 1 61 35)" fill="white"/>
<rect width="3" height="1" transform="matrix(-1 0 0 1 60 36)" fill="white"/>
<rect width="1" height="1" transform="matrix(-1 0 0 1 59 37)" fill="white"/>
<rect width="1" height="30" transform="matrix(-1 0 0 1 71 44)" fill="white"/>
<rect width="1" height="28" transform="matrix(-1 0 0 1 70 45)" fill="white"/>
<rect width="1" height="26" transform="matrix(-1 0 0 1 69 46)" fill="white"/>
<rect width="1" height="22" transform="matrix(-1 0 0 1 68 46)" fill="white"/>
<rect width="1" height="15" transform="matrix(-1 0 0 1 67 47)" fill="white"/>
<rect width="1" height="23" transform="matrix(-1 0 0 1 65 47)" fill="white"/>
<rect width="1" height="10" transform="matrix(-1 0 0 1 66 63)" fill="white"/>
<rect width="1" height="4" transform="matrix(-1 0 0 1 67 69)" fill="white"/>
<rect width="2" height="1" transform="matrix(-1 0 0 1 68 73)" fill="white"/>
<rect width="1" height="19" transform="matrix(-1 0 0 1 64 48)" fill="white"/>
<rect width="1" height="16" transform="matrix(-1 0 0 1 63 48)" fill="white"/>
<rect width="2" height="23" transform="matrix(-1 0 0 1 61 48)" fill="white"/>
<rect width="1" height="17" transform="matrix(-1 0 0 1 59 49)" fill="white"/>
<rect width="1" height="1" transform="matrix(-1 0 0 1 60 47)" fill="white"/>
<rect width="4" height="2" transform="matrix(-1 0 0 1 58 46)" fill="white"/>
<rect width="4" height="4" transform="matrix(-1 0 0 1 57 48)" fill="white"/>
<rect width="4" height="9" transform="matrix(-1 0 0 1 57 53)" fill="white"/>
<rect width="3" height="1" transform="matrix(-1 0 0 1 57 52)" fill="white"/>
<rect width="1" height="2" transform="matrix(-1 0 0 1 53 50)" fill="white"/>
<rect width="1" height="5" transform="matrix(-1 0 0 1 51 39)" fill="white"/>
<rect width="1" height="27" transform="matrix(-1 0 0 1 48 34)" fill="white"/>
<rect width="1" height="6" transform="matrix(-1 0 0 1 49 35)" fill="white"/>
<rect width="1" height="6" transform="matrix(-1 0 0 1 47 36)" fill="white"/>
<rect width="1" height="3" transform="matrix(-1 0 0 1 46 38)" fill="white"/>
<rect width="1" height="1" transform="matrix(-1 0 0 1 45 39)" fill="white"/>
<rect width="1" height="1" transform="matrix(-1 0 0 1 52 40)" fill="white"/>
<rect width="1" height="5" transform="matrix(-1 0 0 1 49 52)" fill="white"/>
<rect width="1" height="6" transform="matrix(-1 0 0 1 47 57)" fill="white"/>
<rect width="1" height="6" transform="matrix(-1 0 0 1 46 59)" fill="white"/>
<rect width="1" height="6" transform="matrix(-1 0 0 1 45 61)" fill="white"/>
<rect width="1" height="6" transform="matrix(-1 0 0 1 44 63)" fill="white"/>
<rect width="1" height="5" transform="matrix(-1 0 0 1 43 65)" fill="white"/>
<rect width="1" height="5" transform="matrix(-1 0 0 1 42 66)" fill="white"/>
<rect width="1" height="3" transform="matrix(-1 0 0 1 41 68)" fill="white"/>
<rect width="1" height="2" transform="matrix(-1 0 0 1 40 69)" fill="white"/>
<rect width="1" height="2" transform="matrix(-1 0 0 1 59 72)" fill="white"/>
<rect width="3" height="1" transform="matrix(-1 0 0 1 58 73)" fill="white"/>
<rect width="4" height="1" transform="matrix(-1 0 0 1 57 66)" fill="white"/>
<rect width="2" height="1" transform="matrix(-1 0 0 1 55 67)" fill="white"/>
<rect width="5" height="1" transform="matrix(-1 0 0 1 52 66)" fill="white"/>
<rect width="1" height="2" transform="matrix(-1 0 0 1 48 64)" fill="white"/>
<rect width="6" height="1" transform="matrix(-1 0 0 1 52 67)" fill="white"/>
<rect width="6" height="1" transform="matrix(-1 0 0 1 51 68)" fill="white"/>
<rect width="5" height="1" transform="matrix(-1 0 0 1 50 69)" fill="white"/>
<rect width="5" height="1" transform="matrix(-1 0 0 1 49 70)" fill="white"/>
<rect width="8" height="1" transform="matrix(-1 0 0 1 48 71)" fill="white"/>
<rect width="5" height="1" transform="matrix(-1 0 0 1 47 72)" fill="white"/>
<rect width="1" height="4" transform="matrix(-1 0 0 1 55 68)" fill="white"/>
<rect width="3" height="6" transform="matrix(-1 0 0 1 58 67)" fill="white"/>
<rect width="1" height="9" transform="matrix(-1 0 0 1 50 42)" fill="white"/>
<rect width="1" height="2" transform="matrix(-1 0 0 1 49 42)" fill="white"/>
<rect width="1" height="4" transform="matrix(-1 0 0 1 50 37)" fill="white"/>
<rect width="2" height="6" transform="matrix(-1 0 0 1 52 52)" fill="white"/>
<rect width="2" height="8" transform="matrix(-1 0 0 1 52 44)" fill="white"/>
<rect width="1" height="5" transform="matrix(-1 0 0 1 53 53)" fill="white"/>
<rect width="3" height="1" transform="matrix(-1 0 0 1 57 62)" fill="white"/>
<rect width="4" height="1" transform="matrix(-1 0 0 1 52 62)" fill="white"/>
<rect width="4" height="4" transform="matrix(-1 0 0 1 53 58)" fill="white"/>
<rect width="9" height="3" transform="matrix(-1 0 0 1 57 63)" fill="white"/>
<rect width="1" height="3" transform="matrix(-1 0 0 1 60 71)" fill="#4B50C3"/>
<rect width="2" height="1" transform="matrix(-1 0 0 1 54 62)" fill="#4B50C3"/>
<rect width="2" height="1" transform="matrix(-1 0 0 1 54 52)" fill="#4B50C3"/>
<rect width="2" height="1" transform="matrix(-1 0 0 1 50 41)" fill="#4B50C3"/>
<rect width="1" height="8" transform="matrix(-1 0 0 1 49 44)" fill="#4B50C3"/>
<rect width="1" height="7" transform="matrix(-1 0 0 1 50 51)" fill="#4B50C3"/>
<rect width="1" height="5" transform="matrix(-1 0 0 1 49 57)" fill="#4B50C3"/>
<rect width="1" height="3" transform="matrix(-1 0 0 1 48 61)" fill="#4B50C3"/>
<rect width="1" height="4" transform="matrix(-1 0 0 1 47 63)" fill="#4B50C3"/>
<rect width="1" height="3" transform="matrix(-1 0 0 1 46 65)" fill="#4B50C3"/>
<rect width="1" height="3" transform="matrix(-1 0 0 1 45 67)" fill="#4B50C3"/>
<rect width="1" height="2" transform="matrix(-1 0 0 1 44 69)" fill="#4B50C3"/>
<rect width="1" height="1" transform="matrix(-1 0 0 1 43 70)" fill="#4B50C3"/>
<rect width="2" height="1" transform="matrix(-1 0 0 1 40 71)" fill="#4B50C3"/>
<rect width="6" height="1" transform="matrix(-1 0 0 1 42 72)" fill="#4B50C3"/>
<rect width="1" height="8" transform="matrix(-1 0 0 1 53 66)" fill="#4B50C3"/>
<rect width="1" height="6" transform="matrix(-1 0 0 1 52 68)" fill="#4B50C3"/>
<rect width="1" height="5" transform="matrix(-1 0 0 1 51 69)" fill="#4B50C3"/>
<rect width="1" height="4" transform="matrix(-1 0 0 1 50 70)" fill="#4B50C3"/>
<rect width="1" height="3" transform="matrix(-1 0 0 1 49 71)" fill="#4B50C3"/>
<rect width="1" height="2" transform="matrix(-1 0 0 1 48 72)" fill="#4B50C3"/>
<rect width="12" height="1" transform="matrix(-1 0 0 1 47 73)" fill="#4B50C3"/>
<rect width="1" height="6" transform="matrix(-1 0 0 1 54 68)" fill="#4B50C3"/>
<rect width="1" height="2" transform="matrix(-1 0 0 1 55 72)" fill="#4B50C3"/>
<rect width="1" height="4" transform="matrix(-1 0 0 1 63 64)" fill="#4B50C3"/>
<rect width="1" height="4" transform="matrix(-1 0 0 1 64 67)" fill="#4B50C3"/>
<rect width="1" height="4" transform="matrix(-1 0 0 1 65 70)" fill="#4B50C3"/>
<rect width="1" height="4" transform="matrix(-1 0 0 1 68 68)" fill="#4B50C3"/>
<rect width="1" height="7" transform="matrix(-1 0 0 1 67 62)" fill="#4B50C3"/>
<rect width="1" height="16" transform="matrix(-1 0 0 1 66 47)" fill="#4B50C3"/>
<rect width="1" height="1" transform="matrix(-1 0 0 1 66 73)" fill="#4B50C3"/>
<rect width="2" height="1" transform="matrix(-1 0 0 1 70 73)" fill="#4B50C3"/>
<rect width="2" height="1" transform="matrix(-1 0 0 1 69 72)" fill="#4B50C3"/>
<rect width="1" height="2" transform="matrix(-1 0 0 1 59 47)" fill="#4B50C3"/>
<rect width="1" height="2" transform="matrix(-1 0 0 1 66 34)" fill="#4B50C3"/>
<rect width="1" height="3" transform="matrix(-1 0 0 1 67 33)" fill="#4B50C3"/>
<rect width="1" height="3" transform="matrix(-1 0 0 1 68 32)" fill="#4B50C3"/>
<rect width="1" height="5" transform="matrix(-1 0 0 1 69 29)" fill="#4B50C3"/>
<rect width="1" height="3" transform="matrix(-1 0 0 1 70 29)" fill="#4B50C3"/>
<rect width="1" height="2" transform="matrix(-1 0 0 1 71 29)" fill="#4B50C3"/>
<rect width="1" height="1" transform="matrix(-1 0 0 1 72 30)" fill="#4B50C3"/>
<rect width="1" height="1" transform="matrix(-1 0 0 1 68 30)" fill="#4B50C3"/>
<rect width="2" height="1" transform="matrix(-1 0 0 1 67 31)" fill="#4B50C3"/>
<rect width="2" height="1" transform="matrix(-1 0 0 1 66 32)" fill="#4B50C3"/>
<rect width="2" height="1" transform="matrix(-1 0 0 1 65 33)" fill="#4B50C3"/>
<rect width="2" height="1" transform="matrix(-1 0 0 1 64 34)" fill="#4B50C3"/>
<rect width="2" height="2" transform="matrix(-1 0 0 1 63 35)" fill="#4B50C3"/>
<rect width="1" height="2" transform="matrix(-1 0 0 1 61 36)" fill="#4B50C3"/>
<rect width="1" height="1" transform="matrix(-1 0 0 1 60 37)" fill="#4B50C3"/>
<rect width="1" height="1" transform="matrix(-1 0 0 1 62 37)" fill="#4B50C3"/>
<rect width="1" height="17" transform="matrix(-1 0 0 1 62 48)" fill="#4B50C3"/>
<rect width="1" height="6" transform="matrix(-1 0 0 1 59 66)" fill="#4B50C3"/>
<rect width="1" height="19" transform="matrix(-1 0 0 1 58 48)" fill="#4B50C3"/>
<rect width="2" height="2" transform="matrix(-1 0 0 1 63 15)" fill="black"/>
<rect width="1" height="1" transform="matrix(-1 0 0 1 64 16)" fill="black"/>
<rect width="1" height="1" transform="matrix(-1 0 0 1 59 14)" fill="black"/>
<rect width="2" height="1" transform="matrix(-1 0 0 1 60 15)" fill="black"/>
<rect width="3" height="1" transform="matrix(-1 0 0 1 63 10)" fill="#FFF6A0"/>
<rect width="3" height="1" transform="matrix(-1 0 0 1 64 9)" fill="#FFF6A0"/>
<rect width="3" height="1" transform="matrix(-1 0 0 1 70 9)" fill="#FFF6A0"/>
<rect width="3" height="1" transform="matrix(-1 0 0 1 72 10)" fill="#FFF6A0"/>
<rect width="2" height="1" transform="matrix(-1 0 0 1 73 11)" fill="#FFF6A0"/>
<rect width="1" height="2" transform="matrix(-1 0 0 1 74 12)" fill="#FFF6A0"/>
<rect width="7" height="1" transform="matrix(-1 0 0 1 69 8)" fill="#FFF6A0"/>
<rect width="4" height="1" transform="matrix(-1 0 0 1 67 7)" fill="#FFF6A0"/>
<rect width="1" height="1" transform="matrix(-1 0 0 1 66 6)" fill="#FFF6A0"/>
<rect width="1" height="1" transform="matrix(-1 0 0 1 69 7)" fill="#FFF6A0"/>
<rect width="1" height="1" transform="matrix(-1 0 0 1 72 9)" fill="#FFF6A0"/>
<rect width="1" height="1" transform="matrix(-1 0 0 1 74 11)" fill="#FFF6A0"/>
<rect width="1" height="1" transform="matrix(-1 0 0 1 74 10)" fill="#FFF6A0"/>
<rect width="1" height="2" transform="matrix(-1 0 0 1 75 13)" fill="#FFF6A0"/>
<rect width="1" height="1" transform="matrix(-1 0 0 1 64 6)" fill="#FFF6A0"/>
<rect width="7" height="1" transform="matrix(-1 0 0 1 69 8)" fill="#FFF6A0"/>
<rect width="7" height="2" transform="matrix(-1 0 0 1 75 15)" fill="#8E5723"/>
<rect width="6" height="1" transform="matrix(-1 0 0 1 74 14)" fill="#8E5723"/>
<rect width="6" height="1" transform="matrix(-1 0 0 1 75 17)" fill="#8E5723"/>
<rect width="5" height="1" transform="matrix(-1 0 0 1 75 18)" fill="#8E5723"/>
<rect width="3" height="1" transform="matrix(-1 0 0 1 74 19)" fill="#8E5723"/>
<rect width="2" height="1" transform="matrix(-1 0 0 1 73 20)" fill="#8E5723"/>
<rect width="1" height="2" transform="matrix(-1 0 0 1 72 21)" fill="#8E5723"/>
<rect width="1" height="2" transform="matrix(-1 0 0 1 70 23)" fill="#8E5723"/>
<rect width="1" height="1" transform="matrix(-1 0 0 1 69 24)" fill="#8E5723"/>
<rect width="8" height="1" transform="matrix(-1 0 0 1 36 29)" fill="#8E5723"/>
<rect width="2" height="1" transform="matrix(-1 0 0 1 29 30)" fill="#8E5723"/>
<rect width="1" height="1" transform="matrix(-1 0 0 1 28 31)" fill="#8E5723"/>
<rect width="2" height="1" transform="matrix(-1 0 0 1 29 32)" fill="#8E5723"/>
<rect width="2" height="1" transform="matrix(-1 0 0 1 30 33)" fill="#8E5723"/>
<rect width="1" height="2" transform="matrix(-1 0 0 1 28 34)" fill="#8E5723"/>
<rect width="1" height="2" transform="matrix(-1 0 0 1 27 36)" fill="#8E5723"/>
<rect width="1" height="2" transform="matrix(-1 0 0 1 26 38)" fill="#8E5723"/>
<rect width="1" height="3" transform="matrix(-1 0 0 1 25 40)" fill="#8E5723"/>
<rect width="1" height="3" transform="matrix(-1 0 0 1 24 43)" fill="#8E5723"/>
<rect width="2" height="1" transform="matrix(-1 0 0 1 25 46)" fill="#8E5723"/>
<rect width="2" height="1" transform="matrix(-1 0 0 1 26 47)" fill="#8E5723"/>
<rect width="5" height="1" transform="matrix(-1 0 0 1 31 48)" fill="#8E5723"/>
<rect width="1" height="1" transform="matrix(-1 0 0 1 31 47)" fill="#8E5723"/>
<rect width="1" height="1" transform="matrix(-1 0 0 1 33 40)" fill="#8E5723"/>
<rect width="1" height="1" transform="matrix(-1 0 0 1 33 35)" fill="#8E5723"/>
<rect width="1" height="1" transform="matrix(-1 0 0 1 34 34)" fill="#8E5723"/>
<rect width="1" height="1" transform="matrix(-1 0 0 1 35 34)" fill="#8E5723"/>
<rect width="1" height="2" transform="matrix(-1 0 0 1 40 32)" fill="#8E5723"/>
<rect width="1" height="2" transform="matrix(-1 0 0 1 41 30)" fill="#8E5723"/>
<rect width="1" height="1" transform="matrix(-1 0 0 1 42 30)" fill="#8E5723"/>
<rect width="1" height="1" transform="matrix(-1 0 0 1 40 25)" fill="#8E5723"/>
<rect width="1" height="1" transform="matrix(-1 0 0 1 41 24)" fill="#8E5723"/>
<rect width="1" height="1" transform="matrix(-1 0 0 1 42 23)" fill="#8E5723"/>
<rect width="1" height="1" transform="matrix(-1 0 0 1 43 22)" fill="#8E5723"/>
<rect width="1" height="2" transform="matrix(-1 0 0 1 44 21)" fill="#8E5723"/>
<rect width="1" height="2" transform="matrix(-1 0 0 1 46 19)" fill="#8E5723"/>
<rect width="1" height="1" transform="matrix(-1 0 0 1 48 17)" fill="#8E5723"/>
<rect width="3" height="1" transform="matrix(-1 0 0 1 59 21)" fill="#B6854E"/>
<rect width="2" height="1" transform="matrix(-1 0 0 1 60 20)" fill="#B6854E"/>
<rect width="1" height="1" transform="matrix(-1 0 0 1 58 19)" fill="#B6854E"/>
<rect width="1" height="1" transform="matrix(-1 0 0 1 55 20)" fill="#8E5723"/>
<rect width="2" height="1" transform="matrix(-1 0 0 1 54 19)" fill="#8E5723"/>
<rect width="1" height="1" transform="matrix(-1 0 0 1 52 18)" fill="#8E5723"/>
<rect width="1" height="1" transform="matrix(-1 0 0 1 50 17)" fill="#8E5723"/>
<rect width="1" height="1" transform="matrix(-1 0 0 1 49 19)" fill="#8E5723"/>
<rect width="1" height="1" transform="matrix(-1 0 0 1 48 20)" fill="#8E5723"/>
<rect width="1" height="2" transform="matrix(-1 0 0 1 47 22)" fill="#8E5723"/>
<rect width="1" height="1" transform="matrix(-1 0 0 1 45 21)" fill="#8E5723"/>
<rect width="1" height="2" transform="matrix(-1 0 0 1 46 23)" fill="#8E5723"/>
<rect width="1" height="3" transform="matrix(-1 0 0 1 40 28)" fill="#8E5723"/>
<rect width="1" height="1" transform="matrix(-1 0 0 1 36 33)" fill="#8E5723"/>
<rect width="2" height="1" transform="matrix(-1 0 0 1 36 31)" fill="#8E5723"/>
<rect width="1" height="3" transform="matrix(-1 0 0 1 34 37)" fill="#8E5723"/>
<rect width="1" height="2" transform="matrix(-1 0 0 1 35 36)" fill="#8E5723"/>
<rect width="1" height="2" transform="matrix(-1 0 0 1 36 35)" fill="#8E5723"/>
<rect width="1" height="3" transform="matrix(-1 0 0 1 38 37)" fill="#8E5723"/>
<rect width="1" height="6" transform="matrix(-1 0 0 1 37 30)" fill="#8E5723"/>
<rect width="1" height="5" transform="matrix(-1 0 0 1 38 30)" fill="#8E5723"/>
<rect width="1" height="7" transform="matrix(-1 0 0 1 39 31)" fill="#8E5723"/>
<rect width="1" height="1" transform="matrix(-1 0 0 1 32 46)" fill="#8E5723"/>
<rect width="1" height="1" transform="matrix(-1 0 0 1 68 16)" fill="#8E5723"/>
<rect width="1" height="1" transform="matrix(-1 0 0 1 73 21)" fill="#8E5723"/>
<rect width="1" height="1" transform="matrix(-1 0 0 1 74 20)" fill="#8E5723"/>
<rect width="1" height="1" transform="matrix(-1 0 0 1 75 19)" fill="#8E5723"/>
<rect width="1" height="2" transform="matrix(-1 0 0 1 71 22)" fill="#8E5723"/>
<rect width="6" height="1" transform="matrix(-1 0 0 1 73 13)" fill="#8E5723"/>
<rect width="6" height="1" transform="matrix(-1 0 0 1 73 12)" fill="#8E5723"/>
<rect width="10" height="1" transform="matrix(-1 0 0 1 71 11)" fill="#8E5723"/>
<rect width="6" height="1" transform="matrix(-1 0 0 1 69 10)" fill="#8E5723"/>
<rect width="3" height="1" transform="matrix(-1 0 0 1 67 9)" fill="#8E5723"/>
<rect width="2" height="1" transform="matrix(-1 0 0 1 67 12)" fill="#8E5723"/>
<rect width="1" height="1" transform="matrix(-1 0 0 1 62 12)" fill="#8E5723"/>
<rect width="3" height="8" transform="matrix(-1 0 0 1 30 40)" fill="#FFDE13"/>
<rect width="1" height="12" transform="matrix(-1 0 0 1 31 35)" fill="#FFDE13"/>
<rect width="1" height="4" transform="matrix(-1 0 0 1 32 42)" fill="#FFDE13"/>
<rect width="1" height="3" transform="matrix(-1 0 0 1 33 42)" fill="#FFDE13"/>
<rect width="1" height="4" transform="matrix(-1 0 0 1 34 40)" fill="#FFDE13"/>
<rect width="1" height="4" transform="matrix(-1 0 0 1 35 38)" fill="#FFDE13"/>
<rect width="1" height="8" transform="matrix(-1 0 0 1 32 30)" fill="#FFDE13"/>
<rect width="1" height="5" transform="matrix(-1 0 0 1 33 30)" fill="#FFDE13"/>
<rect width="1" height="1" transform="matrix(-1 0 0 1 31 30)" fill="#FFEE89"/>
<rect width="3" height="1" transform="matrix(-1 0 0 1 34 30)" fill="#FFEE89"/>
<rect width="1" height="6" transform="matrix(-1 0 0 1 30 34)" fill="#FFDE13"/>
<rect width="1" height="5" transform="matrix(-1 0 0 1 29 35)" fill="#FFDE13"/>
<rect width="1" height="2" transform="matrix(-1 0 0 1 28 38)" fill="#FFDE13"/>
<rect width="1" height="2" transform="matrix(-1 0 0 1 31 33)" fill="#FFDE13"/>
<rect width="1" height="1" transform="matrix(-1 0 0 1 29 34)" fill="#FFEE89"/>
<rect width="1" height="2" transform="matrix(-1 0 0 1 28 36)" fill="#FFEE89"/>
<rect width="1" height="2" transform="matrix(-1 0 0 1 27 38)" fill="#FFEE89"/>
<rect width="1" height="2" transform="matrix(-1 0 0 1 26 40)" fill="#FFEE89"/>
<rect width="1" height="3" transform="matrix(-1 0 0 1 25 43)" fill="#FFEE89"/>
<rect width="1" height="8" transform="matrix(-1 0 0 1 27 40)" fill="#FFDE13"/>
<rect width="1" height="5" transform="matrix(-1 0 0 1 26 42)" fill="#FFDE13"/>
<rect width="1" height="3" transform="matrix(-1 0 0 1 30 30)" fill="#FFDE13"/>
<rect width="1" height="2" transform="matrix(-1 0 0 1 31 31)" fill="#FFDE13"/>
<rect width="1" height="1" transform="matrix(-1 0 0 1 29 31)" fill="#FFDE13"/>
<rect width="1" height="3" transform="matrix(-1 0 0 1 34 31)" fill="#FFDE13"/>
<rect width="1" height="2" transform="matrix(-1 0 0 1 35 32)" fill="#FFDE13"/>
<rect width="2" height="1" transform="matrix(-1 0 0 1 36 30)" fill="#FFEE89"/>
<rect width="1" height="1" transform="matrix(-1 0 0 1 36 32)" fill="#FFDE13"/>
<rect width="1" height="4" transform="matrix(-1 0 0 1 36 37)" fill="#FFDE13"/>
<rect width="1" height="4" transform="matrix(-1 0 0 1 37 36)" fill="#FFDE13"/>
<rect width="1" height="2" transform="matrix(-1 0 0 1 38 35)" fill="#FFDE13"/>
<rect width="1" height="5" transform="matrix(-1 0 0 1 39 26)" fill="#FFDE13"/>
<rect width="2" height="1" transform="matrix(-1 0 0 1 38 29)" fill="#FFDE13"/>
<rect width="1" height="1" transform="matrix(-1 0 0 1 38 28)" fill="#FFDE13"/>
<rect width="1" height="5" transform="matrix(-1 0 0 1 35 46)" fill="black"/>
<rect width="1" height="6" transform="matrix(-1 0 0 1 36 44)" fill="black"/>
<rect width="1" height="4" transform="matrix(-1 0 0 1 34 47)" fill="black"/>
<rect width="1" height="2" transform="matrix(-1 0 0 1 33 48)" fill="black"/>
<rect width="1" height="2" transform="matrix(-1 0 0 1 32 47)" fill="black"/>
<rect width="1" height="2" transform="matrix(-1 0 0 1 33 45)" fill="black"/>
<rect width="1" height="1" transform="matrix(-1 0 0 1 34 44)" fill="black"/>
<rect width="1" height="1" transform="matrix(-1 0 0 1 39 47)" fill="black"/>
<rect width="1" height="1" transform="matrix(-1 0 0 1 37 48)" fill="black"/>
<rect width="9" height="1" transform="matrix(-1 0 0 1 50 28)" fill="black"/>
<rect width="8" height="1" transform="matrix(-1 0 0 1 49 29)" fill="black"/>
<rect width="5" height="1" transform="matrix(-1 0 0 1 48 30)" fill="black"/>
<rect width="3" height="1" transform="matrix(-1 0 0 1 47 31)" fill="black"/>
<rect width="8" height="1" transform="matrix(-1 0 0 1 49 27)" fill="black"/>
<rect width="7" height="1" transform="matrix(-1 0 0 1 48 26)" fill="black"/>
<rect width="6" height="1" transform="matrix(-1 0 0 1 47 25)" fill="black"/>
<rect width="3" height="1" transform="matrix(-1 0 0 1 45 24)" fill="black"/>
<rect width="1" height="2" transform="matrix(-1 0 0 1 35 42)" fill="black"/>
<rect width="2" height="2" transform="matrix(-1 0 0 1 37 41)" fill="black"/>
<rect width="2" height="5" transform="matrix(-1 0 0 1 38 43)" fill="black"/>
<rect width="4" height="1" transform="matrix(-1 0 0 1 74 32)" fill="#F0B26D"/>
<rect width="3" height="1" transform="matrix(-1 0 0 1 69 36)" fill="#F0B26D"/>
<rect width="2" height="1" transform="matrix(-1 0 0 1 69 35)" fill="#F0B26D"/>
<rect width="1" height="1" transform="matrix(-1 0 0 1 69 34)" fill="#F0B26D"/>
<rect width="1" height="2" transform="matrix(-1 0 0 1 64 38)" fill="#F0B26D"/>
<rect width="2" height="10" transform="matrix(-1 0 0 1 61 21)" fill="#F0B26D"/>
<rect width="1" height="2" transform="matrix(-1 0 0 1 59 29)" fill="#F0B26D"/>
<rect width="1" height="12" transform="matrix(-1 0 0 1 62 18)" fill="#F0B26D"/>
<rect width="1" height="11" transform="matrix(-1 0 0 1 63 18)" fill="#F0B26D"/>
<rect width="1" height="10" transform="matrix(-1 0 0 1 64 18)" fill="#F0B26D"/>
<rect width="1" height="9" transform="matrix(-1 0 0 1 65 18)" fill="#F0B26D"/>
<rect width="1" height="8" transform="matrix(-1 0 0 1 66 18)" fill="#F0B26D"/>
<rect width="1" height="7" transform="matrix(-1 0 0 1 67 19)" fill="#F0B26D"/>
<rect width="1" height="6" transform="matrix(-1 0 0 1 68 19)" fill="#F0B26D"/>
<rect width="1" height="4" transform="matrix(-1 0 0 1 69 20)" fill="#F0B26D"/>
<rect width="1" height="3" transform="matrix(-1 0 0 1 70 20)" fill="#F0B26D"/>
<rect width="1" height="2" transform="matrix(-1 0 0 1 71 20)" fill="#F0B26D"/>
<rect width="1" height="1" transform="matrix(-1 0 0 1 70 18)" fill="#F0B26D"/>
<rect width="1" height="1" transform="matrix(-1 0 0 1 69 17)" fill="#F0B26D"/>
<rect width="1" height="4" transform="matrix(-1 0 0 1 67 13)" fill="#F0B26D"/>
<rect width="1" height="2" transform="matrix(-1 0 0 1 68 14)" fill="#F0B26D"/>
<rect width="1" height="3" transform="matrix(-1 0 0 1 66 13)" fill="#F0B26D"/>
<rect width="1" height="3" transform="matrix(-1 0 0 1 65 12)" fill="#F0B26D"/>
<rect width="1" height="3" transform="matrix(-1 0 0 1 64 12)" fill="#F0B26D"/>
<rect width="1" height="2" transform="matrix(-1 0 0 1 63 12)" fill="#F0B26D"/>
<rect width="2" height="1" transform="matrix(-1 0 0 1 62 13)" fill="#F0B26D"/>
<rect width="1" height="2" transform="matrix(-1 0 0 1 61 11)" fill="#F0B26D"/>
<rect width="1" height="2" transform="matrix(-1 0 0 1 61 17)" fill="#F0B26D"/>
<rect width="1" height="2" transform="matrix(-1 0 0 1 60 17)" fill="#F0B26D"/>
<rect width="1" height="2" transform="matrix(-1 0 0 1 59 17)" fill="#F0B26D"/>
<rect width="1" height="2" transform="matrix(-1 0 0 1 58 17)" fill="#F0B26D"/>
<rect width="3" height="1" transform="matrix(-1 0 0 1 61 19)" fill="#F0B26D"/>
<rect width="1" height="1" transform="matrix(-1 0 0 1 61 20)" fill="#F0B26D"/>
<rect width="1" height="1" transform="matrix(-1 0 0 1 59 22)" fill="#F0B26D"/>
<rect width="1" height="1" transform="matrix(-1 0 0 1 57 22)" fill="#F0B26D"/>
<rect width="2" height="1" transform="matrix(-1 0 0 1 58 22)" fill="#F0B26D"/>
<rect width="3" height="1" transform="matrix(-1 0 0 1 59 23)" fill="#F0B26D"/>
<rect width="2" height="1" transform="matrix(-1 0 0 1 59 24)" fill="#F0B26D"/>
<rect width="1" height="1" transform="matrix(-1 0 0 1 59 25)" fill="#F0B26D"/>
<rect width="1" height="1" transform="matrix(-1 0 0 1 58 30)" fill="#F0B26D"/>
<rect width="9" height="1" transform="matrix(-1 0 0 1 67 46)" fill="#F0B26D"/>
<rect width="4" height="1" transform="matrix(-1 0 0 1 64 47)" fill="#F0B26D"/>
<rect width="2" height="1" transform="matrix(-1 0 0 1 57 44)" fill="#F0B26D"/>
<rect width="1" height="1" transform="matrix(-1 0 0 1 57 45)" fill="#F0B26D"/>
<rect width="1" height="1" transform="matrix(-1 0 0 1 55 42)" fill="#F0B26D"/>
<rect width="1" height="1" transform="matrix(-1 0 0 1 52 39)" fill="#F0B26D"/>
<rect width="10" height="1" transform="matrix(-1 0 0 1 60 38)" fill="#F0B26D"/>
<rect width="8" height="1" transform="matrix(-1 0 0 1 58 37)" fill="#F0B26D"/>
<rect width="12" height="1" transform="matrix(-1 0 0 1 47 50)" fill="#F0B26D"/>
<rect width="11" height="1" transform="matrix(-1 0 0 1 46 51)" fill="#F0B26D"/>
<rect width="9" height="1" transform="matrix(-1 0 0 1 45 52)" fill="#F0B26D"/>
<rect width="7" height="1" transform="matrix(-1 0 0 1 44 53)" fill="#F0B26D"/>
<rect width="5" height="1" transform="matrix(-1 0 0 1 43 54)" fill="#F0B26D"/>
<rect width="2" height="1" transform="matrix(-1 0 0 1 42 55)" fill="#F0B26D"/>
<rect width="1" height="4" transform="matrix(-1 0 0 1 41 25)" fill="#F0B26D"/>
<rect width="1" height="2" transform="matrix(-1 0 0 1 40 26)" fill="#F0B26D"/>
<rect width="1" height="1" transform="matrix(-1 0 0 1 42 24)" fill="#F0B26D"/>
<rect width="2" height="1" transform="matrix(-1 0 0 1 44 23)" fill="#F0B26D"/>
<rect width="1" height="1" transform="matrix(-1 0 0 1 36 43)" fill="#F0B26D"/>
<rect width="1" height="2" transform="matrix(-1 0 0 1 35 44)" fill="#F0B26D"/>
<rect width="1" height="2" transform="matrix(-1 0 0 1 34 45)" fill="#F0B26D"/>
<rect width="1" height="1" transform="matrix(-1 0 0 1 33 47)" fill="#F0B26D"/>
<rect width="11" height="1" transform="matrix(-1 0 0 1 47 49)" fill="#F0B26D"/>
<rect width="10" height="1" transform="matrix(-1 0 0 1 47 48)" fill="#F0B26D"/>
<rect width="7" height="1" transform="matrix(-1 0 0 1 47 47)" fill="#F0B26D"/>
<rect width="6" height="1" transform="matrix(-1 0 0 1 47 46)" fill="#F0B26D"/>
<rect width="6" height="1" transform="matrix(-1 0 0 1 47 45)" fill="#F0B26D"/>
<rect width="5" height="1" transform="matrix(-1 0 0 1 47 44)" fill="#F0B26D"/>
<rect width="5" height="1" transform="matrix(-1 0 0 1 47 43)" fill="#F0B26D"/>
<rect width="4" height="1" transform="matrix(-1 0 0 1 47 42)" fill="#F0B26D"/>
<rect width="2" height="1" transform="matrix(-1 0 0 1 46 41)" fill="#F0B26D"/>
<rect width="8" height="1" transform="matrix(-1 0 0 1 57 36)" fill="#F0B26D"/>
<rect width="7" height="1" transform="matrix(-1 0 0 1 56 35)" fill="#F0B26D"/>
<rect width="7" height="1" transform="matrix(-1 0 0 1 55 34)" fill="#F0B26D"/>
<rect width="6" height="1" transform="matrix(-1 0 0 1 54 33)" fill="#F0B26D"/>
<rect width="1" height="1" transform="matrix(-1 0 0 1 48 32)" fill="#F0B26D"/>
<rect width="6" height="1" transform="matrix(-1 0 0 1 53 32)" fill="#F0B26D"/>
<rect width="5" height="1" transform="matrix(-1 0 0 1 52 31)" fill="#F0B26D"/>
<rect width="3" height="1" transform="matrix(-1 0 0 1 51 30)" fill="#F0B26D"/>
<rect width="1" height="1" transform="matrix(-1 0 0 1 50 29)" fill="#F0B26D"/>
<rect width="10" height="2" transform="matrix(-1 0 0 1 62 39)" fill="#F0B26D"/>
<rect width="2" height="1" transform="matrix(-1 0 0 1 64 41)" fill="#F0B26D"/>
<rect opacity="0.75" width="2" height="1" transform="matrix(-1 0 0 1 64 40)" fill="#F0B26D"/>
<rect width="1" height="1" transform="matrix(-1 0 0 1 63 39)" fill="#B6854E"/>
<rect width="5" height="1" transform="matrix(-1 0 0 1 61 31)" fill="#D09757"/>
<rect width="5" height="1" transform="matrix(-1 0 0 1 60 32)" fill="#B6854E"/>
<rect width="4" height="1" transform="matrix(-1 0 0 1 59 33)" fill="#B6854E"/>
<rect width="4" height="1" transform="matrix(-1 0 0 1 59 34)" fill="#B6854E"/>
<rect width="2" height="1" transform="matrix(-1 0 0 1 58 35)" fill="#B6854E"/>
<rect width="2" height="1" transform="matrix(-1 0 0 1 53 41)" fill="#845E34"/>
<rect width="1" height="3" transform="matrix(-1 0 0 1 41 47)" fill="#B6854E"/>
<rect width="1" height="1" transform="matrix(-1 0 0 1 42 49)" fill="#B6854E"/>
<rect width="3" height="1" transform="matrix(-1 0 0 1 54 42)" fill="#845E34"/>
<rect width="4" height="1" transform="matrix(-1 0 0 1 55 43)" fill="#845E34"/>
<rect width="3" height="1" transform="matrix(-1 0 0 1 55 44)" fill="#845E34"/>
<rect width="4" height="1" transform="matrix(-1 0 0 1 56 45)" fill="#845E34"/>
<rect width="2" height="1" transform="matrix(-1 0 0 1 54 46)" fill="#845E34"/>
<rect width="2" height="1" transform="matrix(-1 0 0 1 54 47)" fill="#845E34"/>
<rect width="1" height="2" transform="matrix(-1 0 0 1 53 48)" fill="#845E34"/>
<rect width="2" height="1" transform="matrix(-1 0 0 1 64 40)" fill="#B6854E"/>
<rect width="9" height="1" transform="matrix(-1 0 0 1 62 41)" fill="#F0B26D"/>
<rect width="1" height="1" transform="matrix(-1 0 0 1 72 42)" fill="#F0B26D"/>
<rect width="1" height="1" transform="matrix(-1 0 0 1 70 44)" fill="#F0B26D"/>
<rect width="9" height="1" transform="matrix(-1 0 0 1 73 41)" fill="#F0B26D"/>
<rect width="10" height="2" transform="matrix(-1 0 0 1 74 39)" fill="#F0B26D"/>
<rect width="5" height="2" transform="matrix(-1 0 0 1 69 37)" fill="#F0B26D"/>
<rect width="12" height="2" transform="matrix(-1 0 0 1 69 44)" fill="#F0B26D"/>
<rect width="16" height="2" transform="matrix(-1 0 0 1 71 42)" fill="#F0B26D"/>
<rect width="6" height="6" transform="matrix(-1 0 0 1 75 33)" fill="#F0B26D"/>
<rect width="1" height="4" transform="matrix(-1 0 0 1 32 38)" fill="#FFDE13"/>
<rect width="1" height="4" transform="matrix(-1 0 0 1 32 38)" fill="#FFDE13"/>
<rect width="1" height="4" transform="matrix(-1 0 0 1 33 36)" fill="#FFEE89"/>
<rect width="1" height="2" transform="matrix(-1 0 0 1 34 35)" fill="#FFEE89"/>
<rect width="1" height="1" transform="matrix(-1 0 0 1 35 35)" fill="#FFEE89"/>
<rect width="1" height="1" transform="matrix(-1 0 0 1 36 34)" fill="#FFDE13"/>
<rect width="1" height="1" transform="matrix(-1 0 0 1 40 31)" fill="#FFDE13"/>
<rect width="1" height="1" transform="matrix(-1 0 0 1 41 29)" fill="#FFDE13"/>
<rect width="1" height="1" transform="matrix(-1 0 0 1 41 29)" fill="#FFDE13"/>
<rect width="1" height="1" transform="matrix(-1 0 0 1 41 29)" fill="#FFDE13"/>
<rect width="1" height="2" transform="matrix(-1 0 0 1 45 22)" fill="#FFDE13"/>
<rect width="1" height="2" transform="matrix(-1 0 0 1 46 21)" fill="#FFDE13"/>
<rect width="1" height="3" transform="matrix(-1 0 0 1 47 19)" fill="#FFDE13"/>
<rect width="1" height="2" transform="matrix(-1 0 0 1 48 18)" fill="#FFDE13"/>
<rect width="1" height="2" transform="matrix(-1 0 0 1 45 19)" fill="#FFDE13"/>
<rect width="1" height="2" transform="matrix(-1 0 0 1 44 19)" fill="#FFDE13"/>
<rect width="1" height="2" transform="matrix(-1 0 0 1 43 20)" fill="#FFDE13"/>
<rect width="1" height="2" transform="matrix(-1 0 0 1 42 21)" fill="#FFDE13"/>
<rect width="1" height="1" transform="matrix(-1 0 0 1 41 23)" fill="#FFDE13"/>
<rect width="1" height="1" transform="matrix(-1 0 0 1 40 24)" fill="#FFDE13"/>
<rect width="2" height="1" transform="matrix(-1 0 0 1 46 18)" fill="#FFDE13"/>
<rect width="1" height="2" transform="matrix(-1 0 0 1 47 17)" fill="#FFDE13"/>
<rect width="1" height="1" transform="matrix(-1 0 0 1 46 17)" fill="#FFDE13"/>
<rect width="1" height="2" transform="matrix(-1 0 0 1 49 17)" fill="#FFDE13"/>
<rect width="1" height="2" transform="matrix(-1 0 0 1 50 18)" fill="#FFDE13"/>
<rect width="3" height="1" transform="matrix(-1 0 0 1 55 18)" fill="#FFDE13"/>
<rect width="2" height="1" transform="matrix(-1 0 0 1 56 19)" fill="#FFDE13"/>
<rect width="3" height="1" transform="matrix(-1 0 0 1 58 20)" fill="#FFDE13"/>
<rect width="3" height="1" transform="matrix(-1 0 0 1 54 17)" fill="#FFDE13"/>
<rect width="7" height="1" transform="matrix(-1 0 0 1 53 16)" fill="#FFDE13"/>
<rect width="5" height="1" transform="matrix(-1 0 0 1 52 15)" fill="#FFDE13"/>
<rect width="1" height="2" transform="matrix(-1 0 0 1 51 17)" fill="#FFDE13"/>
<rect width="1" height="1" transform="matrix(-1 0 0 1 33 41)" fill="#F3ED76"/>
<rect width="1" height="1" transform="matrix(-1 0 0 1 33 41)" fill="#FFDE13"/>
<rect width="1" height="1" transform="matrix(-1 0 0 1 37 40)" fill="#FFDE13"/>
<rect width="1" height="9" transform="matrix(-1 0 0 1 62 65)" fill="white"/>
<rect width="1" height="3" transform="matrix(-1 0 0 1 61 71)" fill="white"/>
<rect width="1" height="6" transform="matrix(-1 0 0 1 63 68)" fill="white"/>
<rect width="1" height="3" transform="matrix(-1 0 0 1 64 71)" fill="white"/>
</g>
<defs>
<clipPath id="clip0_1771_5925">
<rect width="111" height="74" fill="white" transform="matrix(-1 0 0 1 111 0)"/>
</clipPath>
</defs>
</svg>
