<svg width="111" height="74" viewBox="0 0 111 74" fill="none" xmlns="http://www.w3.org/2000/svg">
<g clip-path="url(#clip0_1760_3911)">
<rect width="111" height="74" fill="#FFA4D2"/>
<rect x="37" y="70" width="1" height="4" fill="white"/>
<rect x="38" y="66" width="1" height="8" fill="white"/>
<rect x="39" y="63" width="1" height="11" fill="white"/>
<rect x="39" y="43" width="1" height="17" fill="white"/>
<rect x="38" y="42" width="1" height="11" fill="white"/>
<rect x="37" y="41" width="1" height="9" fill="white"/>
<rect x="36" y="39" width="1" height="8" fill="white"/>
<rect x="35" y="36" width="1" height="8" fill="white"/>
<rect x="34" y="35" width="1" height="7" fill="white"/>
<rect x="35" y="33" width="1" height="3" fill="white"/>
<rect x="36" y="32" width="1" height="1" fill="white"/>
<rect x="37" y="31" width="4" height="1" fill="white"/>
<rect x="41" y="32" width="1" height="1" fill="white"/>
<rect x="38" y="30" width="1" height="1" fill="white"/>
<rect x="39" y="29" width="1" height="1" fill="white"/>
<rect x="40" y="28" width="2" height="1" fill="white"/>
<rect x="43" y="31" width="1" height="1" fill="white"/>
<rect x="44" y="32" width="1" height="1" fill="white"/>
<rect x="45" y="33" width="1" height="1" fill="white"/>
<rect x="45" y="36" width="1" height="1" fill="white"/>
<rect x="46" y="34" width="1" height="3" fill="white"/>
<rect x="47" y="35" width="1" height="3" fill="white"/>
<rect x="48" y="37" width="1" height="2" fill="white"/>
<rect x="49" y="38" width="2" height="1" fill="white"/>
<rect x="41" y="27" width="6" height="1" fill="white"/>
<rect x="42" y="26" width="4" height="1" fill="white"/>
<rect x="42" y="25" width="2" height="1" fill="white"/>
<rect x="43" y="17" width="5" height="1" fill="white"/>
<rect x="42" y="18" width="3" height="1" fill="white"/>
<rect x="45" y="16" width="2" height="1" fill="white"/>
<rect x="46" y="15" width="2" height="1" fill="white"/>
<rect x="48" y="14" width="2" height="1" fill="white"/>
<rect x="51" y="13" width="2" height="1" fill="white"/>
<rect x="53" y="14" width="1" height="2" fill="white"/>
<rect x="50" y="16" width="2" height="1" fill="white"/>
<rect x="50" y="14" width="1" height="2" fill="white"/>
<rect x="52" y="16" width="1" height="1" fill="white"/>
<rect x="51" y="14" width="1" height="1" fill="white"/>
<rect x="48" y="17" width="2" height="1" fill="white"/>
<rect x="40" y="19" width="3" height="1" fill="white"/>
<rect x="42" y="28" width="6" height="1" fill="white"/>
<rect x="43" y="29" width="6" height="1" fill="white"/>
<rect x="44" y="30" width="6" height="1" fill="white"/>
<rect x="54" y="30" width="6" height="1" fill="white"/>
<rect x="53" y="29" width="3" height="1" fill="white"/>
<rect x="55" y="31" width="4" height="1" fill="white"/>
<rect x="56" y="32" width="2" height="1" fill="white"/>
<rect x="56" y="33" width="1" height="1" fill="white"/>
<rect x="52" y="28" width="2" height="1" fill="white"/>
<rect x="52" y="27" width="1" height="1" fill="white"/>
<rect x="46" y="31" width="4" height="1" fill="white"/>
<rect x="47" y="32" width="4" height="1" fill="white"/>
<rect x="48" y="33" width="4" height="1" fill="white"/>
<rect x="49" y="34" width="3" height="1" fill="white"/>
<rect x="50" y="35" width="3" height="1" fill="white"/>
<rect x="51" y="36" width="3" height="1" fill="white"/>
<rect x="52" y="37" width="1" height="1" fill="white"/>
<rect x="40" y="44" width="1" height="30" fill="white"/>
<rect x="41" y="45" width="1" height="28" fill="white"/>
<rect x="42" y="46" width="1" height="26" fill="white"/>
<rect x="43" y="46" width="1" height="22" fill="white"/>
<rect x="44" y="47" width="1" height="15" fill="white"/>
<rect x="46" y="47" width="1" height="23" fill="white"/>
<rect x="45" y="63" width="1" height="10" fill="white"/>
<rect x="44" y="69" width="1" height="4" fill="white"/>
<rect x="43" y="73" width="2" height="1" fill="white"/>
<rect x="47" y="48" width="1" height="19" fill="white"/>
<rect x="48" y="48" width="1" height="16" fill="white"/>
<rect x="50" y="48" width="2" height="23" fill="white"/>
<rect x="52" y="49" width="1" height="17" fill="white"/>
<rect x="51" y="47" width="1" height="1" fill="white"/>
<rect x="53" y="46" width="4" height="2" fill="white"/>
<rect x="54" y="48" width="4" height="4" fill="white"/>
<rect x="54" y="53" width="4" height="9" fill="white"/>
<rect x="54" y="52" width="3" height="1" fill="white"/>
<rect x="58" y="50" width="1" height="2" fill="white"/>
<rect x="60" y="39" width="1" height="5" fill="white"/>
<rect x="63" y="34" width="1" height="27" fill="white"/>
<rect x="62" y="35" width="1" height="6" fill="white"/>
<rect x="64" y="36" width="1" height="6" fill="white"/>
<rect x="65" y="38" width="1" height="3" fill="white"/>
<rect x="66" y="39" width="1" height="1" fill="white"/>
<rect x="59" y="40" width="1" height="1" fill="white"/>
<rect x="62" y="52" width="1" height="5" fill="white"/>
<rect x="64" y="57" width="1" height="6" fill="white"/>
<rect x="65" y="59" width="1" height="6" fill="white"/>
<rect x="66" y="61" width="1" height="6" fill="white"/>
<rect x="67" y="63" width="1" height="6" fill="white"/>
<rect x="68" y="65" width="1" height="5" fill="white"/>
<rect x="69" y="66" width="1" height="5" fill="white"/>
<rect x="70" y="68" width="1" height="3" fill="white"/>
<rect x="71" y="69" width="1" height="2" fill="white"/>
<rect x="52" y="72" width="1" height="2" fill="white"/>
<rect x="53" y="73" width="3" height="1" fill="white"/>
<rect x="54" y="66" width="4" height="1" fill="white"/>
<rect x="56" y="67" width="2" height="1" fill="white"/>
<rect x="59" y="66" width="5" height="1" fill="white"/>
<rect x="63" y="64" width="1" height="2" fill="white"/>
<rect x="59" y="67" width="6" height="1" fill="white"/>
<rect x="60" y="68" width="6" height="1" fill="white"/>
<rect x="61" y="69" width="5" height="1" fill="white"/>
<rect x="62" y="70" width="5" height="1" fill="white"/>
<rect x="63" y="71" width="8" height="1" fill="white"/>
<rect x="64" y="72" width="5" height="1" fill="white"/>
<rect x="56" y="68" width="1" height="4" fill="white"/>
<rect x="53" y="67" width="3" height="6" fill="white"/>
<rect x="61" y="42" width="1" height="9" fill="white"/>
<rect x="62" y="42" width="1" height="2" fill="white"/>
<rect x="61" y="37" width="1" height="4" fill="white"/>
<rect x="59" y="52" width="2" height="6" fill="white"/>
<rect x="59" y="44" width="2" height="8" fill="white"/>
<rect x="58" y="53" width="1" height="5" fill="white"/>
<rect x="54" y="62" width="3" height="1" fill="white"/>
<rect x="59" y="62" width="4" height="1" fill="white"/>
<rect x="58" y="58" width="4" height="4" fill="white"/>
<rect x="54" y="63" width="9" height="3" fill="white"/>
<rect x="51" y="71" width="1" height="3" fill="#4B50C3"/>
<rect x="57" y="62" width="2" height="1" fill="#4B50C3"/>
<rect x="57" y="52" width="2" height="1" fill="#4B50C3"/>
<rect x="61" y="41" width="2" height="1" fill="#4B50C3"/>
<rect x="62" y="44" width="1" height="8" fill="#4B50C3"/>
<rect x="61" y="51" width="1" height="7" fill="#4B50C3"/>
<rect x="62" y="57" width="1" height="5" fill="#4B50C3"/>
<rect x="63" y="61" width="1" height="3" fill="#4B50C3"/>
<rect x="64" y="63" width="1" height="4" fill="#4B50C3"/>
<rect x="65" y="65" width="1" height="3" fill="#4B50C3"/>
<rect x="66" y="67" width="1" height="3" fill="#4B50C3"/>
<rect x="67" y="69" width="1" height="2" fill="#4B50C3"/>
<rect x="68" y="70" width="1" height="1" fill="#4B50C3"/>
<rect x="71" y="71" width="2" height="1" fill="#4B50C3"/>
<rect x="69" y="72" width="6" height="1" fill="#4B50C3"/>
<rect x="58" y="66" width="1" height="8" fill="#4B50C3"/>
<rect x="59" y="68" width="1" height="6" fill="#4B50C3"/>
<rect x="60" y="69" width="1" height="5" fill="#4B50C3"/>
<rect x="61" y="70" width="1" height="4" fill="#4B50C3"/>
<rect x="62" y="71" width="1" height="3" fill="#4B50C3"/>
<rect x="63" y="72" width="1" height="2" fill="#4B50C3"/>
<rect x="64" y="73" width="12" height="1" fill="#4B50C3"/>
<rect x="57" y="68" width="1" height="6" fill="#4B50C3"/>
<rect x="56" y="72" width="1" height="2" fill="#4B50C3"/>
<rect x="48" y="64" width="1" height="4" fill="#4B50C3"/>
<rect x="47" y="67" width="1" height="4" fill="#4B50C3"/>
<rect x="46" y="70" width="1" height="4" fill="#4B50C3"/>
<rect x="43" y="68" width="1" height="4" fill="#4B50C3"/>
<rect x="44" y="62" width="1" height="7" fill="#4B50C3"/>
<rect x="45" y="47" width="1" height="16" fill="#4B50C3"/>
<rect x="45" y="73" width="1" height="1" fill="#4B50C3"/>
<rect x="41" y="73" width="2" height="1" fill="#4B50C3"/>
<rect x="42" y="72" width="2" height="1" fill="#4B50C3"/>
<rect x="52" y="47" width="1" height="2" fill="#4B50C3"/>
<rect x="45" y="34" width="1" height="2" fill="#4B50C3"/>
<rect x="44" y="33" width="1" height="3" fill="#4B50C3"/>
<rect x="43" y="32" width="1" height="3" fill="#4B50C3"/>
<rect x="42" y="29" width="1" height="5" fill="#4B50C3"/>
<rect x="41" y="29" width="1" height="3" fill="#4B50C3"/>
<rect x="40" y="29" width="1" height="2" fill="#4B50C3"/>
<rect x="39" y="30" width="1" height="1" fill="#4B50C3"/>
<rect x="43" y="30" width="1" height="1" fill="#4B50C3"/>
<rect x="44" y="31" width="2" height="1" fill="#4B50C3"/>
<rect x="45" y="32" width="2" height="1" fill="#4B50C3"/>
<rect x="46" y="33" width="2" height="1" fill="#4B50C3"/>
<rect x="47" y="34" width="2" height="1" fill="#4B50C3"/>
<rect x="48" y="35" width="2" height="2" fill="#4B50C3"/>
<rect x="50" y="36" width="1" height="2" fill="#4B50C3"/>
<rect x="51" y="37" width="1" height="1" fill="#4B50C3"/>
<rect x="49" y="37" width="1" height="1" fill="#4B50C3"/>
<rect x="49" y="48" width="1" height="17" fill="#4B50C3"/>
<rect x="52" y="66" width="1" height="6" fill="#4B50C3"/>
<rect x="53" y="48" width="1" height="19" fill="#4B50C3"/>
<rect x="48" y="15" width="2" height="2" fill="black"/>
<rect x="47" y="16" width="1" height="1" fill="black"/>
<rect x="52" y="14" width="1" height="1" fill="black"/>
<rect x="51" y="15" width="2" height="1" fill="black"/>
<rect x="48" y="10" width="3" height="1" fill="#FFF6A0"/>
<rect x="47" y="9" width="3" height="1" fill="#FFF6A0"/>
<rect x="41" y="9" width="3" height="1" fill="#FFF6A0"/>
<rect x="39" y="10" width="3" height="1" fill="#FFF6A0"/>
<rect x="38" y="11" width="2" height="1" fill="#FFF6A0"/>
<rect x="37" y="12" width="1" height="2" fill="#FFF6A0"/>
<rect x="42" y="8" width="7" height="1" fill="#FFF6A0"/>
<rect x="44" y="7" width="4" height="1" fill="#FFF6A0"/>
<rect x="45" y="6" width="1" height="1" fill="#FFF6A0"/>
<rect x="42" y="7" width="1" height="1" fill="#FFF6A0"/>
<rect x="39" y="9" width="1" height="1" fill="#FFF6A0"/>
<rect x="37" y="11" width="1" height="1" fill="#FFF6A0"/>
<rect x="37" y="10" width="1" height="1" fill="#FFF6A0"/>
<rect x="36" y="13" width="1" height="2" fill="#FFF6A0"/>
<rect x="47" y="6" width="1" height="1" fill="#FFF6A0"/>
<rect x="42" y="8" width="7" height="1" fill="#FFF6A0"/>
<rect x="36" y="15" width="7" height="2" fill="#8E5723"/>
<rect x="37" y="14" width="6" height="1" fill="#8E5723"/>
<rect x="36" y="17" width="6" height="1" fill="#8E5723"/>
<rect x="36" y="18" width="5" height="1" fill="#8E5723"/>
<rect x="37" y="19" width="3" height="1" fill="#8E5723"/>
<rect x="38" y="20" width="2" height="1" fill="#8E5723"/>
<rect x="39" y="21" width="1" height="2" fill="#8E5723"/>
<rect x="41" y="23" width="1" height="2" fill="#8E5723"/>
<rect x="42" y="24" width="1" height="1" fill="#8E5723"/>
<rect x="75" y="29" width="8" height="1" fill="#8E5723"/>
<rect x="82" y="30" width="2" height="1" fill="#8E5723"/>
<rect x="83" y="31" width="1" height="1" fill="#8E5723"/>
<rect x="82" y="32" width="2" height="1" fill="#8E5723"/>
<rect x="81" y="33" width="2" height="1" fill="#8E5723"/>
<rect x="83" y="34" width="1" height="2" fill="#8E5723"/>
<rect x="84" y="36" width="1" height="2" fill="#8E5723"/>
<rect x="85" y="38" width="1" height="2" fill="#8E5723"/>
<rect x="86" y="40" width="1" height="3" fill="#8E5723"/>
<rect x="87" y="43" width="1" height="3" fill="#8E5723"/>
<rect x="86" y="46" width="2" height="1" fill="#8E5723"/>
<rect x="85" y="47" width="2" height="1" fill="#8E5723"/>
<rect x="80" y="48" width="5" height="1" fill="#8E5723"/>
<rect x="80" y="47" width="1" height="1" fill="#8E5723"/>
<rect x="78" y="40" width="1" height="1" fill="#8E5723"/>
<rect x="78" y="35" width="1" height="1" fill="#8E5723"/>
<rect x="77" y="34" width="1" height="1" fill="#8E5723"/>
<rect x="76" y="34" width="1" height="1" fill="#8E5723"/>
<rect x="71" y="32" width="1" height="2" fill="#8E5723"/>
<rect x="70" y="30" width="1" height="2" fill="#8E5723"/>
<rect x="69" y="30" width="1" height="1" fill="#8E5723"/>
<rect x="71" y="25" width="1" height="1" fill="#8E5723"/>
<rect x="70" y="24" width="1" height="1" fill="#8E5723"/>
<rect x="69" y="23" width="1" height="1" fill="#8E5723"/>
<rect x="68" y="22" width="1" height="1" fill="#8E5723"/>
<rect x="67" y="21" width="1" height="2" fill="#8E5723"/>
<rect x="65" y="19" width="1" height="2" fill="#8E5723"/>
<rect x="63" y="17" width="1" height="1" fill="#8E5723"/>
<rect x="52" y="21" width="3" height="1" fill="#B6854E"/>
<rect x="51" y="20" width="2" height="1" fill="#B6854E"/>
<rect x="53" y="19" width="1" height="1" fill="#B6854E"/>
<rect x="56" y="20" width="1" height="1" fill="#8E5723"/>
<rect x="57" y="19" width="2" height="1" fill="#8E5723"/>
<rect x="59" y="18" width="1" height="1" fill="#8E5723"/>
<rect x="61" y="17" width="1" height="1" fill="#8E5723"/>
<rect x="62" y="19" width="1" height="1" fill="#8E5723"/>
<rect x="63" y="20" width="1" height="1" fill="#8E5723"/>
<rect x="64" y="22" width="1" height="2" fill="#8E5723"/>
<rect x="66" y="21" width="1" height="1" fill="#8E5723"/>
<rect x="65" y="23" width="1" height="2" fill="#8E5723"/>
<rect x="71" y="28" width="1" height="3" fill="#8E5723"/>
<rect x="75" y="33" width="1" height="1" fill="#8E5723"/>
<rect x="75" y="31" width="2" height="1" fill="#8E5723"/>
<rect x="77" y="37" width="1" height="3" fill="#8E5723"/>
<rect x="76" y="36" width="1" height="2" fill="#8E5723"/>
<rect x="75" y="35" width="1" height="2" fill="#8E5723"/>
<rect x="73" y="37" width="1" height="3" fill="#8E5723"/>
<rect x="74" y="30" width="1" height="6" fill="#8E5723"/>
<rect x="73" y="30" width="1" height="5" fill="#8E5723"/>
<rect x="72" y="31" width="1" height="7" fill="#8E5723"/>
<rect x="79" y="46" width="1" height="1" fill="#8E5723"/>
<rect x="43" y="16" width="1" height="1" fill="#8E5723"/>
<rect x="38" y="21" width="1" height="1" fill="#8E5723"/>
<rect x="37" y="20" width="1" height="1" fill="#8E5723"/>
<rect x="36" y="19" width="1" height="1" fill="#8E5723"/>
<rect x="40" y="22" width="1" height="2" fill="#8E5723"/>
<rect x="38" y="13" width="6" height="1" fill="#8E5723"/>
<rect x="38" y="12" width="6" height="1" fill="#8E5723"/>
<rect x="40" y="11" width="10" height="1" fill="#8E5723"/>
<rect x="42" y="10" width="6" height="1" fill="#8E5723"/>
<rect x="44" y="9" width="3" height="1" fill="#8E5723"/>
<rect x="44" y="12" width="2" height="1" fill="#8E5723"/>
<rect x="49" y="12" width="1" height="1" fill="#8E5723"/>
<rect x="81" y="40" width="3" height="8" fill="#FFDE13"/>
<rect x="80" y="35" width="1" height="12" fill="#FFDE13"/>
<rect x="79" y="42" width="1" height="4" fill="#FFDE13"/>
<rect x="78" y="42" width="1" height="3" fill="#FFDE13"/>
<rect x="77" y="40" width="1" height="4" fill="#FFDE13"/>
<rect x="76" y="38" width="1" height="4" fill="#FFDE13"/>
<rect x="79" y="30" width="1" height="8" fill="#FFDE13"/>
<rect x="78" y="30" width="1" height="5" fill="#FFDE13"/>
<rect x="80" y="30" width="1" height="1" fill="#FFEE89"/>
<rect x="77" y="30" width="3" height="1" fill="#FFEE89"/>
<rect x="81" y="34" width="1" height="6" fill="#FFDE13"/>
<rect x="82" y="35" width="1" height="5" fill="#FFDE13"/>
<rect x="83" y="38" width="1" height="2" fill="#FFDE13"/>
<rect x="80" y="33" width="1" height="2" fill="#FFDE13"/>
<rect x="82" y="34" width="1" height="1" fill="#FFEE89"/>
<rect x="83" y="36" width="1" height="2" fill="#FFEE89"/>
<rect x="84" y="38" width="1" height="2" fill="#FFEE89"/>
<rect x="85" y="40" width="1" height="2" fill="#FFEE89"/>
<rect x="86" y="43" width="1" height="3" fill="#FFEE89"/>
<rect x="84" y="40" width="1" height="8" fill="#FFDE13"/>
<rect x="85" y="42" width="1" height="5" fill="#FFDE13"/>
<rect x="81" y="30" width="1" height="3" fill="#FFDE13"/>
<rect x="80" y="31" width="1" height="2" fill="#FFDE13"/>
<rect x="82" y="31" width="1" height="1" fill="#FFDE13"/>
<rect x="77" y="31" width="1" height="3" fill="#FFDE13"/>
<rect x="76" y="32" width="1" height="2" fill="#FFDE13"/>
<rect x="75" y="30" width="2" height="1" fill="#FFEE89"/>
<rect x="75" y="32" width="1" height="1" fill="#FFDE13"/>
<rect x="75" y="37" width="1" height="4" fill="#FFDE13"/>
<rect x="74" y="36" width="1" height="4" fill="#FFDE13"/>
<rect x="73" y="35" width="1" height="2" fill="#FFDE13"/>
<rect x="72" y="26" width="1" height="5" fill="#FFDE13"/>
<rect x="73" y="29" width="2" height="1" fill="#FFDE13"/>
<rect x="73" y="28" width="1" height="1" fill="#FFDE13"/>
<rect x="76" y="46" width="1" height="5" fill="black"/>
<rect x="75" y="44" width="1" height="6" fill="black"/>
<rect x="77" y="47" width="1" height="4" fill="black"/>
<rect x="78" y="48" width="1" height="2" fill="black"/>
<rect x="79" y="47" width="1" height="2" fill="black"/>
<rect x="78" y="45" width="1" height="2" fill="black"/>
<rect x="77" y="44" width="1" height="1" fill="black"/>
<rect x="72" y="47" width="1" height="1" fill="black"/>
<rect x="74" y="48" width="1" height="1" fill="black"/>
<rect x="61" y="28" width="9" height="1" fill="black"/>
<rect x="62" y="29" width="8" height="1" fill="black"/>
<rect x="63" y="30" width="5" height="1" fill="black"/>
<rect x="64" y="31" width="3" height="1" fill="black"/>
<rect x="62" y="27" width="8" height="1" fill="black"/>
<rect x="63" y="26" width="7" height="1" fill="black"/>
<rect x="64" y="25" width="6" height="1" fill="black"/>
<rect x="66" y="24" width="3" height="1" fill="black"/>
<rect x="76" y="42" width="1" height="2" fill="black"/>
<rect x="74" y="41" width="2" height="2" fill="black"/>
<rect x="73" y="43" width="2" height="5" fill="black"/>
<rect x="37" y="32" width="4" height="1" fill="#F0B26D"/>
<rect x="42" y="36" width="3" height="1" fill="#F0B26D"/>
<rect x="42" y="35" width="2" height="1" fill="#F0B26D"/>
<rect x="42" y="34" width="1" height="1" fill="#F0B26D"/>
<rect x="47" y="38" width="1" height="2" fill="#F0B26D"/>
<rect x="50" y="21" width="2" height="10" fill="#F0B26D"/>
<rect x="52" y="29" width="1" height="2" fill="#F0B26D"/>
<rect x="49" y="18" width="1" height="12" fill="#F0B26D"/>
<rect x="48" y="18" width="1" height="11" fill="#F0B26D"/>
<rect x="47" y="18" width="1" height="10" fill="#F0B26D"/>
<rect x="46" y="18" width="1" height="9" fill="#F0B26D"/>
<rect x="45" y="18" width="1" height="8" fill="#F0B26D"/>
<rect x="44" y="19" width="1" height="7" fill="#F0B26D"/>
<rect x="43" y="19" width="1" height="6" fill="#F0B26D"/>
<rect x="42" y="20" width="1" height="4" fill="#F0B26D"/>
<rect x="41" y="20" width="1" height="3" fill="#F0B26D"/>
<rect x="40" y="20" width="1" height="2" fill="#F0B26D"/>
<rect x="41" y="18" width="1" height="1" fill="#F0B26D"/>
<rect x="42" y="17" width="1" height="1" fill="#F0B26D"/>
<rect x="44" y="13" width="1" height="4" fill="#F0B26D"/>
<rect x="43" y="14" width="1" height="2" fill="#F0B26D"/>
<rect x="45" y="13" width="1" height="3" fill="#F0B26D"/>
<rect x="46" y="12" width="1" height="3" fill="#F0B26D"/>
<rect x="47" y="12" width="1" height="3" fill="#F0B26D"/>
<rect x="48" y="12" width="1" height="2" fill="#F0B26D"/>
<rect x="49" y="13" width="2" height="1" fill="#F0B26D"/>
<rect x="50" y="11" width="1" height="2" fill="#F0B26D"/>
<rect x="50" y="17" width="1" height="2" fill="#F0B26D"/>
<rect x="51" y="17" width="1" height="2" fill="#F0B26D"/>
<rect x="52" y="17" width="1" height="2" fill="#F0B26D"/>
<rect x="53" y="17" width="1" height="2" fill="#F0B26D"/>
<rect x="50" y="19" width="3" height="1" fill="#F0B26D"/>
<rect x="50" y="20" width="1" height="1" fill="#F0B26D"/>
<rect x="52" y="22" width="1" height="1" fill="#F0B26D"/>
<rect x="54" y="22" width="1" height="1" fill="#F0B26D"/>
<rect x="53" y="22" width="2" height="1" fill="#F0B26D"/>
<rect x="52" y="23" width="3" height="1" fill="#F0B26D"/>
<rect x="52" y="24" width="2" height="1" fill="#F0B26D"/>
<rect x="52" y="25" width="1" height="1" fill="#F0B26D"/>
<rect x="53" y="30" width="1" height="1" fill="#F0B26D"/>
<rect x="44" y="46" width="9" height="1" fill="#F0B26D"/>
<rect x="47" y="47" width="4" height="1" fill="#F0B26D"/>
<rect x="54" y="44" width="2" height="1" fill="#F0B26D"/>
<rect x="54" y="45" width="1" height="1" fill="#F0B26D"/>
<rect x="56" y="42" width="1" height="1" fill="#F0B26D"/>
<rect x="59" y="39" width="1" height="1" fill="#F0B26D"/>
<rect x="51" y="38" width="10" height="1" fill="#F0B26D"/>
<rect x="53" y="37" width="8" height="1" fill="#F0B26D"/>
<rect x="64" y="50" width="12" height="1" fill="#F0B26D"/>
<rect x="65" y="51" width="11" height="1" fill="#F0B26D"/>
<rect x="66" y="52" width="9" height="1" fill="#F0B26D"/>
<rect x="67" y="53" width="7" height="1" fill="#F0B26D"/>
<rect x="68" y="54" width="5" height="1" fill="#F0B26D"/>
<rect x="69" y="55" width="2" height="1" fill="#F0B26D"/>
<rect x="70" y="25" width="1" height="4" fill="#F0B26D"/>
<rect x="71" y="26" width="1" height="2" fill="#F0B26D"/>
<rect x="69" y="24" width="1" height="1" fill="#F0B26D"/>
<rect x="67" y="23" width="2" height="1" fill="#F0B26D"/>
<rect x="75" y="43" width="1" height="1" fill="#F0B26D"/>
<rect x="76" y="44" width="1" height="2" fill="#F0B26D"/>
<rect x="77" y="45" width="1" height="2" fill="#F0B26D"/>
<rect x="78" y="47" width="1" height="1" fill="#F0B26D"/>
<rect x="64" y="49" width="11" height="1" fill="#F0B26D"/>
<rect x="64" y="48" width="10" height="1" fill="#F0B26D"/>
<rect x="64" y="47" width="7" height="1" fill="#F0B26D"/>
<rect x="64" y="46" width="6" height="1" fill="#F0B26D"/>
<rect x="64" y="45" width="6" height="1" fill="#F0B26D"/>
<rect x="64" y="44" width="5" height="1" fill="#F0B26D"/>
<rect x="64" y="43" width="5" height="1" fill="#F0B26D"/>
<rect x="64" y="42" width="4" height="1" fill="#F0B26D"/>
<rect x="65" y="41" width="2" height="1" fill="#F0B26D"/>
<rect x="54" y="36" width="8" height="1" fill="#F0B26D"/>
<rect x="55" y="35" width="7" height="1" fill="#F0B26D"/>
<rect x="56" y="34" width="7" height="1" fill="#F0B26D"/>
<rect x="57" y="33" width="6" height="1" fill="#F0B26D"/>
<rect x="63" y="32" width="1" height="1" fill="#F0B26D"/>
<rect x="58" y="32" width="6" height="1" fill="#F0B26D"/>
<rect x="59" y="31" width="5" height="1" fill="#F0B26D"/>
<rect x="60" y="30" width="3" height="1" fill="#F0B26D"/>
<rect x="61" y="29" width="1" height="1" fill="#F0B26D"/>
<rect x="49" y="39" width="10" height="2" fill="#F0B26D"/>
<rect x="47" y="41" width="2" height="1" fill="#F0B26D"/>
<rect opacity="0.75" x="47" y="40" width="2" height="1" fill="#F0B26D"/>
<rect x="48" y="39" width="1" height="1" fill="#B6854E"/>
<rect x="50" y="31" width="5" height="1" fill="#D09757"/>
<rect x="51" y="32" width="5" height="1" fill="#B6854E"/>
<rect x="52" y="33" width="4" height="1" fill="#B6854E"/>
<rect x="52" y="34" width="4" height="1" fill="#B6854E"/>
<rect x="53" y="35" width="2" height="1" fill="#B6854E"/>
<rect x="58" y="41" width="2" height="1" fill="#845E34"/>
<rect x="70" y="47" width="1" height="3" fill="#B6854E"/>
<rect x="69" y="49" width="1" height="1" fill="#B6854E"/>
<rect x="57" y="42" width="3" height="1" fill="#845E34"/>
<rect x="56" y="43" width="4" height="1" fill="#845E34"/>
<rect x="56" y="44" width="3" height="1" fill="#845E34"/>
<rect x="55" y="45" width="4" height="1" fill="#845E34"/>
<rect x="57" y="46" width="2" height="1" fill="#845E34"/>
<rect x="57" y="47" width="2" height="1" fill="#845E34"/>
<rect x="58" y="48" width="1" height="2" fill="#845E34"/>
<rect x="47" y="40" width="2" height="1" fill="#B6854E"/>
<rect x="49" y="41" width="9" height="1" fill="#F0B26D"/>
<rect x="39" y="42" width="1" height="1" fill="#F0B26D"/>
<rect x="41" y="44" width="1" height="1" fill="#F0B26D"/>
<rect x="38" y="41" width="9" height="1" fill="#F0B26D"/>
<rect x="37" y="39" width="10" height="2" fill="#F0B26D"/>
<rect x="42" y="37" width="5" height="2" fill="#F0B26D"/>
<rect x="42" y="44" width="12" height="2" fill="#F0B26D"/>
<rect x="40" y="42" width="16" height="2" fill="#F0B26D"/>
<rect x="36" y="33" width="6" height="6" fill="#F0B26D"/>
<rect x="79" y="38" width="1" height="4" fill="#FFDE13"/>
<rect x="79" y="38" width="1" height="4" fill="#FFDE13"/>
<rect x="78" y="36" width="1" height="4" fill="#FFEE89"/>
<rect x="77" y="35" width="1" height="2" fill="#FFEE89"/>
<rect x="76" y="35" width="1" height="1" fill="#FFEE89"/>
<rect x="75" y="34" width="1" height="1" fill="#FFDE13"/>
<rect x="71" y="31" width="1" height="1" fill="#FFDE13"/>
<rect x="70" y="29" width="1" height="1" fill="#FFDE13"/>
<rect x="70" y="29" width="1" height="1" fill="#FFDE13"/>
<rect x="70" y="29" width="1" height="1" fill="#FFDE13"/>
<rect x="66" y="22" width="1" height="2" fill="#FFDE13"/>
<rect x="65" y="21" width="1" height="2" fill="#FFDE13"/>
<rect x="64" y="19" width="1" height="3" fill="#FFDE13"/>
<rect x="63" y="18" width="1" height="2" fill="#FFDE13"/>
<rect x="66" y="19" width="1" height="2" fill="#FFDE13"/>
<rect x="67" y="19" width="1" height="2" fill="#FFDE13"/>
<rect x="68" y="20" width="1" height="2" fill="#FFDE13"/>
<rect x="69" y="21" width="1" height="2" fill="#FFDE13"/>
<rect x="70" y="23" width="1" height="1" fill="#FFDE13"/>
<rect x="71" y="24" width="1" height="1" fill="#FFDE13"/>
<rect x="65" y="18" width="2" height="1" fill="#FFDE13"/>
<rect x="64" y="17" width="1" height="2" fill="#FFDE13"/>
<rect x="65" y="17" width="1" height="1" fill="#FFDE13"/>
<rect x="62" y="17" width="1" height="2" fill="#FFDE13"/>
<rect x="61" y="18" width="1" height="2" fill="#FFDE13"/>
<rect x="56" y="18" width="3" height="1" fill="#FFDE13"/>
<rect x="55" y="19" width="2" height="1" fill="#FFDE13"/>
<rect x="53" y="20" width="3" height="1" fill="#FFDE13"/>
<rect x="57" y="17" width="3" height="1" fill="#FFDE13"/>
<rect x="58" y="16" width="7" height="1" fill="#FFDE13"/>
<rect x="59" y="15" width="5" height="1" fill="#FFDE13"/>
<rect x="60" y="17" width="1" height="2" fill="#FFDE13"/>
<rect x="78" y="41" width="1" height="1" fill="#F3ED76"/>
<rect x="78" y="41" width="1" height="1" fill="#FFDE13"/>
<rect x="74" y="40" width="1" height="1" fill="#FFDE13"/>
<rect x="49" y="65" width="1" height="9" fill="white"/>
<rect x="50" y="71" width="1" height="3" fill="white"/>
<rect x="48" y="68" width="1" height="6" fill="white"/>
<rect x="47" y="71" width="1" height="3" fill="white"/>
</g>
<defs>
<clipPath id="clip0_1760_3911">
<rect width="111" height="74" fill="white"/>
</clipPath>
</defs>
</svg>
