<svg width="111" height="74" viewBox="0 0 111 74" fill="none" xmlns="http://www.w3.org/2000/svg">
<g clip-path="url(#clip0_1752_2913)">
<rect width="111" height="74" fill="#99CC66"/>
<path d="M31 37H27V43H31V37Z" fill="#0F140A"/>
<path d="M35 35H29V37H35V35Z" fill="#0F140A"/>
<path d="M35 43H29V45H35V43Z" fill="#0F140A"/>
<path d="M39 29H35V45H39V29Z" fill="#0F140A"/>
<path d="M67 37H63V43H67V37Z" fill="#0F140A"/>
<path d="M73 35H65V37H73V35Z" fill="#0F140A"/>
<path d="M71 43H65V45H71V43Z" fill="#0F140A"/>
<path d="M77 43H73V45H77V43Z" fill="#0F140A"/>
<path d="M75 37H71V43H75V37Z" fill="#0F140A"/>
<path d="M83 36H79V37H83V36Z" fill="#0F140A"/>
<path d="M83 29H79V30H83V29Z" fill="#0F140A"/>
<path d="M77 31V35H78V31H77Z" fill="#0F140A"/>
<path d="M84 31V35H85V31H84Z" fill="#0F140A"/>
<path d="M79 36V35H78V36H79Z" fill="#0F140A"/>
<path d="M84 36V35H83V36H84Z" fill="#0F140A"/>
<path d="M83 33V32H82V33H83Z" fill="#0F140A"/>
<path d="M83 35V34H82V35H83Z" fill="#0F140A"/>
<path d="M82 32V31H80V32H82Z" fill="#0F140A"/>
<path d="M82 34V33H80V34H82Z" fill="#0F140A"/>
<path d="M79 31V30H78V31H79Z" fill="#0F140A"/>
<path d="M80 35V31H79V35H80Z" fill="#0F140A"/>
<path d="M84 31V30H83V31H84Z" fill="#0F140A"/>
<path d="M53 31H49V45H53V31Z" fill="#0F140A"/>
<path d="M55 33H53V35H55V33Z" fill="#0F140A"/>
<path d="M49 33H47V35H49V33Z" fill="#0F140A"/>
<path d="M61 31H57V45H61V31Z" fill="#0F140A"/>
<path d="M63 33H61V35H63V33Z" fill="#0F140A"/>
<path d="M57 33H55V35H57V33Z" fill="#0F140A"/>
<path d="M45 35H41V45H45V35Z" fill="#0F140A"/>
<path d="M45 29H41V33H45V29Z" fill="#0F140A"/>
</g>
<defs>
<clipPath id="clip0_1752_2913">
<rect width="111" height="74" fill="white"/>
</clipPath>
</defs>
</svg>
