<svg xmlns="http://www.w3.org/2000/svg" width="111" height="74" fill="none" viewBox="0 0 111 74"><path fill="#9c6" d="M0 0h111v74H0z"/><path fill="#0f140a" fill-rule="evenodd" d="M39 29v16H29v-2h-2v-6h2v-2h6v-6zm-8 8v6h4v-6z" clip-rule="evenodd"/><path fill="#0f140a" d="M77 45h-4v-2h-2v-6h-4v6h4v2h-6v-2h-2v-6h2v-2h8v2h2v6h2zM83 36h-4v1h4zM83 29h-4v1h4zM77 31v4h1v-4zM84 31v4h1v-4zM79 36v-1h-1v1zM84 36v-1h-1v1zM83 33v-1h-1v1zM83 35v-1h-1v1zM82 32v-1h-2v1zM82 34v-1h-2v1zM79 31v-1h-1v1zM80 35v-4h-1v4zM84 31v-1h-1v1zM53 33h4v-2h4v2h2v2h-2v10h-4V35h-4v10h-4V35h-2v-2h2v-2h4zM45 35h-4v10h4zM45 29h-4v4h4z"/></svg>