<svg width="111" height="74" viewBox="0 0 111 74" fill="none" xmlns="http://www.w3.org/2000/svg">
<g clip-path="url(#clip0_1739_1317)">
<rect width="111" height="74" fill="#E7E7E7"/>
<g opacity="0.75">
<rect x="38" y="60" width="36" height="3" fill="#2A2899"/>
<rect x="38" y="64" width="36" height="2" fill="#2A2899"/>
<rect x="75" y="64" width="2" height="2" fill="#2A2899"/>
</g>
<rect x="64" y="10" width="3" height="1" fill="#2A2899"/>
<rect x="69" y="10" width="3" height="1" fill="#2A2899"/>
<rect x="65" y="11" width="2" height="1" fill="#2A2899"/>
<rect x="69" y="11" width="2" height="1" fill="#2A2899"/>
<rect x="66" y="12" width="1" height="1" fill="#2A2899"/>
<rect x="67" y="13" width="2" height="2" fill="#2A2899"/>
<rect x="66" y="15" width="4" height="1" fill="#2A2899"/>
<rect x="67" y="12" width="3" height="1" fill="#2A2899"/>
<rect x="55" y="10" width="3" height="1" fill="#2A2899"/>
<rect x="60" y="10" width="3" height="1" fill="#2A2899"/>
<rect x="57" y="11" width="1" height="1" fill="#2A2899"/>
<rect x="58" y="12" width="1" height="1" fill="#2A2899"/>
<rect x="57" y="15" width="1" height="1" fill="#2A2899"/>
<rect x="55" y="15" width="1" height="1" fill="#2A2899"/>
<rect x="58" y="11" width="1" height="1" fill="#2A2899"/>
<rect x="59" y="13" width="1" height="1" fill="#2A2899"/>
<rect x="59" y="12" width="1" height="1" fill="#2A2899"/>
<rect x="60" y="13" width="1" height="1" fill="#2A2899"/>
<rect x="60" y="14" width="1" height="1" fill="#2A2899"/>
<rect x="61" y="11" width="1" height="5" fill="#2A2899"/>
<rect x="56" y="11" width="1" height="5" fill="#2A2899"/>
<rect x="48" y="12" width="1" height="1" fill="#2A2899"/>
<rect x="48" y="13" width="1" height="2" fill="#2A2899"/>
<rect x="47" y="12" width="1" height="2" fill="#2A2899"/>
<rect x="48" y="11" width="1" height="1" fill="#2A2899"/>
<rect x="49" y="10" width="1" height="1" fill="#2A2899"/>
<rect x="50" y="10" width="3" height="1" fill="#2A2899"/>
<rect x="49" y="15" width="1" height="1" fill="#2A2899"/>
<rect x="53" y="14" width="1" height="1" fill="#2A2899"/>
<rect x="53" y="11" width="1" height="1" fill="#2A2899"/>
<rect x="53" y="12" width="2" height="2" fill="#2A2899"/>
<rect x="50" y="15" width="1" height="1" fill="#2A2899"/>
<rect x="51" y="15" width="2" height="1" fill="#2A2899"/>
<rect x="40" y="11" width="1" height="1" fill="#2A2899"/>
<rect x="43" y="10" width="1" height="1" fill="#2A2899"/>
<rect x="44" y="10" width="1" height="1" fill="#2A2899"/>
<rect x="45" y="11" width="1" height="1" fill="#2A2899"/>
<rect x="40" y="12" width="1" height="1" fill="#2A2899"/>
<rect x="41" y="12" width="1" height="1" fill="#2A2899"/>
<rect x="42" y="12" width="1" height="1" fill="#2A2899"/>
<rect x="45" y="13" width="1" height="1" fill="#2A2899"/>
<rect x="45" y="14" width="1" height="1" fill="#2A2899"/>
<rect x="44" y="15" width="1" height="1" fill="#2A2899"/>
<rect x="43" y="15" width="1" height="1" fill="#2A2899"/>
<rect x="42" y="15" width="1" height="1" fill="#2A2899"/>
<rect x="41" y="15" width="1" height="1" fill="#2A2899"/>
<rect x="40" y="14" width="1" height="1" fill="#2A2899"/>
<rect x="44" y="13" width="1" height="1" fill="#2A2899"/>
<rect x="43" y="13" width="1" height="1" fill="#2A2899"/>
<rect x="41" y="10" width="1" height="1" fill="#2A2899"/>
<rect x="42" y="10" width="1" height="1" fill="#2A2899"/>
<rect x="36" y="37" width="1" height="2" fill="#F9BB02"/>
<rect x="37" y="36" width="1" height="4" fill="#F9BB02"/>
<rect x="38" y="35" width="1" height="6" fill="#F9BB02"/>
<rect x="39" y="34" width="1" height="8" fill="#F9BB02"/>
<rect x="40" y="33" width="1" height="10" fill="#F9BB02"/>
<rect x="41" y="32" width="1" height="12" fill="#F9BB02"/>
<rect x="42" y="31" width="1" height="14" fill="#F9BB02"/>
<rect x="43" y="30" width="1" height="16" fill="#F9BB02"/>
<rect x="44" y="29" width="1" height="18" fill="#F9BB02"/>
<rect x="45" y="28" width="1" height="20" fill="#F9BB02"/>
<rect x="46" y="27" width="1" height="22" fill="#F9BB02"/>
<rect x="47" y="26" width="1" height="24" fill="#F9BB02"/>
<rect x="48" y="25" width="1" height="26" fill="#F9BB02"/>
<rect x="49" y="24" width="1" height="28" fill="#F9BB02"/>
<rect x="50" y="23" width="1" height="30" fill="#F9BB02"/>
<rect x="51" y="22" width="1" height="32" fill="#F9BB02"/>
<rect x="52" y="21" width="1" height="34" fill="#F9BB02"/>
<rect x="53" y="20" width="1" height="36" fill="#F9BB02"/>
<rect x="54" y="19" width="1" height="38" fill="#F9BB02"/>
<rect x="55" y="18" width="1" height="40" fill="#F9BB02"/>
<rect width="1" height="2.0001" transform="matrix(-1 0 0 1 76 37)" fill="#F9BB02"/>
<rect width="1" height="4" transform="matrix(-1 0 0 1 75 36)" fill="#F9BB02"/>
<rect width="1" height="6" transform="matrix(-1 0 0 1 74 35)" fill="#F9BB02"/>
<rect width="1" height="8" transform="matrix(-1 0 0 1 73 34)" fill="#F9BB02"/>
<rect width="1" height="10" transform="matrix(-1 0 0 1 72 33)" fill="#F9BB02"/>
<rect width="1" height="12" transform="matrix(-1 0 0 1 71 32)" fill="#F9BB02"/>
<rect width="1" height="14" transform="matrix(-1 0 0 1 70 31)" fill="#F9BB02"/>
<rect width="1" height="16" transform="matrix(-1 0 0 1 69 30)" fill="#F9BB02"/>
<rect width="1" height="18" transform="matrix(-1 0 0 1 68 29)" fill="#F9BB02"/>
<rect width="1" height="20" transform="matrix(-1 0 0 1 67 28)" fill="#F9BB02"/>
<rect width="1" height="22" transform="matrix(-1 0 0 1 66 27)" fill="#F9BB02"/>
<rect width="1" height="24" transform="matrix(-1 0 0 1 65 26)" fill="#F9BB02"/>
<rect width="1" height="26" transform="matrix(-1 0 0 1 64 25)" fill="#F9BB02"/>
<rect width="1" height="28" transform="matrix(-1 0 0 1 63 24)" fill="#F9BB02"/>
<rect width="1" height="30" transform="matrix(-1 0 0 1 62 22.9999)" fill="#F9BB02"/>
<rect width="1" height="32" transform="matrix(-1 0 0 1 61 22)" fill="#F9BB02"/>
<rect width="1" height="34" transform="matrix(-1 0 0 1 60 21)" fill="#F9BB02"/>
<rect width="1" height="36" transform="matrix(-1 0 0 1 59 20)" fill="#F9BB02"/>
<rect width="1" height="38" transform="matrix(-1 0 0 1 58 19)" fill="#F9BB02"/>
<rect width="1" height="40" transform="matrix(-1 0 0 1 57 18)" fill="#F9BB02"/>
<rect x="49" y="31" width="1" height="1" fill="#EC020F"/>
<rect opacity="0.85" x="50" y="30" width="1" height="3" fill="#EC020F"/>
<rect opacity="0.7" x="51" y="29" width="1" height="5" fill="#EC020F"/>
<rect opacity="0.55" x="52" y="28" width="1" height="7" fill="#EC020F"/>
<rect opacity="0.4" x="53" y="27" width="1" height="9" fill="#EC020F"/>
<rect opacity="0.25" x="54" y="26" width="1" height="11" fill="#EC020F"/>
<rect opacity="0.1" x="55" y="25" width="1" height="13" fill="#EC020F"/>
<rect width="1" height="1" transform="matrix(-1 0 0 1 63 44)" fill="#EC020F"/>
<rect opacity="0.85" width="1" height="3" transform="matrix(-1 0 0 1 62 43)" fill="#EC020F"/>
<rect opacity="0.7" width="1" height="5" transform="matrix(-1 0 0 1 61 42)" fill="#EC020F"/>
<rect opacity="0.55" width="1" height="7" transform="matrix(-1 0 0 1 60 41)" fill="#EC020F"/>
<rect opacity="0.4" width="1" height="9" transform="matrix(-1 0 0 1 59 40)" fill="#EC020F"/>
<rect opacity="0.25" width="1" height="11" transform="matrix(-1 0 0 1 58 39)" fill="#EC020F"/>
<rect opacity="0.1" width="1" height="13" transform="matrix(-1 0 0 1 57 38)" fill="#EC020F"/>
<rect x="36" y="37" width="1" height="2.0001" fill="#EC020F"/>
<rect opacity="0.9" x="37" y="36" width="1" height="4" fill="#EC020F"/>
<rect opacity="0.85" x="38" y="35" width="1" height="6" fill="#EC020F"/>
<rect opacity="0.75" x="39" y="34" width="1" height="8" fill="#EC020F"/>
<rect opacity="0.7" x="40" y="33" width="1" height="10" fill="#EC020F"/>
<rect opacity="0.6" x="41" y="32" width="1" height="12" fill="#EC020F"/>
<rect opacity="0.55" x="42" y="31" width="1" height="14" fill="#EC020F"/>
<rect opacity="0.45" x="43" y="30" width="1" height="16" fill="#EC020F"/>
<rect opacity="0.4" x="44" y="29" width="1" height="18" fill="#EC020F"/>
<rect opacity="0.3" x="45" y="28" width="1" height="20" fill="#EC020F"/>
<rect opacity="0.25" x="46" y="27" width="1" height="22" fill="#EC020F"/>
<rect opacity="0.15" x="47" y="26" width="1" height="24" fill="#EC020F"/>
<rect opacity="0.1" x="48" y="25" width="1" height="26" fill="#EC020F"/>
<rect opacity="0.05" x="49" y="24" width="1" height="28" fill="#EC020F"/>
<rect x="76" y="39" width="1" height="2" transform="rotate(180 76 39)" fill="#EC020F"/>
<rect opacity="0.9" x="75" y="40" width="1" height="4" transform="rotate(180 75 40)" fill="#EC020F"/>
<rect opacity="0.85" x="74" y="41" width="1" height="6" transform="rotate(180 74 41)" fill="#EC020F"/>
<rect opacity="0.75" x="73" y="42" width="1" height="8" transform="rotate(180 73 42)" fill="#EC020F"/>
<rect opacity="0.7" x="72" y="43" width="1" height="10" transform="rotate(180 72 43)" fill="#EC020F"/>
<rect opacity="0.6" x="71" y="44" width="1" height="12" transform="rotate(180 71 44)" fill="#EC020F"/>
<rect opacity="0.55" x="70" y="45" width="1" height="14" transform="rotate(180 70 45)" fill="#EC020F"/>
<rect opacity="0.45" x="69" y="46" width="1" height="16" transform="rotate(180 69 46)" fill="#EC020F"/>
<rect opacity="0.4" x="68" y="47" width="1" height="18" transform="rotate(180 68 47)" fill="#EC020F"/>
<rect opacity="0.3" x="67" y="48" width="1" height="20" transform="rotate(180 67 48)" fill="#EC020F"/>
<rect opacity="0.25" x="66" y="49" width="1" height="22" transform="rotate(180 66 49)" fill="#EC020F"/>
<rect opacity="0.15" x="65" y="50" width="1" height="24" transform="rotate(180 65 50)" fill="#EC020F"/>
<rect opacity="0.1" x="64" y="51" width="1" height="26" transform="rotate(180 64 51)" fill="#EC020F"/>
<rect opacity="0.05" x="63" y="52" width="1" height="28" transform="rotate(180 63 52)" fill="#EC020F"/>
</g>
<defs>
<clipPath id="clip0_1739_1317">
<rect width="111" height="74" fill="white"/>
</clipPath>
</defs>
</svg>
