<svg xmlns="http://www.w3.org/2000/svg" width="111" height="74" fill="none" viewBox="0 0 111 74"><path fill="#fff" d="M0 0h111v74H0z"/><g fill="#2a2899" opacity=".75"><path d="M38 60h36v3H38zM38 64h36v2H38zM75 64h2v2h-2z"/></g><path fill="#2a2899" d="M47 10h5v1h-5zM50 15h2v1h-2zM50 11h1v1h-1zM47 15h2v1h-2zM48 14h1v1h-1zM49 11h1v5h-1zM53 10h5v1h-5zM55 11h1v5h-1zM58 10h5v1h-5zM60 11h1v5h-1zM61 15h1v1h-1zM62 11h1v1h-1zM59 15h1v1h-1zM56 15h1v1h-1zM54 15h1v1h-1zM53 11h1v1h-1zM63 15h3v1h-3zM68 15h3v1h-3zM64 13h1v2h-1zM69 13h1v2h-1zM65 11h1v2h-1zM68 12h1v1h-1zM66 10h2v1h-2zM66 11h2v1h-2z"/><path fill="#2a2899" d="M66 11h3v1h-3zM65 13h5v1h-5zM45 11h1v1h-1zM45 12h1v1h-1zM45 14h1v1h-1zM45 13h1v1h-1zM42 15h3v1h-5v-1h1v-4h-1v-1h5v1h-3z"/><path fill="#f9bb02" d="M36 37h1v2h-1zM37 36h1v4h-1zM38 35h1v6h-1zM39 34h1v8h-1zM40 33h1v10h-1zM41 32h1v12h-1zM42 31h1v14h-1zM43 30h1v16h-1zM44 29h1v18h-1zM45 28h1v20h-1zM46 27h1v22h-1zM47 26h1v24h-1zM48 25h1v26h-1zM49 24h1v28h-1zM50 23h1v30h-1zM51 22h1v32h-1zM52 21h1v34h-1zM53 20h1v36h-1zM54 19h1v38h-1zM55 18h1v40h-1zM76 37h-1v2h1zM75 36h-1v4h1zM74 35h-1v6h1zM73 34h-1v8h1zM72 33h-1v10h1zM71 32h-1v12h1zM70 31h-1v14h1zM69 30h-1v16h1zM68 29h-1v18h1zM67 28h-1v20h1zM66 27h-1v22h1zM65 26h-1v24h1zM64 25h-1v26h1zM63 24h-1v28h1zM62 23h-1v30h1zM61 22h-1v32h1zM60 21h-1v34h1zM59 20h-1v36h1zM58 19h-1v38h1zM57 18h-1v40h1z"/><path fill="#ec020f" d="M49 31h1v1h-1z"/><path fill="#ec020f" d="M50 30h1v3h-1z" opacity=".85"/><path fill="#ec020f" d="M51 29h1v5h-1z" opacity=".7"/><path fill="#ec020f" d="M52 28h1v7h-1z" opacity=".55"/><path fill="#ec020f" d="M53 27h1v9h-1z" opacity=".4"/><path fill="#ec020f" d="M54 26h1v11h-1z" opacity=".25"/><path fill="#ec020f" d="M55 25h1v13h-1z" opacity=".1"/><path fill="#ec020f" d="M63 44h-1v1h1z"/><path fill="#ec020f" d="M62 43h-1v3h1z" opacity=".85"/><path fill="#ec020f" d="M61 42h-1v5h1z" opacity=".7"/><path fill="#ec020f" d="M60 41h-1v7h1z" opacity=".55"/><path fill="#ec020f" d="M59 40h-1v9h1z" opacity=".4"/><path fill="#ec020f" d="M58 39h-1v11h1z" opacity=".25"/><path fill="#ec020f" d="M57 38h-1v13h1z" opacity=".1"/><path fill="#ec020f" d="M36 37h1v2h-1z"/><path fill="#ec020f" d="M37 36h1v4h-1z" opacity=".9"/><path fill="#ec020f" d="M38 35h1v6h-1z" opacity=".85"/><path fill="#ec020f" d="M39 34h1v8h-1z" opacity=".75"/><path fill="#ec020f" d="M40 33h1v10h-1z" opacity=".7"/><path fill="#ec020f" d="M41 32h1v12h-1z" opacity=".6"/><path fill="#ec020f" d="M42 31h1v14h-1z" opacity=".55"/><path fill="#ec020f" d="M43 30h1v16h-1z" opacity=".45"/><path fill="#ec020f" d="M44 29h1v18h-1z" opacity=".4"/><path fill="#ec020f" d="M45 28h1v20h-1z" opacity=".3"/><path fill="#ec020f" d="M46 27h1v22h-1z" opacity=".25"/><path fill="#ec020f" d="M47 26h1v24h-1z" opacity=".15"/><path fill="#ec020f" d="M48 25h1v26h-1z" opacity=".1"/><path fill="#ec020f" d="M49 24h1v28h-1z" opacity=".05"/><path fill="#ec020f" d="M76 39h-1v-2h1z"/><path fill="#ec020f" d="M75 40h-1v-4h1z" opacity=".9"/><path fill="#ec020f" d="M74 41h-1v-6h1z" opacity=".85"/><path fill="#ec020f" d="M73 42h-1v-8h1z" opacity=".75"/><path fill="#ec020f" d="M72 43h-1V33h1z" opacity=".7"/><path fill="#ec020f" d="M71 44h-1V32h1z" opacity=".6"/><path fill="#ec020f" d="M70 45h-1V31h1z" opacity=".55"/><path fill="#ec020f" d="M69 46h-1V30h1z" opacity=".45"/><path fill="#ec020f" d="M68 47h-1V29h1z" opacity=".4"/><path fill="#ec020f" d="M67 48h-1V28h1z" opacity=".3"/><path fill="#ec020f" d="M66 49h-1V27h1z" opacity=".25"/><path fill="#ec020f" d="M65 50h-1V26h1z" opacity=".15"/><path fill="#ec020f" d="M64 51h-1V25h1z" opacity=".1"/><path fill="#ec020f" d="M63 52h-1V24h1z" opacity=".05"/></svg>