<svg width="111" height="74" viewBox="0 0 111 74" fill="none" xmlns="http://www.w3.org/2000/svg">
<g clip-path="url(#clip0_1744_1837)">
<rect width="111" height="74" fill="black"/>
<rect x="51" y="9" width="6" height="29" fill="#FE0000"/>
<rect x="51" y="8" width="4" height="1" fill="#FE0000"/>
<rect x="57" y="10" width="3" height="1" fill="#FE0000"/>
<rect x="60" y="10" width="1" height="1" fill="#FE0000"/>
<rect x="61" y="10" width="3" height="1" fill="#FE0000"/>
<rect x="57" y="11" width="8" height="2" fill="#FE0000"/>
<rect x="65" y="12" width="2" height="1" fill="#FE0000"/>
<rect x="59" y="13" width="2" height="1" fill="#FE0000"/>
<rect x="60" y="13" width="8" height="1" fill="#FE0000"/>
<rect x="60" y="14" width="8" height="11" fill="#FE0000"/>
<rect x="68" y="14" width="1" height="10" fill="#FE0000"/>
<rect x="69" y="16" width="1" height="2" fill="#FE0000"/>
<rect opacity="0.5" x="69" y="22" width="1" height="1" fill="#FE0000"/>
<rect opacity="0.9" x="69" y="18" width="1" height="1" fill="#FE0000"/>
<rect opacity="0.8" x="69" y="19" width="1" height="1" fill="#FE0000"/>
<rect opacity="0.7" x="69" y="20" width="1" height="1" fill="#FE0000"/>
<rect opacity="0.6" x="69" y="21" width="1" height="1" fill="#FE0000"/>
<rect opacity="0.5" x="68" y="24" width="1" height="1" fill="#FE0000"/>
<rect x="60" y="25" width="7" height="2" fill="#FE0000"/>
<rect x="67" y="25" width="1" height="1" fill="#FE0000"/>
<rect x="61" y="27" width="5" height="1" fill="#FE0000"/>
<rect x="52" y="13" width="5" height="26" fill="#FE0000"/>
<rect opacity="0.5" x="57" y="13" width="1" height="28" fill="#FE0000"/>
<rect x="56" y="39" width="1" height="1" fill="#FE0000"/>
<rect x="56" y="40" width="1" height="1" fill="#FE0000"/>
<rect x="54" y="39" width="2" height="1" fill="#FE0000"/>
<rect x="57" y="9" width="1" height="1" fill="#FE0000"/>
<rect x="58" y="9" width="2" height="1" fill="#FE0000"/>
<rect x="58" y="35" width="1" height="5" fill="#FC9202"/>
<rect x="39" y="31" width="3" height="4" fill="#FC9202"/>
<rect x="47" y="33" width="4" height="2" fill="#FC9202"/>
<rect x="46" y="33" width="1" height="3" fill="#FC9202"/>
<rect x="48" y="32" width="2" height="1" fill="#FC9202"/>
<rect x="47" y="35" width="3" height="1" fill="#FC9202"/>
<rect x="43" y="35" width="3" height="1" fill="#FC9202"/>
<rect x="43" y="34" width="3" height="1" fill="#FC9202"/>
<rect x="42" y="34" width="1" height="2" fill="#FC9202"/>
<rect x="42" y="31" width="1" height="2" fill="#FC9202"/>
<rect x="43" y="31" width="2" height="1" fill="#FC9202"/>
<rect x="38" y="31" width="1" height="4" fill="#FC9202"/>
<rect x="37" y="32" width="1" height="3" fill="#FC9202"/>
<rect x="40" y="35" width="2" height="1" fill="#FC9202"/>
<rect x="39" y="30" width="5" height="1" fill="#FC9202"/>
<rect opacity="0.7" x="41" y="29" width="1" height="1" fill="#FC9202"/>
<rect x="59" y="36" width="1" height="3" fill="#FC9202"/>
<rect opacity="0.5" x="58" y="40" width="1" height="1" fill="#FC9202"/>
<rect opacity="0.3" x="50" y="35" width="1" height="2" fill="#FC9202"/>
<rect opacity="0.3" x="48" y="36" width="2" height="1" fill="#FC9202"/>
<rect opacity="0.4" x="46" y="36" width="2" height="1" fill="#FC9202"/>
<rect opacity="0.5" x="43" y="36" width="3" height="1" fill="#FC9202"/>
<rect opacity="0.5" x="43" y="32" width="1" height="1" fill="#FC9202"/>
<rect opacity="0.5" x="45" y="31" width="1" height="1" fill="#FC9202"/>
<rect opacity="0.5" x="42" y="33" width="1" height="1" fill="#FC9202"/>
<rect opacity="0.5" x="45" y="33" width="1" height="1" fill="#FC9202"/>
<rect opacity="0.7" x="40" y="36" width="3" height="1" fill="#FC9202"/>
<rect opacity="0.8" x="38" y="35" width="2" height="1" fill="#FC9202"/>
<rect opacity="0.5" x="59" y="39" width="1" height="1" fill="#FC9202"/>
<rect opacity="0.8" x="60" y="38" width="1" height="1" fill="#FC9202"/>
<rect opacity="0.5" x="61" y="38" width="1" height="1" fill="#FC9202"/>
<rect opacity="0.5" x="62" y="37" width="1" height="1" fill="#FC9202"/>
<rect x="60" y="36" width="1" height="2" fill="#FC9202"/>
<rect x="61" y="37" width="1" height="1" fill="#FC9202"/>
<rect x="59" y="35" width="6" height="1" fill="#02868C"/>
<rect x="60" y="34" width="6" height="1" fill="#02868C"/>
<rect x="62" y="33" width="4" height="1" fill="#02868C"/>
<rect x="66" y="33" width="1" height="2" fill="#02868C"/>
<rect x="67" y="33" width="1" height="1" fill="#02868C"/>
<rect x="61" y="36" width="2" height="1" fill="#02868C"/>
<rect opacity="0.5" x="63" y="36" width="2" height="1" fill="#02868C"/>
<rect opacity="0.5" x="59" y="32" width="2" height="1" fill="#02868C"/>
<rect opacity="0.5" x="58" y="33" width="1" height="1" fill="#02868C"/>
<rect opacity="0.5" x="47" y="30" width="1" height="1" fill="#02868C"/>
<rect opacity="0.5" x="49" y="29" width="2" height="1" fill="#02868C"/>
<rect opacity="0.5" x="65" y="35" width="2" height="1" fill="#02868C"/>
<rect opacity="0.5" x="67" y="34" width="2" height="1" fill="#02868C"/>
<rect x="64" y="32" width="2" height="1" fill="#02868C"/>
<rect x="58" y="30" width="1" height="2" fill="#02868C"/>
<rect x="59" y="31" width="1" height="1" fill="#02868C"/>
<rect x="60" y="31" width="1" height="1" fill="#02868C"/>
<rect x="58" y="32" width="1" height="1" fill="#02868C"/>
<rect x="50" y="31" width="1" height="2" fill="#02868C"/>
<rect x="44" y="29" width="3" height="2" fill="#02868C"/>
<rect x="47" y="28" width="3" height="1" fill="#02868C"/>
<rect x="47" y="29" width="2" height="1" fill="#02868C"/>
<rect x="50" y="28" width="1" height="1" fill="#02868C"/>
<rect x="46" y="27" width="3" height="1" fill="#02868C"/>
<rect x="44" y="28" width="2" height="1" fill="#02868C"/>
<rect x="42" y="29" width="2" height="1" fill="#02868C"/>
<rect x="46" y="28" width="1" height="1" fill="#02868C"/>
<rect x="66" y="30" width="5" height="3" fill="#1036A2"/>
<rect x="71" y="30" width="1" height="2" fill="#1036A2"/>
<rect opacity="0.75" x="71" y="32" width="1" height="1" fill="#1036A2"/>
<rect x="65" y="30" width="1" height="1" fill="#1036A2" fill-opacity="0.5"/>
<rect x="61" y="31" width="1" height="1" fill="#1036A2" fill-opacity="0.5"/>
<rect x="59" y="28" width="8" height="1" fill="#1036A2"/>
<rect x="49" y="27" width="2" height="1" fill="#1036A2"/>
<rect x="49" y="26" width="2" height="1" fill="#1036A2"/>
<rect x="59" y="30" width="3" height="1" fill="#1036A2"/>
<rect x="68" y="33" width="1" height="1" fill="#1036A2"/>
<rect opacity="0.5" x="69" y="33" width="2" height="1" fill="#1036A2"/>
<rect opacity="0.5" x="62" y="30" width="3" height="1" fill="#1036A2"/>
<rect x="58" y="29" width="12" height="1" fill="#1036A2"/>
<rect x="39" y="42" width="1" height="5" fill="white"/>
<rect x="43" y="42" width="1" height="5" fill="white"/>
<rect x="45" y="45" width="2" height="2" fill="white"/>
<rect x="46" y="44" width="1" height="1" fill="white"/>
<rect x="45" y="43" width="1" height="1" fill="white"/>
<rect x="48" y="43" width="1" height="1" fill="white"/>
<rect x="50" y="43" width="1" height="1" fill="white"/>
<rect x="49" y="45" width="1" height="1" fill="white"/>
<rect x="49" y="46" width="1" height="1" fill="white"/>
<rect x="48" y="47" width="1" height="1" fill="white"/>
<rect x="48" y="44" width="1" height="1" fill="white"/>
<rect x="52" y="42" width="2" height="1" fill="white"/>
<rect x="52" y="44" width="2" height="1" fill="white"/>
<rect x="52" y="46" width="2" height="1" fill="white"/>
<rect x="55" y="43" width="1" height="4" fill="white"/>
<rect x="60" y="43" width="1" height="4" fill="white"/>
<rect opacity="0.5" x="61" y="46" width="1" height="1" fill="white"/>
<rect x="63" y="43" width="1" height="1" fill="white"/>
<rect opacity="0.75" x="61" y="43" width="1" height="1" fill="white"/>
<rect x="65" y="46" width="2" height="1" fill="white"/>
<rect x="65" y="43" width="2" height="1" fill="white"/>
<rect x="68" y="44" width="1" height="3" fill="white"/>
<rect x="70" y="44" width="1" height="3" fill="white"/>
<rect x="69" y="44" width="1" height="1" fill="white"/>
<rect opacity="0.75" x="72" y="45" width="2" height="2" fill="white"/>
<rect opacity="0.5" x="65" y="44" width="2" height="2" fill="white"/>
<rect x="63" y="45" width="1" height="2" fill="white"/>
<rect x="53" y="45" width="1" height="1" fill="white"/>
<rect x="52" y="43" width="1" height="1" fill="white"/>
<rect opacity="0.5" x="51" y="43" width="1" height="1" fill="white"/>
<rect opacity="0.5" x="49" y="47" width="1" height="1" fill="white"/>
<rect opacity="0.5" x="48" y="45" width="1" height="1" fill="white"/>
<rect opacity="0.5" x="44" y="45" width="1" height="2" fill="white"/>
<rect opacity="0.5" x="50" y="45" width="1" height="1" fill="white"/>
<rect opacity="0.5" x="58" y="43" width="1" height="1" fill="white"/>
<rect opacity="0.5" x="46" y="43" width="1" height="1" fill="white"/>
<rect opacity="0.5" x="42" y="43" width="1" height="1" fill="white"/>
<rect x="57" y="43" width="1" height="1" fill="white"/>
<rect x="58" y="44" width="1" height="1" fill="white"/>
<rect x="57" y="45" width="2" height="2" fill="white"/>
<rect x="50" y="44" width="1" height="1" fill="white"/>
<rect x="40" y="42" width="2" height="1" fill="white"/>
<rect x="40" y="44" width="2" height="1" fill="white"/>
<rect x="41" y="43" width="1" height="1" fill="white"/>
<rect opacity="0.5" x="45" y="52" width="22" height="2" fill="white"/>
<rect opacity="0.5" x="50" y="62" width="11" height="2" fill="white"/>
<rect opacity="0.5" x="62" y="63" width="2" height="1" fill="white"/>
<rect opacity="0.5" x="20" y="55" width="70" height="3" fill="white"/>
</g>
<defs>
<clipPath id="clip0_1744_1837">
<rect width="111" height="74" fill="white"/>
</clipPath>
</defs>
</svg>
