<svg width="111" height="74" viewBox="0 0 111 74" fill="none" xmlns="http://www.w3.org/2000/svg">
<g clip-path="url(#clip0_1753_3169)">
<rect width="111" height="74" fill="black"/>
<rect x="39" y="42" width="1" height="5" fill="white"/>
<rect x="43" y="44" width="1" height="3" fill="white"/>
<rect x="45" y="43" width="1" height="4" fill="white"/>
<rect opacity="0.75" x="46" y="44" width="1" height="1" fill="white"/>
<rect opacity="0.75" x="48" y="44" width="1" height="1" fill="white"/>
<rect x="43" y="42" width="1" height="1" fill="white"/>
<rect x="47" y="43" width="1" height="4" fill="white"/>
<rect x="52" y="42" width="2" height="1" fill="white"/>
<rect x="52" y="44" width="2" height="1" fill="white"/>
<rect x="52" y="46" width="2" height="1" fill="white"/>
<rect x="55" y="43" width="1" height="4" fill="white"/>
<rect x="60" y="43" width="1" height="4" fill="white"/>
<rect x="63" y="43" width="1" height="1" fill="white"/>
<rect opacity="0.75" x="61" y="44" width="1" height="1" fill="white"/>
<rect x="65" y="46" width="2" height="1" fill="white"/>
<rect x="65" y="43" width="2" height="1" fill="white"/>
<rect x="68" y="44" width="1" height="3" fill="white"/>
<rect x="70" y="44" width="1" height="3" fill="white"/>
<rect x="69" y="44" width="1" height="1" fill="white"/>
<rect opacity="0.75" x="72" y="45" width="2" height="2" fill="white"/>
<rect opacity="0.5" x="65" y="44" width="2" height="2" fill="white"/>
<rect x="63" y="45" width="1" height="2" fill="white"/>
<rect x="53" y="45" width="1" height="1" fill="white"/>
<rect x="52" y="43" width="1" height="1" fill="white"/>
<rect opacity="0.5" x="58" y="43" width="1" height="1" fill="white"/>
<rect opacity="0.5" x="56" y="44" width="1" height="1" fill="white"/>
<rect opacity="0.5" x="61" y="46" width="1" height="1" fill="white"/>
<rect x="57" y="43" width="1" height="1" fill="white"/>
<rect x="58" y="44" width="1" height="1" fill="white"/>
<rect x="57" y="45" width="2" height="2" fill="white"/>
<rect opacity="0.5" x="50" y="43" width="1" height="1" fill="white"/>
<rect x="49" y="43" width="1" height="1" fill="white"/>
<rect x="50" y="44" width="1" height="1" fill="white"/>
<rect x="49" y="45" width="2" height="2" fill="white"/>
<rect x="40" y="46" width="1" height="1" fill="white"/>
<rect x="41" y="43" width="1" height="3" fill="white"/>
<rect x="40" y="42" width="1" height="1" fill="white"/>
<rect opacity="0.5" x="45" y="52" width="22" height="2" fill="white"/>
<rect opacity="0.5" x="50" y="62" width="11" height="2" fill="white"/>
<rect opacity="0.5" x="62" y="63" width="2" height="1" fill="white"/>
<rect opacity="0.5" x="20" y="55" width="70" height="3" fill="white"/>
<rect x="56" y="11" width="1" height="5" transform="rotate(180 56 11)" fill="#FC9202"/>
<rect x="75" y="15" width="3" height="4" transform="rotate(180 75 15)" fill="#FC9202"/>
<rect x="67" y="13" width="4" height="2" transform="rotate(180 67 13)" fill="#FC9202"/>
<rect x="68" y="13" width="1" height="3" transform="rotate(180 68 13)" fill="#FC9202"/>
<rect x="66" y="14" width="2" height="1" transform="rotate(180 66 14)" fill="#FC9202"/>
<rect x="67" y="11" width="3" height="1" transform="rotate(180 67 11)" fill="#FC9202"/>
<rect x="71" y="11" width="3" height="1" transform="rotate(180 71 11)" fill="#FC9202"/>
<rect x="71" y="12" width="3" height="1" transform="rotate(180 71 12)" fill="#FC9202"/>
<rect x="72" y="12" width="1" height="2" transform="rotate(180 72 12)" fill="#FC9202"/>
<rect x="72" y="15" width="1" height="2" transform="rotate(180 72 15)" fill="#FC9202"/>
<rect x="71" y="15" width="2" height="1" transform="rotate(180 71 15)" fill="#FC9202"/>
<rect x="76" y="15" width="1" height="4" transform="rotate(180 76 15)" fill="#FC9202"/>
<rect x="77" y="14" width="1" height="3" transform="rotate(180 77 14)" fill="#FC9202"/>
<rect x="74" y="11" width="2" height="1" transform="rotate(180 74 11)" fill="#FC9202"/>
<rect x="75" y="16" width="5" height="1" transform="rotate(180 75 16)" fill="#FC9202"/>
<rect opacity="0.7" x="73" y="17" width="1" height="1" transform="rotate(180 73 17)" fill="#FC9202"/>
<rect x="55" y="10" width="1" height="3" transform="rotate(180 55 10)" fill="#FC9202"/>
<rect opacity="0.5" x="56" y="6" width="1" height="1" transform="rotate(180 56 6)" fill="#FC9202"/>
<rect opacity="0.3" x="64" y="11" width="1" height="2" transform="rotate(180 64 11)" fill="#FC9202"/>
<rect opacity="0.3" x="66" y="10" width="2" height="1" transform="rotate(180 66 10)" fill="#FC9202"/>
<rect opacity="0.4" x="68" y="10" width="2" height="1" transform="rotate(180 68 10)" fill="#FC9202"/>
<rect opacity="0.5" x="71" y="10" width="3" height="1" transform="rotate(180 71 10)" fill="#FC9202"/>
<rect opacity="0.5" x="71" y="14" width="1" height="1" transform="rotate(180 71 14)" fill="#FC9202"/>
<rect opacity="0.5" x="69" y="15" width="1" height="1" transform="rotate(180 69 15)" fill="#FC9202"/>
<rect opacity="0.5" x="72" y="13" width="1" height="1" transform="rotate(180 72 13)" fill="#FC9202"/>
<rect opacity="0.5" x="69" y="13" width="1" height="1" transform="rotate(180 69 13)" fill="#FC9202"/>
<rect opacity="0.7" x="74" y="10" width="3" height="1" transform="rotate(180 74 10)" fill="#FC9202"/>
<rect opacity="0.8" x="76" y="11" width="2" height="1" transform="rotate(180 76 11)" fill="#FC9202"/>
<rect opacity="0.5" x="55" y="7" width="1" height="1" transform="rotate(180 55 7)" fill="#FC9202"/>
<rect opacity="0.8" x="54" y="8" width="1" height="1" transform="rotate(180 54 8)" fill="#FC9202"/>
<rect opacity="0.5" x="53" y="8" width="1" height="1" transform="rotate(180 53 8)" fill="#FC9202"/>
<rect opacity="0.5" x="52" y="9" width="1" height="1" transform="rotate(180 52 9)" fill="#FC9202"/>
<rect x="54" y="10" width="1" height="2" transform="rotate(180 54 10)" fill="#FC9202"/>
<rect x="53" y="9" width="1" height="1" transform="rotate(180 53 9)" fill="#FC9202"/>
<rect x="55" y="11" width="6" height="1" transform="rotate(180 55 11)" fill="#02868C"/>
<rect x="54" y="12" width="6" height="1" transform="rotate(180 54 12)" fill="#02868C"/>
<rect x="52" y="13" width="4" height="1" transform="rotate(180 52 13)" fill="#02868C"/>
<rect x="48" y="13" width="1" height="2" transform="rotate(180 48 13)" fill="#02868C"/>
<rect x="47" y="13" width="1" height="1" transform="rotate(180 47 13)" fill="#02868C"/>
<rect x="53" y="10" width="2" height="1" transform="rotate(180 53 10)" fill="#02868C"/>
<rect opacity="0.5" x="51" y="10" width="2" height="1" transform="rotate(180 51 10)" fill="#02868C"/>
<rect opacity="0.5" x="55" y="14" width="2" height="1" transform="rotate(180 55 14)" fill="#02868C"/>
<rect opacity="0.5" x="56" y="13" width="1" height="1" transform="rotate(180 56 13)" fill="#02868C"/>
<rect opacity="0.5" x="67" y="16" width="1" height="1" transform="rotate(180 67 16)" fill="#02868C"/>
<rect opacity="0.5" x="65" y="17" width="2" height="1" transform="rotate(180 65 17)" fill="#02868C"/>
<rect opacity="0.5" x="49" y="11" width="2" height="1" transform="rotate(180 49 11)" fill="#02868C"/>
<rect opacity="0.5" x="47" y="12" width="2" height="1" transform="rotate(180 47 12)" fill="#02868C"/>
<rect x="50" y="14" width="2" height="1" transform="rotate(180 50 14)" fill="#02868C"/>
<rect x="56" y="16" width="1" height="2" transform="rotate(180 56 16)" fill="#02868C"/>
<rect x="55" y="15" width="1" height="1" transform="rotate(180 55 15)" fill="#02868C"/>
<rect x="54" y="15" width="1" height="1" transform="rotate(180 54 15)" fill="#02868C"/>
<rect x="56" y="14" width="1" height="1" transform="rotate(180 56 14)" fill="#02868C"/>
<rect x="64" y="15" width="1" height="2" transform="rotate(180 64 15)" fill="#02868C"/>
<rect x="70" y="17" width="3" height="2" transform="rotate(180 70 17)" fill="#02868C"/>
<rect x="67" y="18" width="3" height="1" transform="rotate(180 67 18)" fill="#02868C"/>
<rect x="67" y="17" width="2" height="1" transform="rotate(180 67 17)" fill="#02868C"/>
<rect x="64" y="18" width="1" height="1" transform="rotate(180 64 18)" fill="#02868C"/>
<rect x="68" y="19" width="3" height="1" transform="rotate(180 68 19)" fill="#02868C"/>
<rect x="70" y="18" width="2" height="1" transform="rotate(180 70 18)" fill="#02868C"/>
<rect x="72" y="17" width="2" height="1" transform="rotate(180 72 17)" fill="#02868C"/>
<rect x="68" y="18" width="1" height="1" transform="rotate(180 68 18)" fill="#02868C"/>
<rect x="48" y="16" width="5" height="3" transform="rotate(180 48 16)" fill="#1036A2"/>
<rect x="43" y="16" width="1" height="2" transform="rotate(180 43 16)" fill="#1036A2"/>
<rect opacity="0.75" x="43" y="14" width="1" height="1" transform="rotate(180 43 14)" fill="#1036A2"/>
<rect x="49" y="16" width="1" height="1" transform="rotate(180 49 16)" fill="#1036A2" fill-opacity="0.5"/>
<rect x="53" y="15" width="1" height="1" transform="rotate(180 53 15)" fill="#1036A2" fill-opacity="0.5"/>
<rect x="55" y="18" width="8" height="1" transform="rotate(180 55 18)" fill="#1036A2"/>
<rect x="65" y="19" width="2" height="1" transform="rotate(180 65 19)" fill="#1036A2"/>
<rect x="65" y="20" width="2" height="1" transform="rotate(180 65 20)" fill="#1036A2"/>
<rect x="55" y="16" width="3" height="1" transform="rotate(180 55 16)" fill="#1036A2"/>
<rect x="46" y="13" width="1" height="1" transform="rotate(180 46 13)" fill="#1036A2"/>
<rect opacity="0.5" x="45" y="13" width="2" height="1" transform="rotate(180 45 13)" fill="#1036A2"/>
<rect opacity="0.5" x="52" y="16" width="3" height="1" transform="rotate(180 52 16)" fill="#1036A2"/>
<rect x="56" y="17" width="12" height="1" transform="rotate(180 56 17)" fill="#1036A2"/>
<rect x="63" y="37" width="6" height="29" transform="rotate(180 63 37)" fill="#FE0000"/>
<rect x="63" y="38" width="4" height="1" transform="rotate(180 63 38)" fill="#FE0000"/>
<rect x="57" y="36" width="3" height="1" transform="rotate(180 57 36)" fill="#FE0000"/>
<rect x="54" y="36" width="1" height="1" transform="rotate(180 54 36)" fill="#FE0000"/>
<rect x="53" y="36" width="3" height="1" transform="rotate(180 53 36)" fill="#FE0000"/>
<rect x="57" y="35" width="8" height="2" transform="rotate(180 57 35)" fill="#FE0000"/>
<rect x="49" y="34" width="2" height="1" transform="rotate(180 49 34)" fill="#FE0000"/>
<rect x="55" y="33" width="2" height="1" transform="rotate(180 55 33)" fill="#FE0000"/>
<rect x="54" y="33" width="8" height="1" transform="rotate(180 54 33)" fill="#FE0000"/>
<rect x="54" y="32" width="8" height="11" transform="rotate(180 54 32)" fill="#FE0000"/>
<rect x="46" y="32" width="1" height="10" transform="rotate(180 46 32)" fill="#FE0000"/>
<rect x="45" y="30" width="1" height="2" transform="rotate(180 45 30)" fill="#FE0000"/>
<rect opacity="0.5" x="45" y="24" width="1" height="1" transform="rotate(180 45 24)" fill="#FE0000"/>
<rect opacity="0.9" x="45" y="28" width="1" height="1" transform="rotate(180 45 28)" fill="#FE0000"/>
<rect opacity="0.8" x="45" y="27" width="1" height="1" transform="rotate(180 45 27)" fill="#FE0000"/>
<rect opacity="0.7" x="45" y="26" width="1" height="1" transform="rotate(180 45 26)" fill="#FE0000"/>
<rect opacity="0.6" x="45" y="25" width="1" height="1" transform="rotate(180 45 25)" fill="#FE0000"/>
<rect opacity="0.5" x="46" y="22" width="1" height="1" transform="rotate(180 46 22)" fill="#FE0000"/>
<rect x="54" y="21" width="7" height="2" transform="rotate(180 54 21)" fill="#FE0000"/>
<rect x="47" y="21" width="1" height="1" transform="rotate(180 47 21)" fill="#FE0000"/>
<rect x="53" y="19" width="5" height="1" transform="rotate(180 53 19)" fill="#FE0000"/>
<rect x="62" y="33" width="5" height="26" transform="rotate(180 62 33)" fill="#FE0000"/>
<rect opacity="0.5" x="57" y="33" width="1" height="28" transform="rotate(180 57 33)" fill="#FE0000"/>
<rect x="58" y="7" width="1" height="1" transform="rotate(180 58 7)" fill="#FE0000"/>
<rect x="58" y="6" width="1" height="1" transform="rotate(180 58 6)" fill="#FE0000"/>
<rect x="60" y="7" width="2" height="1" transform="rotate(180 60 7)" fill="#FE0000"/>
<rect x="57" y="37" width="1" height="1" transform="rotate(180 57 37)" fill="#FE0000"/>
<rect x="56" y="37" width="2" height="1" transform="rotate(180 56 37)" fill="#FE0000"/>
</g>
<defs>
<clipPath id="clip0_1753_3169">
<rect width="111" height="74" fill="white"/>
</clipPath>
</defs>
</svg>
