<svg xmlns="http://www.w3.org/2000/svg" width="111" height="74" fill="none" viewBox="0 0 111 74"><path fill="#000" d="M0 0h111v74H0z"/><path fill="#fff" d="M43 45h1v2h-1zM45 43h1v4h-1z"/><path fill="#fff" d="M46 44h1v1h-1zM48 44h1v1h-1z" opacity=".75"/><path fill="#fff" d="M43 43h1v1h-1zM47 43h1v4h-1zM55 43h1v4h-1zM60 43h1v4h-1zM63 43h1v1h-1z"/><path fill="#fff" d="M61 44h1v1h-1z" opacity=".75"/><path fill="#fff" d="M65 46h2v1h-2zM65 44h2v1h-2zM71 44v3h-1v-2h-1v2h-1v-3z"/><path fill="#fff" d="M72 45h2v2h-2z" opacity=".75"/><path fill="#fff" d="M65 45h2v1h-2z" opacity=".5"/><path fill="#fff" d="M63 45h1v2h-1z"/><path fill="#fff" d="M58 43h1v1h-1zM56 44h1v1h-1zM61 46h1v1h-1z" opacity=".5"/><path fill="#fff" d="M57 43h1v1h-1zM59 47h-2v-2h1v-1h1z"/><path fill="#fff" d="M50 43h1v1h-1z" opacity=".5"/><path fill="#fff" d="M49 43h1v1h-1zM51 47h-2v-2h1v-1h1zm3-4h-1v1h1v3h-2v-1h1v-1h-1v-3h2zM41 42v1h-1v3h1v1h-2v-5zM42 46h-1v-3h1z"/><path fill="#fff" d="M45 52h22v2H45zM50 62h11v2H50zM62 63h2v1h-2zM20 55h70v3H20z" opacity=".5"/><path fill="#fc9202" d="M69 14h2v-1h1v-1h-4v1h-2v1h-2v-1h-1v-2h1v-1h10v1h3v3h-1v1h-1v1h-5v-1h-1z"/><path fill="#fc9202" d="M73 17h-1v-1h1z" opacity=".7"/><path fill="#fc9202" d="M56 6h-1V5h1z" opacity=".5"/><path fill="#fc9202" d="M63 9h3v1h-2v1h-1z" opacity=".3"/><path fill="#fc9202" d="M68 10h-2V9h2z" opacity=".4"/><path fill="#fc9202" d="M71 10h-3V9h3zM71 14h-1v-1h1zM69 15h-1v-1h1zM72 13h-1v-1h1zM69 13h-1v-1h1z" opacity=".5"/><path fill="#fc9202" d="M74 10h-3V9h3z" opacity=".7"/><path fill="#fc9202" d="M76 11h-2v-1h2z" opacity=".8"/><path fill="#fc9202" d="M55 7h-1V6h1z" opacity=".5"/><path fill="#fc9202" d="M54 8h-1V7h1z" opacity=".8"/><path fill="#fc9202" d="M53 8h-1V7h1zM52 9h-1V8h1z" opacity=".5"/><path fill="#fc9202" d="M55 10h-2V9h-1V8h2V7h1V6h1v5h-1z"/><path fill="#02868c" d="M51 10h-2V9h2zM55 14h-2v-1h2zM56 13h-1v-1h1zM67 16h-1v-1h1zM65 17h-2v-1h2zM49 11h-2v-1h2zM47 12h-2v-1h2z" opacity=".5"/><path fill="#02868c" d="M46 13v-1h1v-1h2v-1h2V9h2v1h2v1h-1v1h-2v1h-2v1h-2v-1zM55 13h1v3h-1v-1h-2v-1h2zM64 15h-1v-2h1zM65 18h-2v-1h2v-1h2v-1h3v1h2v1h-2v1h-2v1h-3z"/><path fill="#1036a2" d="M43 14h-1v-1h1z" opacity=".75"/><path fill="#1036a2" fill-opacity=".5" d="M49 16h-1v-1h1zM53 15h-1v-1h1z"/><path fill="#1036a2" d="M63 18h2v2h-2z"/><path fill="#1036a2" d="M45 13h-2v-1h2zM52 16h-3v-1h3z" opacity=".5"/><path fill="#1036a2" d="M42 14h1v-1h2v-1h1v1h2v3h4v-1h3v1h1v1h-1v1h-8v-1h-3v-1h-2z"/><path fill="#fe0000" d="M45 24h-1v-1h1z" opacity=".5"/><path fill="#fe0000" d="M45 28h-1v-1h1z" opacity=".9"/><path fill="#fe0000" d="M45 27h-1v-1h1z" opacity=".8"/><path fill="#fe0000" d="M45 26h-1v-1h1z" opacity=".7"/><path fill="#fe0000" d="M45 25h-1v-1h1z" opacity=".6"/><path fill="#fe0000" d="M46 22h-1v-1h1z" opacity=".5"/><path fill="#fe0000" d="M46 20h1v-1h1v-1h5v1h1v13h1v1h2V6h3v1h2v1h1v30h-4v-1h-5v-1h-4v-1h-1v-1h-2v-1h-1v-1h-1v-2h-1v-2h1v-6h1z"/><path fill="#fe0000" d="M57 33h-1V5h1z" opacity=".5"/></svg>