<svg width="111" height="74" viewBox="0 0 111 74" fill="none" xmlns="http://www.w3.org/2000/svg">
<g clip-path="url(#clip0_1753_3345)">
<rect width="111" height="74" fill="black"/>
<rect opacity="0.75" x="95" y="69" width="13" height="2" fill="white"/>
<rect opacity="0.5" x="3" y="69" width="22" height="2" fill="white"/>
<rect opacity="0.5" x="41" y="55" width="26" height="1" fill="white"/>
<rect opacity="0.5" x="67" y="56" width="1" height="3" fill="white"/>
<rect opacity="0.5" x="40" y="56" width="1" height="3" fill="white"/>
<rect opacity="0.5" x="41" y="59" width="26" height="1" fill="white"/>
<rect x="42" y="57" width="1" height="1" fill="#8396FD"/>
<rect x="44" y="57" width="1" height="1" fill="#8396FD"/>
<rect x="46" y="57" width="1" height="1" fill="#8396FD"/>
<rect x="65" y="36" width="1" height="1" fill="#DA5622"/>
<rect x="66" y="37" width="1" height="1" fill="#DA5622"/>
<rect x="67" y="38" width="1" height="1" fill="#DA5622"/>
<rect x="68" y="39" width="1" height="1" fill="#DA5622"/>
<rect x="70" y="36" width="1" height="1" fill="#DA5622"/>
<rect x="71" y="36" width="1" height="1" fill="#DA5622"/>
<rect x="72" y="37" width="1" height="2" fill="#DA5622"/>
<rect x="70" y="39" width="2" height="1" fill="#DA5622"/>
<rect x="69" y="36" width="1" height="6" fill="#DA5622"/>
<rect x="67" y="36" width="1" height="1" fill="#DA5622"/>
<rect x="65" y="38" width="1" height="1" fill="#DA5622"/>
<rect x="60" y="38" width="3" height="1" fill="white"/>
<rect x="60" y="43" width="3" height="1" fill="white"/>
<rect x="63" y="39" width="1" height="4" fill="white"/>
<rect x="64" y="42" width="1" height="2" fill="white"/>
<rect x="59" y="39" width="1" height="4" fill="white"/>
<rect x="46" y="36" width="1" height="8" fill="white"/>
<rect x="43" y="38" width="1" height="1" fill="white"/>
<rect x="43" y="43" width="1" height="1" fill="white"/>
<rect x="44" y="38" width="2" height="1" fill="white"/>
<rect x="44" y="43" width="2" height="1" fill="white"/>
<rect x="42" y="39" width="1" height="4" fill="white"/>
<rect x="49" y="36" width="1" height="1" fill="white"/>
<rect x="49" y="38" width="1" height="6" fill="white"/>
<rect x="53" y="38" width="5" height="1" fill="white"/>
<rect x="51" y="38" width="1" height="1" fill="white"/>
<rect x="52" y="36" width="1" height="8" fill="white"/>
<rect x="56" y="36" width="1" height="8" fill="white"/>
<rect opacity="0.5" x="30" y="31" width="15" height="3" fill="white"/>
<rect opacity="0.3" x="46" y="31" width="2" height="2" fill="white"/>
<rect opacity="0.3" x="72" y="32" width="2" height="1" fill="white"/>
<rect x="56" y="13" width="5" height="7" fill="#FCA73C"/>
<rect opacity="0.8" x="62" y="12" width="1" height="9" fill="#FCA73C"/>
<rect x="55" y="13" width="1" height="7" fill="#FCA73C"/>
<rect opacity="0.9" x="54" y="16" width="1" height="4" fill="#FCA73C"/>
<rect x="56" y="12" width="5" height="1" fill="#FCA73C"/>
<rect x="58" y="11" width="3" height="1" fill="#FCA73C"/>
<rect opacity="0.7" x="63" y="13" width="2" height="1" fill="#FCA73C"/>
<rect opacity="0.7" x="63" y="14" width="1" height="3" fill="#FCA73C"/>
<rect opacity="0.9" x="61" y="12" width="1" height="9" fill="#FCA73C"/>
<rect opacity="0.8" x="53" y="19" width="1" height="2" fill="#FCA73C"/>
<rect x="67" y="17" width="6" height="7" fill="#89BF46"/>
<rect x="73" y="15" width="1" height="7" fill="#89BF46"/>
<rect x="74" y="15" width="1" height="3" fill="#89BF46"/>
<rect opacity="0.8" x="65" y="15" width="1" height="8" fill="#89BF46"/>
<rect opacity="0.7" x="64" y="19" width="1" height="4" fill="#89BF46"/>
<rect opacity="0.7" x="63" y="22" width="1" height="1" fill="#89BF46"/>
<rect x="75" y="14" width="1" height="2" fill="#89BF46"/>
<rect x="72" y="15" width="1" height="2" fill="#89BF46"/>
<rect x="67" y="16" width="5" height="1" fill="#89BF46"/>
<rect x="67" y="15" width="2" height="1" fill="#89BF46"/>
<rect opacity="0.9" x="66" y="14" width="1" height="10" fill="#89BF46"/>
<rect x="54" y="23" width="5" height="7" fill="#88BCE5"/>
<rect x="53" y="22" width="1" height="8" fill="#88BCE5"/>
<rect x="54" y="22" width="5" height="1" fill="#88BCE5"/>
<rect x="55" y="21" width="4" height="1" fill="#88BCE5"/>
<rect opacity="0.8" x="60" y="22" width="1" height="5" fill="#88BCE5"/>
<rect opacity="0.7" x="61" y="22" width="1" height="2" fill="#88BCE5"/>
<rect x="57" y="30" width="2" height="1" fill="#88BCE5"/>
<rect x="52" y="23" width="1" height="7" fill="#88BCE5"/>
<rect opacity="0.9" x="51" y="26" width="1" height="4" fill="#88BCE5"/>
<rect opacity="0.8" x="50" y="29" width="1" height="2" fill="#88BCE5"/>
<rect opacity="0.9" x="59" y="21" width="1" height="11" fill="#88BCE5"/>
<rect x="64" y="26" width="6" height="7" fill="#FFCD1B"/>
<rect opacity="0.8" x="62" y="26" width="1" height="7" fill="#FFCD1B"/>
<rect opacity="0.7" x="61" y="29" width="1" height="4" fill="#FFCD1B"/>
<rect x="64" y="33" width="5" height="1" fill="#FFCD1B"/>
<rect opacity="0.9" x="63" y="24" width="1" height="10" fill="#FFCD1B"/>
<rect x="64" y="25" width="6" height="1" fill="#FFCD1B"/>
<rect x="64" y="24" width="1" height="1" fill="#FFCD1B"/>
<rect x="70" y="25" width="1" height="7" fill="#FFCD1B"/>
<rect x="71" y="25" width="1" height="3" fill="#FFCD1B"/>
<rect x="72" y="25" width="1" height="1" fill="#FFCD1B"/>
</g>
<defs>
<clipPath id="clip0_1753_3345">
<rect width="111" height="74" fill="white"/>
</clipPath>
</defs>
</svg>
