<svg xmlns="http://www.w3.org/2000/svg" width="111" height="74" fill="none" viewBox="0 0 111 74"><path fill="#000" d="M0 0h111v74H0z"/><path fill="#fff" d="M95 69h13v2H95z" opacity=".75"/><path fill="#fff" d="M3 69h22v2H3zM41 55h26v1H41zM67 56h1v3h-1zM40 56h1v3h-1zM41 59h26v1H41z" opacity=".5"/><path fill="#8396fd" d="M42 57h1v1h-1zM44 57h1v1h-1zM46 57h1v1h-1z"/><path fill="#da5622" d="M65 36h1v1h-1zM66 37h1v1h-1zM67 38h1v1h-1zM72 37h1v2h-1zM72 36v1h-2v2h2v1h-2v2h-1v-2h-1v-1h1v-3zM67 36h1v1h-1zM65 38h1v1h-1z"/><path fill="#fff" d="M60 38h3v1h-3zM60 43h3v1h-3zM64 42h1v2h-1v-1h-1v-4h1zM59 39h1v4h-1zM47 44h-4v-1h3v-4h-3v-1h3v-2h1zM42 39h1v4h-1zM49 36h1v1h-1zM49 38h1v6h-1zM53 38h3v-2h1v2h1v1h-1v5h-1v-5h-3v5h-1v-5h-1v-1h1v-2h1z"/><path fill="#fff" d="M30 31h15v3H30z" opacity=".5"/><path fill="#fff" d="M46 31h2v2h-2zM72 32h2v1h-2z" opacity=".3"/><path fill="#fca73c" d="M62 12h1v9h-1z" opacity=".8"/><path fill="#fca73c" d="M54 16h1v4h-1z" opacity=".9"/><path fill="#fca73c" d="M61 20h-6v-7h1v-1h2v-1h3z"/><path fill="#fca73c" d="M63 13h2v1h-2zM63 14h1v3h-1z" opacity=".7"/><path fill="#fca73c" d="M61 12h1v9h-1z" opacity=".9"/><path fill="#fca73c" d="M53 19h1v2h-1z" opacity=".8"/><path fill="#89bf46" d="M65 15h1v8h-1z" opacity=".8"/><path fill="#89bf46" d="M64 19h1v4h-1zM63 22h1v1h-1z" opacity=".7"/><path fill="#89bf46" d="M76 16h-1v2h-1v4h-1v2h-6v-9h2v1h3v-1h3v-1h1z"/><path fill="#89bf46" d="M66 14h1v10h-1z" opacity=".9"/><path fill="#88bce5" d="M60 22h1v5h-1z" opacity=".8"/><path fill="#88bce5" d="M61 22h1v2h-1z" opacity=".7"/><path fill="#88bce5" d="M59 31h-2v-1h-5v-7h1v-1h2v-1h4z"/><path fill="#88bce5" d="M51 26h1v4h-1z" opacity=".9"/><path fill="#88bce5" d="M50 29h1v2h-1z" opacity=".8"/><path fill="#88bce5" d="M59 21h1v11h-1z" opacity=".9"/><path fill="#ffcd1b" d="M62 26h1v7h-1z" opacity=".8"/><path fill="#ffcd1b" d="M61 29h1v4h-1z" opacity=".7"/><path fill="#ffcd1b" d="M63 24h1v10h-1z" opacity=".9"/><path fill="#ffcd1b" d="M65 25h8v1h-1v2h-1v4h-1v1h-1v1h-5V24h1z"/></svg>