<svg width="100" height="100" viewBox="0 0 100 100" xmlns="http://www.w3.org/2000/svg">
<path d="M75.7644 36.8081H72.4479C71.6226 33.8174 69.9804 31.1331 67.7163 29.074C65.4523 27.0149 62.6614 25.6674 59.6751 25.1915C56.6888 24.7156 53.6325 25.1313 50.869 26.3892C48.1055 27.6471 45.7509 29.6944 44.0848 32.2881C41.9775 30.4283 39.4305 29.1734 36.701 28.6503C33.9715 28.1272 31.1561 28.3543 28.5392 29.3087C25.9223 30.2631 23.5965 31.911 21.7967 34.086C19.997 36.261 18.7869 38.8861 18.2887 41.6961C15.5358 42.9482 13.1495 44.9199 11.3671 47.4151C9.17488 50.4507 7.99397 54.1334 8.00002 57.9151C8.00517 62.6164 9.82268 67.1236 13.0538 70.4481C16.285 73.7725 20.666 75.6426 25.2356 75.6481H52.3264C55.9586 75.6531 59.4984 74.4709 62.4353 72.2721H75.7644C80.3356 72.2721 84.7195 70.4039 87.9518 67.0785C91.1841 63.7531 93 59.2429 93 54.5401C93 49.8373 91.1841 45.3271 87.9518 42.0017C84.7195 38.6763 80.3356 36.8081 75.7644 36.8081ZM25.2356 70.1831C22.3968 70.1843 19.6507 69.1432 17.4915 67.247C15.3324 65.3509 13.9018 62.7243 13.4572 59.8397C13.0126 56.9551 13.5833 54.0021 15.0664 51.5118C16.5496 49.0215 18.8479 47.1575 21.5478 46.2551C22.0486 46.0861 22.4892 45.7677 22.8136 45.3403C23.138 44.9129 23.3314 44.3959 23.3694 43.8551C23.555 41.1881 24.6975 38.6873 26.5751 36.8384C28.4527 34.9896 30.9313 33.9248 33.5293 33.8509C36.1273 33.777 38.6593 34.6992 40.6333 36.4384C42.6074 38.1777 43.8825 40.6097 44.2111 43.2621C44.2919 43.9226 44.6041 44.53 45.0893 44.9705C45.5745 45.4109 46.1992 45.654 46.8462 45.6541H52.3264C55.4887 45.6541 58.5216 46.9465 60.7577 49.247C62.9938 51.5476 64.25 54.6677 64.25 57.9211C64.25 61.1745 62.9938 64.2947 60.7577 66.5952C58.5216 68.8957 55.4887 70.1881 52.3264 70.1881L25.2356 70.1831ZM75.7644 66.8071H67.2341C68.7543 64.1127 69.5573 61.0536 69.5622 57.9381C69.5672 54.8226 68.7739 51.7608 67.2622 49.0613C65.7506 46.3617 63.5741 44.1197 60.9519 42.5612C58.3298 41.0028 55.3547 40.1829 52.3264 40.1841H49.0099C48.6893 39.0269 48.2436 37.9102 47.6812 36.8551C48.6123 34.7069 50.2008 32.9309 52.2045 31.798C54.2082 30.6651 56.517 30.2376 58.7789 30.5805C61.0408 30.9235 63.1315 32.0181 64.7323 33.6975C66.3331 35.3769 67.3561 37.5488 67.6452 39.8821C67.7262 40.5427 68.0386 41.1501 68.524 41.5905C69.0093 42.0309 69.6342 42.274 70.2813 42.2741H75.7615C77.3363 42.2595 78.8983 42.566 80.3574 43.1759C81.8164 43.7858 83.1436 44.687 84.2622 45.8275C85.3809 46.968 86.2688 48.3252 86.8748 49.8207C87.4807 51.3162 87.7927 52.9204 87.7927 54.5406C87.7927 56.1609 87.4807 57.7651 86.8748 59.2606C86.2688 60.7561 85.3809 62.1133 84.2622 63.2538C83.1436 64.3943 81.8164 65.2955 80.3574 65.9054C78.8983 66.5153 77.3363 66.8218 75.7615 66.8071H75.7644Z" fill="currentColor" />
</svg>
