<svg width="100" height="100" viewBox="0 0 100 100" xmlns="http://www.w3.org/2000/svg">
<path d="M84.5995 67.3857C84.3437 67.009 83.9824 66.7162 83.5608 66.5442C83.1392 66.3721 82.6762 66.3284 82.2299 66.4185C75.5251 67.7513 68.5712 66.9513 62.3443 64.1308C56.1174 61.3103 50.9303 56.6109 47.5109 50.6923C44.5015 45.4754 42.9895 39.5297 43.1412 33.5092C43.2929 27.4886 45.1024 21.6266 48.3707 16.5678C48.6176 16.1864 48.7466 15.7407 48.7416 15.2865C48.7366 14.8322 48.5979 14.3895 48.3428 14.0136C48.0876 13.6377 47.7274 13.3453 47.307 13.1729C46.8866 13.0005 46.4247 12.9558 45.9791 13.0443C36.8987 14.8721 28.8215 20.0081 23.3155 27.4555C17.8095 34.9028 15.2675 44.1301 16.183 53.3461C17.0985 62.562 21.4061 71.109 28.2698 77.328C35.1334 83.5469 44.0632 86.9939 53.3257 87C59.5506 86.9835 65.6731 85.415 71.1389 82.4365C76.6048 79.458 81.2414 75.1636 84.6291 69.942C84.8762 69.5602 85.0051 69.114 84.9998 68.6594C84.9946 68.2047 84.8553 67.7616 84.5995 67.3857ZM44.8138 81.2486C38.123 79.4528 32.1749 75.5799 27.8264 70.1878C23.4779 64.7956 20.9533 58.1626 20.6164 51.244C20.2795 44.3255 22.1476 37.4786 25.9517 31.6896C29.7557 25.9005 35.2994 21.4682 41.784 19.031C40.9646 20.858 40.2927 22.7476 39.775 24.6818C38.5061 29.4172 38.1825 34.3562 38.8227 39.2167C39.463 44.0771 41.0545 48.7639 43.5064 53.0093C45.9583 57.2548 49.2225 60.9758 53.1128 63.9598C57.003 66.9438 61.443 69.1324 66.1792 70.4006C69.8723 71.3988 73.6977 71.8192 77.5194 71.647C73.484 76.1079 68.2932 79.3657 62.5211 81.0603C56.749 82.7548 50.6206 82.82 44.8138 81.2486Z" fill="currentColor"/>
</svg>
