<svg width="100" height="100" viewBox="0 0 100 100" xmlns="http://www.w3.org/2000/svg">
<path d="M77.708 18.732C74.7669 15.2239 72.1558 11.4519 69.908 7.46396C69.6765 7.02235 69.3285 6.6525 68.9019 6.39446C68.4752 6.13641 67.9861 6 67.4875 6C66.9889 6 66.4998 6.13641 66.0731 6.39446C65.6465 6.6525 65.2985 7.02235 65.067 7.46396C62.8189 11.4517 60.2078 15.2237 57.267 18.732C52.353 24.968 47.712 30.858 47.712 38.304C47.712 50.163 56.583 59.811 67.487 59.811C78.391 59.811 87.262 50.163 87.262 38.304C87.262 30.858 82.621 24.968 77.708 18.732ZM67.488 54.345C59.598 54.345 53.179 47.145 53.179 38.304C53.179 32.752 57.063 27.822 61.561 22.114C63.571 19.563 65.627 16.953 67.488 14.104C69.348 16.953 71.405 19.563 73.415 22.114C77.915 27.822 81.797 32.752 81.797 38.304C81.797 47.149 75.378 54.345 67.488 54.345ZM34.588 33.929C32.6665 31.6385 30.9593 29.1765 29.488 26.574C29.2565 26.1324 28.9085 25.7625 28.4819 25.5045C28.0552 25.2464 27.5661 25.11 27.0675 25.11C26.5689 25.11 26.0798 25.2464 25.6531 25.5045C25.2265 25.7625 24.8785 26.1324 24.647 26.574C23.1759 29.1764 21.4687 31.6381 19.547 33.928C16.331 38.017 13 42.244 13 47.515C13 55.908 19.312 62.737 27.07 62.737C34.828 62.737 41.139 55.908 41.139 47.515C41.139 42.244 37.808 38.017 34.587 33.929H34.588ZM27.07 57.272C22.325 57.272 18.47 52.895 18.47 47.515C18.47 44.139 20.963 40.975 23.85 37.315C24.932 35.942 26.033 34.544 27.075 33.053C28.116 34.544 29.218 35.942 30.299 37.315C33.186 40.979 35.679 44.143 35.679 47.515C35.674 52.895 31.814 57.272 27.07 57.272ZM52.87 63.631C52.6385 63.1894 52.2905 62.8195 51.8639 62.5615C51.4372 62.3034 50.9481 62.167 50.4495 62.167C49.9509 62.167 49.4618 62.3034 49.0351 62.5615C48.6085 62.8195 48.2605 63.1894 48.029 63.631C46.8634 65.6901 45.5118 67.6382 43.991 69.451C41.349 72.805 38.616 76.273 38.616 80.69C38.616 87.725 43.925 93.448 50.449 93.448C56.973 93.448 62.285 87.724 62.285 80.69C62.285 76.273 59.552 72.805 56.91 69.451C55.3896 67.6382 54.0383 65.6901 52.873 63.631H52.87ZM50.452 87.983C46.941 87.983 44.085 84.711 44.085 80.69C44.085 78.167 46.032 75.695 48.285 72.833C48.985 71.947 49.725 71.006 50.45 70.005C51.175 71.005 51.916 71.947 52.615 72.833C54.87 75.695 56.815 78.167 56.815 80.69C56.819 84.711 53.963 87.983 50.452 87.983Z" fill="currentColor"/>
</svg>
