<svg width="100" height="100" viewBox="0 0 100 100" xmlns="http://www.w3.org/2000/svg">
<path d="M75.716 29.8081H72.304C71.4549 26.8174 69.7654 24.1331 67.4362 22.074C65.1069 20.0149 62.2357 18.6674 59.1634 18.1915C56.0911 17.7156 52.9467 18.1313 50.1037 19.3892C47.2606 20.6471 44.8382 22.6944 43.124 25.2881C40.956 23.4283 38.3357 22.1734 35.5276 21.6503C32.7195 21.1272 29.823 21.3543 27.1308 22.3087C24.4385 23.2631 22.0457 24.911 20.1941 27.086C18.3425 29.261 17.0975 31.8861 16.585 34.6961C13.7528 35.9482 11.2978 37.9199 9.46402 40.4151C7.20872 43.4508 5.99379 47.1334 6.00002 50.9151C6.00532 55.6164 7.87517 60.1236 11.1994 63.4481C14.5236 66.7725 19.0307 68.6426 23.732 68.6481H51.603C55.3398 68.6531 58.9816 67.4709 62.003 65.2721H75.716C80.4188 65.2721 84.929 63.4039 88.2544 60.0785C91.5798 56.7531 93.448 52.2429 93.448 47.5401C93.448 42.8373 91.5798 38.3271 88.2544 35.0017C84.929 31.6763 80.4188 29.8081 75.716 29.8081ZM23.732 63.1881C20.8114 63.1893 17.9863 62.1482 15.7649 60.252C13.5435 58.3559 12.0717 55.7293 11.6144 52.8447C11.157 49.9601 11.7441 47.0071 13.2699 44.5168C14.7958 42.0265 17.1603 40.1625 19.938 39.2601C20.454 39.0908 20.9078 38.7716 21.2416 38.3432C21.5753 37.9149 21.7739 37.3968 21.812 36.8551C22.003 34.1881 23.1784 31.6873 25.1101 29.8384C27.0418 27.9896 29.5917 26.9248 32.2645 26.8509C34.9374 26.777 37.5423 27.6992 39.5732 29.4384C41.6041 31.1777 42.916 33.6097 43.254 36.2621C43.3371 36.9226 43.6583 37.53 44.1575 37.9705C44.6566 38.4109 45.2994 38.654 45.965 38.6541H51.603C54.8564 38.6541 57.9766 39.9465 60.2771 42.247C62.5776 44.5476 63.87 47.6677 63.87 50.9211C63.87 54.1745 62.5776 57.2947 60.2771 59.5952C57.9766 61.8957 54.8564 63.1881 51.603 63.1881H23.732ZM75.716 59.8121H66.94C68.5043 57.1176 69.3306 54.0584 69.3358 50.9428C69.3411 47.8272 68.5249 44.7652 66.9697 42.0655C65.4145 39.3658 63.1752 37.1237 60.4774 35.5652C57.7796 34.0066 54.7187 33.1868 51.603 33.1881H48.191C47.8615 32.0295 47.4029 30.9115 46.824 29.8551C47.7819 27.7069 49.4162 25.9309 51.4776 24.798C53.539 23.6651 55.9143 23.2376 58.2413 23.5805C60.5683 23.9235 62.7193 25.0181 64.3662 26.6975C66.0132 28.3769 67.0656 30.5489 67.363 32.8821C67.4463 33.5426 67.7678 34.1499 68.2672 34.5902C68.7665 35.0304 69.4093 35.2732 70.075 35.2731H75.713C78.9664 35.2731 82.0866 36.5655 84.3871 38.866C86.6876 41.1666 87.98 44.2867 87.98 47.5401C87.98 50.7935 86.6876 53.9137 84.3871 56.2142C82.0866 58.5147 78.9664 59.8071 75.713 59.8071L75.716 59.8121ZM37.916 77.7501L36.024 81.0091C35.8446 81.3199 35.6058 81.5923 35.3211 81.8108C35.0365 82.0292 34.7116 82.1895 34.365 82.2824C34.0184 82.3753 33.6569 82.399 33.3011 82.3522C32.9454 82.3054 32.6023 82.189 32.2915 82.0096C31.9807 81.8302 31.7084 81.5914 31.4899 81.3067C31.2714 81.0221 31.1112 80.6972 31.0182 80.3506C30.9253 80.004 30.9016 79.6425 30.9484 79.2867C30.9952 78.931 31.1116 78.5879 31.291 78.2771L33.175 75.0121C33.3515 74.6957 33.5892 74.4175 33.8742 74.1938C34.1592 73.9701 34.4858 73.8053 34.8351 73.7089C35.1843 73.6126 35.5493 73.5866 35.9086 73.6326C36.268 73.6786 36.6147 73.7956 36.9285 73.9767C37.2422 74.1579 37.5168 74.3997 37.7363 74.688C37.9558 74.9762 38.1157 75.3053 38.2069 75.6559C38.2981 76.0066 38.3186 76.3719 38.2673 76.7305C38.216 77.0892 38.0938 77.4341 37.908 77.7451L37.916 77.7501ZM53.037 77.7501L51.152 81.0141C50.9726 81.3249 50.7338 81.5973 50.4491 81.8158C50.1645 82.0342 49.8396 82.1945 49.493 82.2874C49.1464 82.3803 48.7849 82.404 48.4291 82.3572C48.0734 82.3104 47.7303 82.194 47.4195 82.0146C47.1088 81.8352 46.8364 81.5964 46.6179 81.3117C46.3994 81.0271 46.2392 80.7022 46.1462 80.3556C46.0533 80.009 46.0296 79.6475 46.0764 79.2917C46.1232 78.936 46.2396 78.5929 46.419 78.2821L48.304 75.0171C48.4805 74.7007 48.7182 74.4225 49.0032 74.1988C49.2882 73.9751 49.6148 73.8103 49.9641 73.7139C50.3133 73.6176 50.6783 73.5916 51.0377 73.6376C51.397 73.6836 51.7437 73.8006 52.0575 73.9818C52.3712 74.1629 52.6458 74.4047 52.8653 74.693C53.0848 74.9812 53.2447 75.3103 53.3359 75.6609C53.4271 76.0116 53.4476 76.3769 53.3963 76.7355C53.345 77.0942 53.2228 77.4391 53.037 77.7501ZM68.157 77.7501L66.273 81.0141C66.0936 81.3249 65.8548 81.5973 65.5701 81.8158C65.2855 82.0342 64.9606 82.1945 64.614 82.2874C64.2674 82.3803 63.9059 82.404 63.5501 82.3572C63.1944 82.3104 62.8513 82.194 62.5405 82.0146C62.2298 81.8352 61.9574 81.5964 61.7389 81.3117C61.5204 81.0271 61.3602 80.7022 61.2673 80.3556C61.1743 80.009 61.1506 79.6475 61.1974 79.2917C61.2442 78.936 61.3606 78.5929 61.54 78.2821L63.424 75.0121C63.6005 74.6957 63.8382 74.4175 64.1232 74.1938C64.4082 73.9701 64.7348 73.8053 65.0841 73.7089C65.4333 73.6126 65.7983 73.5866 66.1576 73.6326C66.517 73.6786 66.8637 73.7956 67.1775 73.9767C67.4912 74.1579 67.7658 74.3997 67.9853 74.688C68.2048 74.9762 68.3647 75.3053 68.4559 75.6559C68.5471 76.0066 68.5676 76.3719 68.5163 76.7305C68.465 77.0892 68.3428 77.4341 68.157 77.7451V77.7501Z" fill="currentColor"/>
</svg>
