<svg width="100" height="100" viewBox="0 0 100 100" xmlns="http://www.w3.org/2000/svg">
<path d="M49.724 25.46C44.925 25.46 40.2338 26.8831 36.2436 29.5492C32.2535 32.2154 29.1435 36.0049 27.307 40.4386C25.4705 44.8722 24.99 49.7509 25.9262 54.4577C26.8625 59.1644 29.1734 63.4879 32.5668 66.8812C35.9601 70.2746 40.2836 72.5855 44.9903 73.5218C49.6971 74.458 54.5758 73.9775 59.0094 72.141C63.4431 70.3045 67.2326 67.1945 69.8988 63.2044C72.5649 59.2142 73.988 54.523 73.988 49.724C73.9806 43.2911 71.4218 37.1237 66.8731 32.5749C62.3243 28.0262 56.1569 25.4674 49.724 25.46ZM49.724 68.524C46.0057 68.524 42.3709 67.4214 39.2793 65.3556C36.1876 63.2899 33.778 60.3537 32.3551 56.9184C30.9321 53.4832 30.5598 49.7031 31.2852 46.0563C32.0106 42.4095 33.8012 39.0596 36.4304 36.4304C39.0596 33.8012 42.4095 32.0106 46.0563 31.2852C49.7031 30.5598 53.4832 30.9321 56.9184 32.3551C60.3537 33.778 63.2899 36.1876 65.3556 39.2793C67.4214 42.3709 68.524 46.0057 68.524 49.724C68.5187 54.7084 66.5363 59.4872 63.0118 63.0118C59.4872 66.5363 54.7084 68.5187 49.724 68.524ZM46.991 17.424V8.733C46.991 8.00816 47.2789 7.31301 47.7915 6.80048C48.304 6.28794 48.9992 6 49.724 6C50.4488 6 51.144 6.28794 51.6565 6.80048C52.1691 7.31301 52.457 8.00816 52.457 8.733V17.433C52.457 18.1578 52.1691 18.853 51.6565 19.3655C51.144 19.8781 50.4488 20.166 49.724 20.166C48.9992 20.166 48.304 19.8781 47.7915 19.3655C47.2789 18.853 46.991 18.1578 46.991 17.433V17.424ZM70.629 28.824C70.375 28.5704 70.1735 28.2693 70.036 27.9378C69.8986 27.6063 69.8278 27.2509 69.8278 26.892C69.8278 26.5331 69.8986 26.1777 70.036 25.8462C70.1735 25.5147 70.375 25.2136 70.629 24.96L76.777 18.811C77.0303 18.5552 77.3317 18.352 77.6638 18.213C77.9959 18.074 78.3522 18.002 78.7122 18.0011C79.0723 18.0002 79.4289 18.0705 79.7617 18.2079C80.0945 18.3452 80.3968 18.547 80.6514 18.8016C80.906 19.0562 81.1078 19.3585 81.2451 19.6913C81.3825 20.0241 81.4528 20.3807 81.4519 20.7407C81.451 21.1008 81.379 21.4571 81.24 21.7892C81.101 22.1213 80.8978 22.4227 80.642 22.676L74.493 28.824C74.2394 29.078 73.9383 29.2795 73.6068 29.417C73.2753 29.5544 72.9199 29.6252 72.561 29.6252C72.2021 29.6252 71.8467 29.5544 71.5152 29.417C71.1837 29.2795 70.8826 29.078 70.629 28.824ZM93.448 49.724C93.448 50.0829 93.3773 50.4383 93.24 50.7699C93.1026 51.1015 92.9013 51.4027 92.6475 51.6565C92.3937 51.9103 92.0925 52.1116 91.7609 52.249C91.4293 52.3863 91.0739 52.457 90.715 52.457H82.024C81.2992 52.457 80.604 52.1691 80.0915 51.6565C79.5789 51.144 79.291 50.4488 79.291 49.724C79.291 48.9992 79.5789 48.304 80.0915 47.7915C80.604 47.2789 81.2992 46.991 82.024 46.991H90.719C91.4431 46.9921 92.1373 47.2805 92.6489 47.7929C93.1606 48.3053 93.448 48.9999 93.448 49.724ZM80.642 76.777C81.1504 77.2904 81.4349 77.9842 81.4331 78.7067C81.4313 79.4293 81.1435 80.1217 80.6326 80.6326C80.1217 81.1435 79.4293 81.4313 78.7067 81.4331C77.9842 81.4349 77.2904 81.1504 76.777 80.642L70.629 74.493C70.1166 73.9806 69.8287 73.2856 69.8287 72.561C69.8287 71.8364 70.1166 71.1414 70.629 70.629C71.1414 70.1166 71.8364 69.8287 72.561 69.8287C73.2856 69.8287 73.9806 70.1166 74.493 70.629L80.642 76.777ZM52.457 82.024V90.719C52.457 91.4438 52.1691 92.139 51.6565 92.6515C51.144 93.1641 50.4488 93.452 49.724 93.452C48.9992 93.452 48.304 93.1641 47.7915 92.6515C47.2789 92.139 46.991 91.4438 46.991 90.719V82.024C46.991 81.2992 47.2789 80.604 47.7915 80.0915C48.304 79.5789 48.9992 79.291 49.724 79.291C50.4488 79.291 51.144 79.5789 51.6565 80.0915C52.1691 80.604 52.457 81.2992 52.457 82.024ZM28.824 70.629C29.078 70.8826 29.2795 71.1837 29.417 71.5152C29.5544 71.8467 29.6252 72.2021 29.6252 72.561C29.6252 72.9199 29.5544 73.2753 29.417 73.6068C29.2795 73.9383 29.078 74.2394 28.824 74.493L22.676 80.642C22.4227 80.8978 22.1213 81.101 21.7892 81.24C21.4571 81.379 21.1008 81.451 20.7407 81.4519C20.3807 81.4528 20.0241 81.3825 19.6913 81.2451C19.3585 81.1078 19.0562 80.906 18.8016 80.6514C18.547 80.3968 18.3452 80.0945 18.2079 79.7617C18.0705 79.4289 18.0002 79.0723 18.0011 78.7122C18.002 78.3522 18.074 77.9959 18.213 77.6638C18.352 77.3317 18.5552 77.0303 18.811 76.777L24.96 70.629C25.2136 70.375 25.5147 70.1735 25.8462 70.036C26.1777 69.8986 26.5331 69.8278 26.892 69.8278C27.2509 69.8278 27.6063 69.8986 27.9378 70.036C28.2693 70.1735 28.5704 70.375 28.824 70.629ZM17.424 52.457H8.733C8.00816 52.457 7.31301 52.1691 6.80048 51.6565C6.28794 51.144 6 50.4488 6 49.724C6 48.9992 6.28794 48.304 6.80048 47.7915C7.31301 47.2789 8.00816 46.991 8.733 46.991H17.433C18.1578 46.991 18.853 47.2789 19.3655 47.7915C19.8781 48.304 20.166 48.9992 20.166 49.724C20.166 50.4488 19.8781 51.144 19.3655 51.6565C18.853 52.1691 18.1578 52.457 17.433 52.457H17.424ZM18.802 22.671C18.5462 22.4177 18.343 22.1163 18.204 21.7842C18.065 21.4521 17.993 21.0958 17.9921 20.7357C17.9912 20.3757 18.0615 20.0191 18.1989 19.6863C18.3362 19.3535 18.538 19.0512 18.7926 18.7966C19.0472 18.542 19.3495 18.3402 19.6823 18.2029C20.0151 18.0655 20.3717 17.9952 20.7317 17.9961C21.0918 17.997 21.4481 18.069 21.7802 18.208C22.1123 18.347 22.4137 18.5502 22.667 18.806L28.824 24.955C29.078 25.209 29.2796 25.5106 29.417 25.8426C29.5545 26.1745 29.6253 26.5302 29.6253 26.8895C29.6253 27.2488 29.5545 27.6045 29.417 27.9364C29.2796 28.2684 29.078 28.57 28.824 28.824C28.57 29.078 28.2684 29.2796 27.9364 29.417C27.6045 29.5545 27.2488 29.6253 26.8895 29.6253C26.5302 29.6253 26.1745 29.5545 25.8426 29.417C25.5106 29.2796 25.209 29.078 24.955 28.824L18.802 22.671Z" fill="currentColor"/>
</svg>
