<svg width="100" height="100" viewBox="0 0 100 100" xmlns="http://www.w3.org/2000/svg">
<path d="M90 50.2445C89.9932 56.061 87.6795 61.6374 83.5665 65.7502C79.4535 69.863 73.8771 72.1765 68.0606 72.183H62.6173C62.285 72.1894 61.9548 72.1294 61.646 72.0067C61.3371 71.8839 61.0558 71.7008 60.8186 71.468C60.5813 71.2353 60.3929 70.9575 60.2642 70.6511C60.1355 70.3446 60.0693 70.0156 60.0693 69.6833C60.0693 69.3509 60.1355 69.0219 60.2642 68.7154C60.3929 68.409 60.5813 68.1313 60.8186 67.8985C61.0558 67.6657 61.3371 67.4826 61.646 67.3599C61.9548 67.2371 62.285 67.1771 62.6173 67.1835H68.0606C70.2956 67.1999 72.5117 66.7739 74.5813 65.93C76.6509 65.086 78.5331 63.8409 80.1193 62.2663C81.7055 60.6917 82.9644 58.8188 83.8235 56.7554C84.6826 54.6921 85.1249 52.4791 85.1249 50.2441C85.1249 48.009 84.6826 45.796 83.8235 43.7327C82.9644 41.6694 81.7055 39.7964 80.1193 38.2218C78.5331 36.6472 76.6509 35.4021 74.5813 34.5582C72.5117 33.7142 70.2956 33.2882 68.0606 33.3046H60.7538C60.1447 33.3047 59.5565 33.0824 59.0997 32.6795C58.6428 32.2766 58.3488 31.7207 58.2728 31.1164C57.8028 27.4221 55.9763 24.0345 53.1481 21.6117C50.32 19.189 46.6921 17.9041 42.9695 18.0067C39.2469 18.1094 35.6954 19.5922 33.005 22.1671C30.3147 24.7421 28.6776 28.2252 28.4119 31.9397C28.377 32.4353 28.1953 32.9092 27.89 33.3011C27.5847 33.6929 27.1695 33.9849 26.6975 34.1399C22.8629 35.3872 19.5992 37.9618 17.4933 41.4005C15.3874 44.8393 14.5776 48.9166 15.2094 52.8991C15.8412 56.8817 17.8733 60.5081 20.94 63.1262C24.0068 65.7444 27.9071 67.1824 31.9395 67.1817H35.7671C36.0994 67.1753 36.4296 67.2353 36.7385 67.358C37.0473 67.4808 37.3286 67.6639 37.5659 67.8967C37.8031 68.1294 37.9916 68.4071 38.1202 68.7136C38.2489 69.02 38.3152 69.3491 38.3152 69.6814C38.3152 70.0138 38.2489 70.3428 38.1202 70.6493C37.9916 70.9557 37.8031 71.2334 37.5659 71.4662C37.3286 71.6989 37.0473 71.8821 36.7385 72.0048C36.4296 72.1276 36.0994 72.1876 35.7671 72.1812H31.9395C26.1232 72.1747 20.5471 69.8615 16.4341 65.749C12.3212 61.6366 10.0073 56.0607 10 50.2445C9.99214 45.5659 11.495 41.0097 14.2851 37.2539C16.6653 34.014 19.8896 31.49 23.6063 29.9573C24.3135 25.3782 26.5878 21.1864 30.041 18.0972C33.4942 15.008 37.9123 13.2127 42.5416 13.0177C47.1708 12.8228 51.7243 14.2402 55.425 17.0281C59.1257 19.816 61.7444 23.8017 62.8342 28.3051H68.0606C73.8773 28.3116 79.4538 30.6252 83.5669 34.7382C87.6799 38.8512 89.9935 44.4278 90 50.2445ZM55.2585 63.3741L46.9335 63.3796L53.1919 53.9569C53.5587 53.4047 53.6912 52.7293 53.5601 52.0795C53.429 51.4296 53.0451 50.8584 52.4929 50.4915C51.9407 50.1247 51.2654 49.9922 50.6155 50.1233C49.9656 50.2544 49.3944 50.6382 49.0276 51.1904L40.1866 64.4994C39.9365 64.876 39.7932 65.3134 39.7719 65.765C39.7507 66.2166 39.8523 66.6656 40.0659 67.064C40.2795 67.4625 40.5972 67.7956 40.9851 68.0278C41.3731 68.26 41.8167 68.3827 42.2688 68.3828L51.0512 68.3773L43.4782 82.3468C43.3094 82.6359 43.2003 82.956 43.1576 83.288C43.1149 83.6201 43.1393 83.9574 43.2294 84.2798C43.3195 84.6023 43.4735 84.9033 43.6822 85.1651C43.8909 85.4269 44.1501 85.6441 44.4443 85.8038C44.7386 85.9635 45.0619 86.0624 45.3952 86.0948C45.7284 86.1271 46.0647 86.0921 46.3842 85.992C46.7037 85.8918 46.9997 85.7285 47.2549 85.5117C47.51 85.2949 47.719 85.029 47.8694 84.7299L57.4559 67.0664C57.6626 66.6858 57.7669 66.2579 57.7585 65.8249C57.7501 65.3918 57.6292 64.9683 57.4078 64.596C57.1864 64.2237 56.8721 63.9154 56.4956 63.7011C56.1191 63.4869 55.6934 63.3743 55.2603 63.3741H55.2585Z" fill="currentColor"/>
</svg>
