<svg width="1802" height="622" viewBox="0 0 1802 622" xmlns="http://www.w3.org/2000/svg">
  <path d="M1786.12 515.891C1767.73 515.891 1763.55 500.846 1766.06 485.801L1787.79 362.119C1807.84 245.96 1733.47 174.092 1608.12 174.092C1512.01 174.092 1415.91 234.263 1404.21 328.699H1522.04C1529.56 289.417 1561.31 266.858 1606.44 266.858C1648.23 266.858 1672.46 286.912 1672.46 310.314C1672.46 332.038 1658.25 345.413 1636.53 347.918L1546.28 357.11C1454.35 366.302 1377.47 409.759 1377.47 498.341C1377.47 576.897 1439.31 621.188 1527.89 621.188C1585.55 621.188 1639.03 598.621 1656.58 566.861C1659.09 596.951 1692.52 620.353 1735.97 620.353C1756.86 620.353 1771.91 617.839 1783.6 614.5L1801.16 514.221C1797.82 515.056 1792.8 515.891 1786.12 515.891ZM1654.08 438.171C1643.22 492.489 1603.94 530.927 1545.44 530.927C1514.52 530.927 1496.97 515.891 1496.97 492.488C1496.97 462.407 1522.88 441.509 1559.65 436.5L1656.59 423.125L1654.08 438.17L1654.08 438.171Z" />
  <path d="M1230.38 281.895H1369.1L1387.49 180.781H1248.76L1270.49 54.595H1147.65L1125.92 180.781H943.741L965.465 54.595H842.618L775.768 436.501C753.2 561.852 822.564 621.188 932.035 621.188C962.96 621.188 986.362 617.005 1006.42 611.161L1024.8 505.864C1006.42 511.708 988.031 515.057 957.941 515.057C910.31 515.057 888.578 493.324 896.935 443.189L925.355 281.894H1108.37L1080.8 436.501C1058.23 561.852 1127.59 621.188 1237.06 621.188C1267.98 621.188 1291.38 617.005 1311.44 611.161L1329.82 505.864C1311.43 511.708 1293.05 515.057 1262.97 515.057C1215.34 515.057 1193.61 493.324 1201.96 443.189L1230.37 281.894L1230.38 281.895Z" />
  <path d="M722.879 180.781H540.696L521.477 281.895H582.483L540.696 513.378H473.011L454.627 614.501H714.521L732.906 513.378H663.543L722.879 180.781Z" />
  <path d="M722.218 65.5554C724.115 31.3 697.883 1.99247 663.628 0.0952894C629.372 -1.8019 600.065 24.4296 598.168 58.6851C596.271 92.9405 622.502 122.248 656.758 124.145C691.013 126.042 720.321 99.8108 722.218 65.5554Z" />
  <path d="M386.081 5.28589L347.643 223.403C324.241 193.322 274.94 174.094 225.631 174.094C86.913 174.093 0 287.748 0 423.126C0 539.285 73.538 621.189 168.808 621.189C222.291 621.189 268.252 596.952 289.141 566.027L279.949 614.501H403.631L508.927 5.28589H386.08H386.081ZM209.751 516.727C159.616 516.727 124.517 474.94 124.517 418.117C124.517 338.727 170.478 278.556 237.328 278.556C289.142 278.556 325.076 315.325 325.076 372.991C325.076 441.51 284.132 516.727 209.751 516.727Z" />
</svg>
