<svg width="54" height="50" viewBox="0 0 54 50" fill="none" xmlns="http://www.w3.org/2000/svg">
<path d="M12.4167 12.4167L20.75 18.6667L12.4167 24.9167M24.9167 24.9167H33.25M8.25 47.8333H45.75C47.4076 47.8333 48.9973 47.1749 50.1694 46.0027C51.3415 44.8306 52 43.2409 52 41.5833V8.25C52 6.5924 51.3415 5.00269 50.1694 3.83058C48.9973 2.65848 47.4076 2 45.75 2H8.25C6.5924 2 5.00268 2.65848 3.83058 3.83058C2.65848 5.00269 2 6.5924 2 8.25V41.5833C2 43.2409 2.65848 44.8306 3.83058 46.0027C5.00268 47.1749 6.5924 47.8333 8.25 47.8333Z" stroke="black" stroke-width="4" stroke-linecap="round" stroke-linejoin="round"/>
</svg>
