<svg width="33" height="51" viewBox="0 0 33 51" fill="none" xmlns="http://www.w3.org/2000/svg">
<path d="M1.44604 50.1604C0.810448 50.1604 0.386719 49.7367 0.386719 49.1011V41.8977C3.91779 40.1322 7.66073 37.0248 7.66073 32.3638C7.66073 31.7988 7.59011 31.3751 7.59011 31.1632H1.51666C0.881069 31.1632 0.386719 30.7395 0.386719 30.1039V25.7254C0.386719 25.0898 0.881069 24.5954 1.51666 24.5954H5.04774C3.49406 21.9118 1.86977 18.9457 1.86977 14.779C1.86977 6.51633 8.36695 0.1604 17.7596 0.1604C25.0336 0.1604 29.7653 4.04458 32.5901 8.07C32.9432 8.56435 32.9432 9.27057 32.3782 9.76492L27.9997 13.9316C27.4347 14.4966 26.9404 14.5672 26.446 13.9316C24.6805 11.5305 22.4206 9.12933 18.4658 9.12933C14.2991 9.12933 11.4037 11.8129 11.4037 15.8384C11.4037 19.3694 13.5223 21.6293 15.1466 24.6661H25.528C26.2342 24.6661 26.5873 25.0898 26.5873 25.7254V30.1039C26.5873 30.7395 26.2342 31.1632 25.528 31.1632H16.7003C16.7709 31.3751 16.8415 32.0813 16.8415 32.7875C16.8415 36.5305 14.511 39.4259 11.7568 41.8977H30.4008C31.0364 41.8977 31.4602 42.3214 31.4602 42.957V49.1011C31.4602 49.7367 31.0364 50.1604 30.4008 50.1604H1.44604Z" fill="black"/>
</svg>
